<?xml version="1.0" standalone="no"?>
<!DOCTYPE svg PUBLIC "-//W3C//DTD SVG 20010904//EN"
 "http://www.w3.org/TR/2001/REC-SVG-20010904/DTD/svg10.dtd">
<svg version="1.0" xmlns="http://www.w3.org/2000/svg"
 width="175.000000pt" height="110.000000pt" viewBox="0 0 175.000000 110.000000"
 preserveAspectRatio="xMidYMid meet">

<g transform="translate(0.000000,110.000000) scale(0.100000,-0.100000)"
fill="#000000" stroke="none">
<path d="M345 1073 c-97 -51 -125 -117 -123 -293 1 -117 7 -143 38 -170 9 -8
24 -36 34 -61 9 -26 26 -55 36 -64 11 -10 20 -30 20 -44 -1 -35 -90 -114 -194
-172 -109 -61 -156 -103 -156 -140 l0 -29 39 43 c21 23 74 62 116 86 l76 43
36 -41 c23 -27 41 -40 52 -36 11 3 24 -7 41 -32 43 -63 121 -143 140 -143 19
0 135 118 152 156 8 18 17 22 33 18 17 -4 30 4 56 35 l34 41 33 -20 34 -21
-32 -36 c-37 -42 -60 -91 -60 -128 0 -42 27 -29 39 20 11 43 72 125 92 125 5
0 34 -24 64 -53 54 -52 55 -52 55 -26 0 20 -11 37 -40 62 -22 19 -40 36 -40
39 0 3 18 13 41 22 l41 17 42 -45 c54 -59 114 -86 191 -86 77 0 137 27 192 87
l43 46 64 -32 c78 -38 132 -95 147 -156 12 -48 39 -63 39 -20 0 92 -98 183
-261 245 -79 29 -109 59 -109 108 0 27 6 45 21 58 12 10 32 42 44 69 13 28 32
58 43 68 25 23 36 76 23 111 -6 14 -24 31 -42 39 -18 7 -57 43 -89 82 l-56 70
-82 2 -83 3 -15 -38 c-38 -90 -50 -107 -85 -124 -57 -26 -63 -94 -14 -148 13
-14 26 -35 30 -48 3 -12 22 -43 41 -67 43 -56 46 -105 9 -139 -13 -12 -57 -35
-97 -51 -40 -15 -83 -34 -95 -41 -21 -13 -29 -11 -77 13 -30 16 -79 52 -110
81 -65 62 -71 89 -31 148 14 20 25 45 25 56 0 10 11 29 23 41 39 36 44 57 45
183 2 173 -24 236 -120 285 -50 25 -266 27 -313 2z m250 -19 c105 -27 145 -85
145 -206 -1 -88 -14 -75 -28 28 -12 87 -31 117 -83 138 -58 23 -211 21 -266
-3 -51 -24 -63 -45 -74 -134 -12 -97 -29 -110 -29 -24 0 114 42 175 140 201
72 19 123 19 195 0z m28 -73 c35 -14 48 -42 57 -123 6 -50 15 -77 34 -102 29
-39 34 -87 10 -110 -8 -9 -19 -16 -23 -16 -5 0 -14 -20 -21 -45 -16 -56 -40
-89 -91 -121 -89 -56 -215 -14 -258 86 -12 27 -21 52 -21 56 0 5 -11 17 -25
29 -14 11 -28 34 -31 52 -5 26 -1 36 19 56 32 29 47 66 47 118 0 79 27 113
105 133 30 7 167 -2 198 -13z m568 -102 c15 -7 24 -7 34 1 23 19 53 2 94 -53
46 -63 78 -92 109 -102 32 -10 31 -67 -3 -93 -14 -11 -25 -25 -25 -32 0 -7
-12 -35 -27 -62 -51 -93 -147 -123 -221 -68 -31 23 -82 106 -82 134 0 9 -4 16
-9 16 -5 0 -17 7 -25 16 -20 20 -22 84 -2 84 30 0 73 50 95 110 23 62 29 67
62 49z m-670 -476 c27 3 59 13 72 22 24 15 25 15 30 -17 2 -18 0 -42 -7 -54
-14 -25 -109 -143 -116 -143 -5 0 -63 71 -106 129 -14 19 -19 38 -16 63 l4 35
46 -20 c34 -15 57 -19 93 -15z m736 10 c63 5 63 5 63 -22 1 -35 18 -55 71 -85
l43 -25 -45 -43 c-93 -90 -215 -90 -309 0 l-45 44 30 15 c55 28 85 64 85 100
0 31 1 33 22 22 13 -7 46 -9 85 -6z m-886 -105 c6 -12 6 -18 0 -18 -5 0 -23
-11 -40 -25 l-30 -26 -17 26 c-17 26 -16 27 17 61 36 37 40 36 70 -18z m359
-23 c0 -20 -37 -48 -45 -35 -4 6 -20 19 -35 29 l-29 17 21 33 21 32 33 -32
c19 -18 34 -38 34 -44z m-276 -75 c22 -28 42 -50 46 -50 3 0 21 20 40 45 38
50 60 61 90 45 20 -11 20 -12 3 -42 -10 -16 -44 -58 -75 -92 l-58 -61 -46 50
c-93 99 -115 156 -62 155 15 -1 36 -17 62 -50z"/>
<path d="M1237 1063 c-5 -4 -37 -8 -71 -9 -77 -1 -114 -24 -144 -87 -11 -24
-37 -63 -57 -87 -48 -57 -55 -78 -55 -153 0 -37 -8 -86 -20 -120 -28 -80 -27
-141 5 -173 22 -22 32 -25 93 -22 51 2 67 7 67 18 0 11 -15 14 -65 15 -59 0
-65 2 -79 27 -14 25 -14 33 3 90 10 35 21 101 25 148 7 92 9 96 56 155 18 22
42 59 54 82 29 59 60 77 116 70 29 -4 53 -2 72 8 15 8 45 15 65 15 46 0 99
-43 121 -98 8 -21 31 -57 50 -80 44 -52 61 -102 53 -152 -4 -26 1 -58 19 -108
29 -84 31 -109 9 -140 -14 -21 -23 -23 -78 -21 -47 2 -61 0 -61 -12 0 -10 17
-15 67 -17 61 -3 71 0 93 22 31 31 34 100 8 167 -9 24 -19 83 -23 131 -5 79
-9 91 -38 125 -17 21 -46 63 -63 94 -49 90 -78 112 -152 117 -34 2 -66 0 -70
-5z"/>
</g>
</svg>
