<?xml version="1.0" encoding="UTF-8"?>
<svg xmlns="http://www.w3.org/2000/svg" xmlns:xlink="http://www.w3.org/1999/xlink" width="384px" height="359px" viewBox="0 0 143 134" version="1.1">
<g id="surface1">
<path style=" stroke:none;fill-rule:nonzero;fill:rgb(0%,0%,0%);fill-opacity:1;" d="M 35.898438 22.433594 C 26.066406 25.324219 18.769531 32.351562 15.589844 41.875 C 14.300781 45.761719 14.398438 53.738281 15.789062 59.074219 C 19.511719 73.28125 28.648438 86.589844 47.914062 105.933594 C 62.5625 120.691406 70.210938 127.617188 71.796875 127.617188 C 73.335938 127.617188 81.578125 120.089844 96.078125 105.433594 C 119.117188 82.203125 128.699219 65.953125 128.800781 49.851562 C 128.847656 42.621094 126.914062 37.140625 122.59375 32.105469 C 116.335938 24.875 108.640625 21.4375 98.511719 21.4375 C 87.636719 21.4375 79.890625 25.472656 73.984375 34.296875 C 73.039062 35.695312 72.046875 36.890625 71.75 36.890625 C 71.5 36.890625 70.605469 35.894531 69.863281 34.648438 C 67.824219 31.457031 63.007812 26.769531 59.980469 25.023438 C 55.3125 22.382812 51.242188 21.4375 44.738281 21.484375 C 40.714844 21.484375 38.035156 21.785156 35.898438 22.433594 Z M 52.632812 27.765625 C 54.121094 28.164062 56.257812 29.011719 57.398438 29.660156 C 60.328125 31.355469 65.046875 36.640625 67.578125 41.027344 C 70.953125 46.859375 72.59375 46.859375 75.917969 40.976562 C 79.046875 35.542969 84.707031 29.910156 88.582031 28.464844 C 103.921875 22.730469 120.65625 31.15625 123.238281 45.863281 C 124.679688 54.289062 120.855469 66.101562 112.859375 77.71875 C 105.113281 89.035156 95.828125 98.953125 75.074219 118.398438 C 73.585938 119.792969 72.097656 120.890625 71.699219 120.890625 C 71.351562 120.890625 66.535156 116.601562 61.023438 111.417969 C 42.503906 93.871094 30.835938 79.960938 25.273438 68.84375 C 17.726562 53.738281 18.273438 41.875 26.863281 33.648438 C 33.417969 27.367188 43.148438 25.125 52.632812 27.765625 Z M 52.632812 27.765625 "/>
<path style=" stroke:none;fill-rule:nonzero;fill:rgb(0%,0%,0%);fill-opacity:1;" d="M 42.703125 36.890625 C 41.855469 37.738281 41.707031 38.535156 41.707031 42.125 L 41.707031 46.3125 L 37.140625 46.460938 C 32.621094 46.609375 32.523438 46.609375 32.074219 48.007812 C 31.230469 50.351562 32.125 51.097656 36.046875 51.246094 C 41.957031 51.445312 41.707031 51.246094 41.707031 55.832031 C 41.707031 59.171875 41.855469 59.972656 42.703125 60.820312 C 43.941406 62.066406 44.785156 62.066406 46.128906 60.917969 C 46.972656 60.21875 47.171875 59.421875 47.269531 55.832031 L 47.417969 51.597656 L 51.640625 51.445312 C 56.257812 51.296875 57.101562 50.898438 57.101562 48.855469 C 57.101562 46.808594 56.257812 46.410156 51.640625 46.261719 L 47.417969 46.113281 L 47.269531 41.875 C 47.171875 38.285156 46.972656 37.488281 46.128906 36.742188 C 44.785156 35.644531 43.941406 35.644531 42.703125 36.890625 Z M 42.703125 36.890625 "/>
<path style=" stroke:none;fill-rule:nonzero;fill:rgb(0%,0%,0%);fill-opacity:1;" d="M 79.542969 44.21875 C 78.996094 44.714844 75.671875 49.253906 72.144531 54.335938 C 68.570312 59.421875 63.40625 66.800781 60.675781 70.738281 C 55.609375 77.867188 54.816406 79.761719 56.207031 81.15625 C 57.148438 82.105469 58.144531 81.90625 68.570312 78.914062 C 74.03125 77.367188 78.601562 76.222656 78.75 76.421875 C 78.898438 76.570312 75.820312 82.054688 71.847656 88.585938 C 63.257812 102.742188 63.40625 102.492188 63.804688 103.691406 C 64.199219 104.988281 65.789062 105.835938 67.03125 105.433594 C 67.578125 105.285156 69.515625 102.59375 71.402344 99.554688 C 88.878906 71.085938 88.878906 70.988281 87.289062 69.394531 C 86.347656 68.445312 85.105469 68.644531 74.976562 71.535156 C 69.710938 73.03125 65.292969 74.179688 65.195312 74.078125 C 65.09375 73.980469 68.96875 68.195312 73.882812 61.265625 C 78.75 54.289062 83.019531 48.105469 83.367188 47.457031 C 84.160156 45.960938 83.617188 44.417969 82.074219 43.820312 C 80.535156 43.269531 80.734375 43.222656 79.542969 44.21875 Z M 79.542969 44.21875 "/>
</g>
</svg>
