<svg width="55" height="145" viewBox="0 0 55 145" fill="none" xmlns="http://www.w3.org/2000/svg">
<path d="M40.7206 1.60746C39.7918 2.62663 34.1344 11.9011 28.1392 22.2967C22.0596 32.6922 13.278 47.776 8.63382 55.8275C0.0210485 70.4016 -1.32997 74.2745 1.03432 77.1282C2.63866 79.0646 4.32744 78.6569 22.0596 72.5419C31.3479 69.3825 39.1163 67.0384 39.3696 67.446C39.6229 67.7518 34.3877 78.9627 27.6326 92.3139C13.0246 121.258 13.278 120.749 13.9535 123.195C14.629 125.845 17.331 127.577 19.442 126.762C20.3708 126.456 23.664 120.953 26.8726 114.736C56.5951 56.5409 56.5951 56.3371 53.8931 53.0757C52.2888 51.1393 50.1778 51.5469 32.9522 57.4581C24.0017 60.5157 16.4866 62.8598 16.3178 62.6559C16.1489 62.4521 22.7351 50.6297 31.0946 36.4632C39.3696 22.1948 46.6313 9.55701 47.2224 8.23209C48.5734 5.17457 47.6446 2.01513 45.027 0.792126C42.4094 -0.328965 42.7472 -0.430885 40.7206 1.60746Z" fill="#333239"/>
<path d="M6.02393 145.001L39.2858 120.778L10.2144 100.537L6.02393 145.001Z" fill="#333239"/>
</svg>
