<?xml version="1.0" standalone="no"?>
<!DOCTYPE svg PUBLIC "-//W3C//DTD SVG 20010904//EN"
 "http://www.w3.org/TR/2001/REC-SVG-20010904/DTD/svg10.dtd">
<svg version="1.0" xmlns="http://www.w3.org/2000/svg"
 width="512.000000px" height="512.000000px" viewBox="0 0 512.000000 512.000000"
 preserveAspectRatio="xMidYMid meet">

<g transform="translate(0.000000,512.000000) scale(0.100000,-0.100000)"
fill="#000000" stroke="none">
<path d="M1332 5109 c-337 -44 -645 -257 -792 -549 -80 -159 -110 -303 -110
-526 0 -114 -3 -141 -20 -173 -30 -60 -34 -110 -15 -177 22 -76 95 -153 171
-180 l51 -18 6 -70 c21 -258 164 -494 384 -633 l73 -46 0 -93 0 -93 -37 -10
c-21 -6 -129 -33 -240 -60 -307 -77 -373 -105 -471 -201 -58 -58 -94 -113
-124 -192 -20 -55 -41 -215 -154 -1213 -39 -347 -54 -507 -49 -549 13 -118 70
-217 156 -272 78 -49 125 -54 510 -54 345 0 357 1 383 21 36 28 36 80 0 108
-24 19 -40 21 -175 21 l-149 0 0 33 c0 17 16 325 35 682 19 358 35 667 35 688
0 47 -28 77 -73 77 -61 0 -71 -22 -82 -194 l-10 -151 -184 -3 c-102 -1 -188 1
-192 5 -9 9 65 670 82 728 16 60 52 116 104 164 50 46 152 99 206 107 32 5 37
2 81 -59 176 -240 514 -385 814 -348 126 15 196 35 299 85 140 67 268 174 354
294 21 31 27 33 60 27 43 -8 147 -55 180 -82 l23 -19 -21 -42 c-34 -67 -50
-155 -90 -514 -20 -186 -40 -340 -44 -344 -3 -4 -13 -4 -20 -1 -11 4 -16 40
-22 151 -8 169 -19 196 -81 196 -46 0 -74 -29 -74 -77 0 -21 16 -330 35 -688
19 -357 35 -665 35 -682 l0 -33 -422 0 c-331 -1 -427 -3 -440 -14 -39 -30 -40
-92 0 -122 14 -11 198 -13 955 -14 l938 0 24 25 c14 13 25 36 25 50 0 14 -11
37 -25 50 -23 24 -29 25 -161 25 l-137 0 6 78 c3 42 21 362 39 710 37 716 38
684 -38 690 -54 4 -76 -21 -82 -91 l-4 -54 -177 40 c-97 22 -178 41 -180 43
-4 4 27 311 40 389 29 167 131 276 308 329 30 9 59 16 65 16 6 0 19 -36 29
-81 53 -235 249 -456 475 -535 349 -121 742 33 907 356 36 71 75 188 75 225 0
35 14 38 78 20 161 -47 269 -145 302 -276 20 -79 57 -441 45 -445 -27 -10
-319 -74 -336 -74 -16 0 -19 7 -19 48 0 64 -27 94 -77 90 -25 -2 -42 -11 -54
-28 -18 -24 -18 -43 19 -737 l37 -713 -441 0 c-417 0 -443 -1 -465 -19 -32
-26 -32 -86 0 -112 22 -18 53 -19 670 -19 540 0 656 2 704 15 136 35 223 135
248 282 11 63 5 131 -79 878 -50 446 -98 836 -107 868 -44 166 -161 296 -324
358 -31 12 -153 46 -271 76 -118 30 -232 59 -252 64 l-38 10 0 93 0 93 73 46
c83 53 165 128 224 207 44 58 107 177 118 223 11 40 21 33 46 -30 19 -50 23
-84 28 -248 6 -178 7 -192 29 -223 49 -68 100 -78 251 -47 129 26 164 39 197
77 83 91 70 195 -56 453 -58 120 -111 202 -173 271 -36 39 -47 60 -48 85 0 19
-6 50 -13 69 -11 30 -10 42 6 87 23 67 25 349 3 495 -28 190 -127 421 -187
441 -36 11 -80 -10 -92 -45 -8 -23 -2 -44 42 -136 61 -129 89 -228 98 -354 6
-80 5 -91 -8 -85 -9 3 -36 11 -59 18 -24 7 -55 21 -68 31 -26 20 -89 23 -176
9 -27 -5 -94 -5 -148 0 -142 12 -220 51 -318 159 -54 60 -83 83 -110 90 -58
16 -111 -10 -160 -77 -48 -64 -114 -114 -189 -143 -66 -25 -215 -41 -290 -29
-96 13 -150 11 -178 -10 -15 -10 -43 -23 -62 -29 -19 -5 -43 -13 -52 -17 -16
-6 -18 0 -18 64 0 121 44 281 111 405 48 89 148 205 229 268 195 151 460 229
677 199 158 -22 305 -77 428 -160 33 -23 70 -41 83 -41 31 0 72 43 72 76 0 84
-311 243 -533 273 -252 35 -518 -28 -746 -176 -71 -47 -245 -221 -293 -294
-81 -123 -138 -260 -164 -397 -20 -103 -19 -484 0 -540 13 -35 13 -47 0 -88
-8 -26 -14 -59 -14 -74 0 -16 -12 -37 -31 -56 -113 -107 -299 -486 -299 -607
1 -82 58 -162 132 -186 18 -5 84 -20 146 -31 l113 -22 46 24 c83 41 87 53 94
266 5 156 10 197 28 247 12 33 25 63 30 68 4 4 23 -29 42 -74 70 -175 182
-303 362 -413 28 -17 28 -17 25 -112 l-3 -96 -250 -63 c-273 -69 -351 -96
-426 -150 l-49 -35 -49 35 c-75 54 -153 81 -426 150 l-250 63 -3 95 -3 96 72
46 c219 142 356 368 378 625 l6 75 43 15 c64 22 131 78 161 135 34 65 36 171
4 225 -18 31 -21 57 -26 220 -7 250 -40 380 -139 542 -209 345 -604 538 -996
487z m335 -170 c384 -100 653 -444 653 -835 0 -86 -2 -94 -19 -94 -11 0 -32
11 -48 23 -15 13 -62 40 -104 60 -86 41 -167 120 -215 207 -64 118 -175 121
-248 6 -77 -120 -230 -223 -396 -267 -121 -33 -303 -32 -458 0 l-112 24 -51
-27 c-83 -43 -89 -39 -89 52 0 339 194 649 494 791 76 36 205 74 286 85 67 8
230 -5 307 -25z m166 -758 c52 -88 150 -176 246 -222 l64 -30 -6 -272 c-6
-282 -11 -325 -56 -437 -69 -169 -229 -319 -405 -380 -87 -30 -244 -44 -330
-30 -287 48 -515 271 -565 554 -6 33 -11 167 -11 298 l0 238 23 -5 c217 -49
401 -43 597 21 155 50 311 152 383 252 17 23 33 42 37 42 3 0 13 -13 23 -29z
m2022 -177 c109 -57 163 -68 338 -69 l159 0 -5 -290 c-5 -322 -8 -343 -74
-475 -44 -88 -165 -215 -255 -268 -74 -44 -177 -79 -273 -93 -121 -18 -273 9
-392 69 -107 55 -240 189 -297 300 -57 110 -79 275 -74 559 l3 193 160 3 c143
3 168 6 238 30 99 35 169 79 232 148 l50 55 65 -65 c36 -37 92 -80 125 -97z
m-1027 -271 l-3 -58 -37 37 c-31 29 -38 43 -38 73 0 30 7 44 38 73 l37 36 3
-52 c2 -28 2 -77 0 -109z m1721 123 c34 -31 44 -63 31 -102 -11 -31 -52 -74
-71 -74 -5 0 -9 48 -9 106 0 112 0 113 49 70z m-3929 -106 c0 -108 -8 -121
-47 -77 -51 55 -53 100 -5 150 45 47 52 38 52 -73z m1713 76 c30 -28 42 -65
33 -102 -7 -25 -51 -74 -67 -74 -5 0 -9 45 -9 100 0 55 4 100 9 100 4 0 20
-11 34 -24z m464 -297 c25 -8 32 -17 36 -47 4 -20 4 -38 2 -41 -8 -7 -55 41
-71 72 -16 30 -11 32 33 16z m1783 1 c0 -32 -48 -90 -74 -90 -3 0 -6 17 -6 38
0 32 4 40 28 49 36 14 52 15 52 3z m-1875 -264 c-40 -90 -55 -184 -55 -336 0
-130 -1 -141 -17 -136 -10 2 -54 12 -98 22 -100 21 -115 29 -115 59 0 64 122
325 204 439 l40 54 32 -26 32 -25 -23 -51z m2029 9 c71 -105 176 -344 176
-400 0 -31 -16 -39 -115 -60 -44 -9 -88 -19 -97 -21 -15 -5 -17 9 -17 143 0
152 -18 260 -55 332 -22 41 -20 48 12 76 l27 24 18 -22 c9 -12 32 -44 51 -72z
m-3376 -616 c78 -10 195 -4 295 18 l27 5 0 -83 c0 -100 24 -160 70 -179 17 -7
30 -15 30 -19 0 -16 -118 -83 -178 -101 -150 -47 -344 -11 -457 84 -22 19 -26
25 -13 26 9 0 30 11 46 25 36 30 52 87 52 181 0 64 1 66 23 60 12 -3 59 -11
105 -17z m2225 0 c73 -10 215 -2 283 17 20 5 21 1 26 -91 6 -108 20 -139 77
-165 l33 -15 -5 -65 c-7 -110 -76 -212 -182 -268 -44 -24 -61 -27 -145 -27
-84 0 -102 3 -152 28 -99 49 -169 151 -183 269 l-7 56 36 17 c53 25 76 81 76
184 l0 84 33 -7 c17 -4 67 -12 110 -17z m-394 -352 c2 -52 31 -134 70 -194
171 -265 542 -301 760 -73 71 74 131 207 131 293 0 31 12 33 74 16 38 -11 38
-11 32 -52 -12 -79 -48 -169 -98 -242 -236 -353 -753 -349 -988 8 -44 68 -93
208 -88 253 3 24 9 30 48 39 50 13 58 6 59 -48z m-2168 -11 c126 -119 274
-171 464 -163 171 7 294 59 417 175 l57 54 58 -14 58 -14 -65 -68 c-156 -164
-335 -240 -560 -239 -170 1 -303 42 -440 136 -47 33 -170 153 -170 166 0 7 65
27 99 30 7 0 44 -28 82 -63z m1651 -924 c92 -21 170 -41 174 -44 5 -6 -36
-854 -52 -1090 l-7 -88 -121 0 c-176 1 -228 17 -269 87 -40 69 -39 100 18 618
62 556 62 555 78 555 7 0 87 -17 179 -38z m2242 -494 c63 -576 63 -575 13
-648 -43 -65 -74 -75 -237 -75 l-145 0 -31 585 c-17 322 -29 587 -28 589 5 5
325 79 349 80 20 1 23 -22 79 -531z m-4315 -235 c-15 -269 -27 -489 -28 -490
-3 -8 -252 -1 -284 8 -59 16 -105 63 -123 126 -18 62 -17 74 38 561 l32 282
195 0 196 0 -26 -487z"/>
</g>
</svg>
