<?xml version="1.0" standalone="no"?>
<!DOCTYPE svg PUBLIC "-//W3C//DTD SVG 20010904//EN"
 "http://www.w3.org/TR/2001/REC-SVG-20010904/DTD/svg10.dtd">
<svg version="1.0" xmlns="http://www.w3.org/2000/svg"
 width="512.000000px" height="512.000000px" viewBox="0 0 512.000000 512.000000"
 preserveAspectRatio="xMidYMid meet">

<g transform="translate(0.000000,512.000000) scale(0.100000,-0.100000)"
fill="#000000" stroke="none">
<path d="M2320 5029 c-503 -55 -820 -264 -958 -632 -64 -171 -76 -259 -75
-542 0 -210 3 -264 20 -339 l20 -89 -21 -51 c-30 -75 -28 -285 3 -371 41 -113
104 -188 197 -236 35 -17 38 -23 60 -108 46 -183 123 -338 233 -468 l61 -73 0
-124 0 -123 -66 -43 c-95 -61 -170 -125 -334 -285 -133 -129 -154 -146 -250
-195 -159 -81 -485 -269 -601 -348 -132 -88 -167 -116 -258 -205 -172 -168
-253 -340 -268 -570 -6 -93 -5 -96 20 -121 33 -33 79 -35 111 -3 19 19 24 38
29 112 25 341 211 542 797 865 102 56 212 117 246 136 l61 33 34 -51 c35 -55
145 -189 221 -270 59 -63 94 -65 146 -11 32 35 36 36 46 19 56 -93 178 -271
245 -356 104 -131 460 -487 496 -496 56 -14 96 11 240 148 209 200 373 400
516 627 l57 91 21 -29 c26 -37 50 -45 107 -36 40 6 52 15 130 103 47 53 107
129 132 169 26 39 51 72 55 72 12 1 417 -222 536 -296 263 -163 408 -301 483
-460 40 -85 57 -151 65 -258 5 -74 10 -93 29 -112 32 -32 78 -30 111 3 25 25
26 28 20 119 -16 234 -97 406 -273 576 -147 141 -358 278 -739 479 l-199 105
-150 146 c-156 150 -274 250 -351 295 l-45 26 0 147 c0 146 0 148 26 172 42
39 132 181 169 266 30 68 72 203 89 283 4 18 18 31 48 45 23 10 63 40 89 65
93 93 134 219 126 385 -3 56 -12 120 -21 145 -16 43 -16 50 6 155 20 96 23
140 23 340 0 261 -14 363 -71 524 -124 350 -416 567 -856 636 -123 19 -467 28
-588 14z m565 -173 c340 -58 575 -208 689 -440 85 -173 112 -333 102 -606 -3
-102 -9 -200 -12 -218 -5 -28 -9 -31 -22 -20 -24 20 -59 80 -76 132 -10 28
-22 128 -31 254 -21 296 -51 396 -160 534 -83 103 -203 164 -402 200 -101 18
-158 21 -398 22 -366 1 -523 -22 -681 -99 -128 -63 -237 -208 -279 -370 -9
-33 -22 -152 -30 -265 -18 -249 -28 -293 -93 -379 l-25 -34 -10 24 c-15 42
-21 365 -8 478 40 336 187 559 457 687 128 61 250 92 474 118 75 9 419 -4 505
-18z m-80 -307 c130 -11 263 -38 330 -68 88 -39 171 -140 205 -249 20 -63 26
-117 40 -333 15 -247 46 -324 192 -479 66 -70 79 -89 89 -135 17 -76 7 -198
-21 -262 -25 -59 -85 -119 -127 -129 -65 -14 -83 -26 -92 -63 -5 -20 -21 -82
-35 -138 -63 -257 -195 -454 -355 -532 -31 -15 -87 -48 -126 -74 -86 -58 -168
-85 -288 -93 -103 -7 -246 8 -311 33 -22 9 -81 43 -130 75 -48 32 -95 58 -102
58 -8 0 -34 20 -58 45 -25 25 -51 45 -59 45 -20 0 -99 103 -146 191 -47 87
-95 226 -111 321 -15 84 -36 111 -97 129 -63 17 -122 77 -148 149 -15 43 -20
80 -20 167 l0 111 111 109 c154 150 177 207 194 468 14 222 20 274 40 337 34
109 117 210 205 249 149 66 505 96 820 68z m318 -2651 c4 -68 9 -140 13 -161
12 -68 -61 -181 -246 -386 -134 -150 -199 -225 -265 -311 -31 -41 -61 -75 -65
-75 -11 0 -172 203 -201 253 -14 25 -46 61 -70 81 -87 69 -237 253 -284 345
-30 60 -32 97 -5 121 18 16 20 31 20 132 0 88 3 113 13 113 8 0 38 -17 68 -39
127 -90 217 -119 399 -128 210 -10 366 22 476 97 57 39 126 80 135 80 4 0 9
-55 12 -122z m-1170 -467 l55 -73 -71 -36 c-53 -27 -97 -60 -167 -130 l-95
-94 -47 54 c-26 29 -69 83 -94 120 l-47 67 31 38 c39 49 181 186 251 241 l54
43 37 -78 c21 -43 63 -111 93 -152z m1587 5 l105 -106 -19 -35 c-10 -19 -53
-76 -94 -126 l-75 -91 -23 30 c-78 99 -230 215 -301 228 -18 3 -33 9 -33 13 0
4 28 43 61 86 34 44 77 113 96 152 l35 73 72 -60 c39 -32 118 -107 176 -164z
m-1348 -288 c90 -99 195 -233 252 -321 61 -93 81 -110 123 -105 22 2 41 24 98
109 150 224 274 347 360 357 53 6 133 -29 180 -78 l29 -30 -19 -33 c-104 -180
-226 -351 -358 -498 -92 -104 -274 -279 -289 -279 -15 0 -221 204 -313 310
-45 52 -116 141 -157 196 -74 100 -198 296 -198 314 0 17 92 89 133 104 68 25
104 14 159 -46z"/>
</g>
</svg>
