<?xml version="1.0" standalone="no"?>
<!DOCTYPE svg PUBLIC "-//W3C//DTD SVG 20010904//EN"
 "http://www.w3.org/TR/2001/REC-SVG-20010904/DTD/svg10.dtd">
<svg version="1.0" xmlns="http://www.w3.org/2000/svg"
 width="299.000000" height="299.000000" viewBox="0 0 299.000000 299.000000"
 preserveAspectRatio="xMidYMid meet">

<g transform="translate(0.000000,299.000000) scale(0.100000,-0.100000)"
fill="#000000" stroke="none">
<path d="M340 2657 c-30 -16 -51 -37 -67 -67 l-23 -43 0 -666 0 -667 23 -44
c16 -33 34 -51 67 -68 42 -21 55 -22 297 -22 l253 0 0 -104 0 -105 -52 -3 -53
-3 0 -50 0 -50 213 -3 212 -2 0 55 0 55 -105 0 -105 0 0 105 0 105 50 0 50 0
0 55 0 55 -354 0 c-309 0 -357 2 -370 16 -14 14 -16 89 -16 674 0 585 2 660
16 674 14 14 113 16 943 16 851 0 930 -1 942 -17 11 -13 14 -108 16 -502 l3
-486 50 -3 51 -3 -3 510 c-3 496 -4 510 -24 538 -11 15 -40 38 -64 51 l-44 22
-932 0 -931 0 -43 -23z"/>
<path d="M990 2453 c-29 -10 -80 -67 -91 -101 -6 -19 -8 -53 -4 -79 l7 -46
-103 -103 -104 -104 38 -37 37 -38 104 104 104 104 76 1 76 1 75 -75 75 -75
-11 -37 c-15 -55 3 -108 50 -151 69 -62 161 -58 220 8 37 43 45 72 38 134 l-6
48 75 74 74 74 63 -3 c52 -3 68 0 96 20 133 89 75 288 -83 288 -60 0 -107 -25
-137 -72 -15 -26 -19 -47 -17 -95 l3 -63 -72 -72 -73 -73 -75 1 -76 0 -74 74
-73 73 5 51 c10 101 -56 177 -153 175 -27 0 -56 -3 -64 -6z m94 -109 c31 -31
10 -94 -31 -94 -24 0 -53 30 -53 53 0 26 28 57 51 57 10 0 25 -7 33 -16z m746
-4 c11 -11 20 -27 20 -35 0 -8 -9 -24 -20 -35 -11 -11 -27 -20 -35 -20 -8 0
-24 9 -35 20 -11 11 -20 27 -20 35 0 8 9 24 20 35 11 11 27 20 35 20 8 0 24
-9 35 -20z m-354 -392 c8 -27 -22 -68 -50 -68 -33 0 -60 33 -52 65 12 47 87
50 102 3z"/>
<path d="M470 1720 l0 -50 50 0 50 0 0 50 0 50 -50 0 -50 0 0 -50z"/>
<path d="M1663 1705 c-35 -8 -93 -28 -130 -46 -93 -45 -217 -169 -261 -261
-107 -220 -69 -473 97 -650 112 -121 255 -182 421 -182 132 0 237 34 352 116
15 11 25 5 73 -42 l55 -54 -25 -26 c-47 -49 -40 -61 158 -258 107 -107 191
-182 202 -182 25 0 205 180 205 205 0 11 -75 95 -182 202 -197 198 -209 205
-258 158 l-26 -25 -54 55 c-47 48 -53 58 -42 73 82 115 116 220 116 352 0 370
-339 644 -701 565z m236 -106 c118 -27 243 -122 299 -227 104 -195 74 -410
-78 -562 -190 -190 -493 -185 -674 11 -137 148 -166 362 -74 543 47 92 169
193 276 227 64 20 182 24 251 8z m654 -1147 l127 -128 -38 -37 -38 -37 -129
130 -129 130 34 35 c19 19 36 35 40 35 3 0 63 -58 133 -128z"/>
<path d="M1800 1458 l0 -53 53 -13 c100 -23 179 -103 201 -204 l12 -53 54 -3
53 -3 -6 44 c-24 176 -148 301 -329 332 l-38 6 0 -53z"/>
<path d="M470 1481 c0 -64 4 -84 23 -111 34 -51 78 -72 163 -78 l74 -5 0 57 0
56 -64 0 c-81 0 -96 16 -96 102 l0 58 -50 0 -50 0 0 -79z"/>
</g>
</svg>
