<?xml version="1.0" standalone="no"?>
<!DOCTYPE svg PUBLIC "-//W3C//DTD SVG 20010904//EN"
 "http://www.w3.org/TR/2001/REC-SVG-20010904/DTD/svg10.dtd">
<svg version="1.0" xmlns="http://www.w3.org/2000/svg"
 width="512.000000px" height="512.000000px" viewBox="0 0 512.000000 512.000000"
 preserveAspectRatio="xMidYMid meet">

<g transform="translate(0.000000,512.000000) scale(0.100000,-0.100000)"
fill="#000000" stroke="none">
<path d="M1145 4254 c-240 -28 -418 -92 -605 -217 -93 -62 -260 -229 -321
-322 -97 -145 -160 -295 -196 -465 -25 -118 -25 -362 0 -480 108 -505 482
-877 987 -981 79 -17 152 -21 441 -26 l346 -6 69 -79 c159 -184 419 -386 665
-517 110 -59 147 -64 178 -25 43 54 24 92 -69 139 -218 110 -396 239 -575 419
-72 72 -147 150 -166 172 l-35 41 -375 6 c-322 5 -386 8 -464 25 -496 109
-846 519 -872 1023 -18 360 144 705 436 925 275 207 628 273 958 178 97 -27
230 -87 297 -133 67 -46 90 -49 126 -13 55 56 33 95 -98 171 -215 126 -502
191 -727 165z"/>
<path d="M2110 3853 c-33 -12 -50 -37 -50 -73 0 -21 6 -43 14 -49 8 -7 38 -47
67 -89 70 -104 70 -104 154 -97 48 4 78 2 95 -7 36 -19 60 -74 60 -136 0 -50
2 -54 55 -106 30 -29 55 -58 55 -64 0 -27 -138 -82 -207 -82 -41 0 -83 -38
-83 -75 0 -39 41 -75 87 -75 59 0 157 27 223 60 l59 30 12 -43 c7 -25 9 -83 7
-142 -6 -110 -36 -208 -98 -308 -29 -47 -41 -56 -131 -100 -146 -70 -217 -143
-295 -301 -65 -134 -72 -177 -35 -207 27 -22 70 -25 94 -6 9 6 34 54 56 106
50 116 103 187 173 233 29 19 193 98 363 177 171 79 318 150 328 158 42 38 7
123 -50 123 -16 0 -90 -29 -167 -65 -124 -58 -138 -62 -132 -42 42 143 48 184
44 293 l-4 112 28 6 c83 16 187 -43 232 -131 25 -50 44 -55 161 -47 100 6 107
6 159 -20 67 -33 111 -88 127 -161 15 -69 -6 -147 -54 -196 -19 -19 -207 -138
-418 -264 -211 -125 -389 -235 -396 -244 -29 -38 -5 -103 42 -115 31 -8 1 -24
421 225 l352 209 63 0 c127 0 325 -42 432 -92 l48 -23 100 -210 c55 -115 107
-216 116 -223 44 -32 114 0 115 53 1 19 -61 160 -170 392 -94 199 -176 380
-182 402 -28 104 53 241 159 271 79 22 106 15 330 -92 204 -97 215 -101 240
-87 14 8 32 27 39 41 19 41 1 73 -60 104 -29 14 -54 28 -56 29 -10 9 36 59 69
76 95 48 199 3 245 -106 37 -89 26 -338 -20 -427 -44 -86 -116 -107 -206 -61
-50 26 -60 37 -117 133 -35 58 -70 111 -80 118 -43 31 -113 -6 -113 -60 0 -16
79 -157 204 -366 232 -388 241 -410 234 -564 -6 -112 -31 -183 -94 -267 -75
-99 -256 -209 -457 -276 -364 -121 -792 -121 -1224 1 -68 18 -136 34 -151 34
-57 0 -88 -80 -46 -119 37 -36 308 -107 519 -137 161 -24 479 -23 624 0 279
45 491 123 690 256 111 74 180 153 232 265 45 98 59 161 59 272 0 148 -31 236
-153 438 l-55 90 58 12 c136 27 201 95 240 249 26 98 36 287 21 369 -25 130
-98 237 -197 286 -40 20 -64 24 -134 24 -73 0 -93 -4 -142 -28 -52 -25 -107
-76 -134 -123 -10 -18 -14 -17 -90 18 -104 48 -161 62 -239 56 -217 -18 -383
-229 -345 -440 7 -34 25 -91 41 -127 16 -35 28 -65 26 -67 -1 -2 -36 6 -77 16
-41 11 -103 23 -137 26 -35 4 -63 11 -63 16 0 5 6 21 14 36 27 52 38 146 26
214 -36 199 -203 329 -406 316 l-72 -5 -28 36 c-37 50 -103 99 -166 123 -54
20 -171 28 -214 14 -17 -5 -27 3 -58 50 -21 31 -55 75 -76 98 -28 31 -39 53
-45 91 -20 140 -108 223 -246 233 l-66 4 -43 59 c-61 83 -92 106 -130 92z"/>
<path d="M1983 3398 c-12 -6 -27 -25 -34 -42 -21 -53 -48 -76 -91 -76 -55 0
-95 -23 -103 -59 -13 -61 23 -93 105 -92 86 0 153 38 198 111 41 69 43 120 6
149 -29 23 -48 25 -81 9z"/>
<path d="M1267 2856 c-137 -49 -214 -171 -205 -320 9 -133 81 -243 200 -307
53 -27 76 -34 144 -37 105 -6 166 14 233 74 64 58 101 133 104 209 2 49 -1 59
-22 76 -30 24 -76 24 -100 0 -10 -10 -21 -38 -25 -62 -14 -96 -74 -149 -165
-149 -126 0 -221 96 -221 225 0 82 50 138 141 155 29 6 61 18 71 27 24 22 23
78 -2 103 -24 24 -94 26 -153 6z"/>
</g>
</svg>
