<svg width="70" height="79" viewBox="0 0 70 79" fill="none" xmlns="http://www.w3.org/2000/svg">
<path fill-rule="evenodd" clip-rule="evenodd" d="M56.1885 0.0379028C56.0562 0.0641671 55.883 0.139043 55.8037 0.204474C55.7243 0.269904 55.5619 0.351923 55.4428 0.386712C55.3238 0.42127 55.2263 0.485779 55.2263 0.529552C55.2263 0.573326 55.1506 0.632536 55.058 0.660874C54.8128 0.736211 54.1205 1.41655 53.7831 1.91396C53.7037 2.031 53.5682 2.19757 53.4824 2.28419C53.3965 2.37082 53.3096 2.47818 53.2899 2.52242C53.2081 2.70511 52.3891 3.98907 52.3265 4.03238C52.2892 4.05819 52.2289 4.19343 52.1923 4.33281C52.156 4.4722 52.0932 4.60559 52.0533 4.62909C52.0133 4.65282 51.6039 5.38845 51.1435 6.26393C50.2039 8.05083 49.6526 9.03159 49.5489 9.10002C49.5104 9.12536 49.4479 9.24171 49.4099 9.35828C49.3242 9.62139 48.3846 10.5259 47.8114 10.8971C47.5766 11.0491 47.3411 11.2178 47.2882 11.2717C47.2353 11.3258 46.8959 11.5951 46.5341 11.8702C45.9012 12.3517 44.8346 13.4898 44.8346 13.6838C44.8346 13.7352 44.7726 13.8269 44.6965 13.8873C44.6205 13.9476 44.5299 14.1213 44.495 14.2734C44.4601 14.4252 44.3711 14.6609 44.297 14.7968C43.9112 15.5051 44.1551 17.7778 44.749 19.0072C45.2513 20.0469 46.8052 21.5786 47.8174 22.0317C47.8968 22.0672 48.1989 22.2202 48.489 22.3716C48.7792 22.5229 49.0611 22.6469 49.1159 22.6469C49.1708 22.6469 49.3772 22.7298 49.5744 22.8312C49.7719 22.9326 50.0225 23.0155 50.131 23.0155C50.2398 23.0155 50.4474 23.0743 50.5924 23.1461C50.7377 23.218 51.1957 23.3219 51.6107 23.3772C52.8389 23.541 52.8596 23.5592 52.9207 24.537C52.9491 24.9927 53.0198 25.4484 53.0778 25.5498C53.136 25.6512 53.2134 25.908 53.2502 26.1205C53.287 26.3329 53.3784 26.5557 53.4537 26.6156C53.529 26.6755 53.5906 26.7778 53.5906 26.843C53.5906 27.0775 54.7477 28.3495 54.9682 28.3575C55.5583 28.3794 55.8734 29.2215 55.5504 29.9134C55.1102 30.8563 54.9863 31.0694 54.6096 31.5341C53.3332 33.1086 51.4875 33.8611 48.847 33.8841C48.4871 33.8873 48.0758 33.9465 47.9329 34.0159C47.79 34.085 47.5204 34.1682 47.3339 34.2004C46.5028 34.3442 44.9648 35.2381 44.0682 36.0984C43.1676 36.9626 42.0443 38.6773 42.0443 39.1877C42.0443 39.2694 41.9685 39.469 41.8759 39.6312C41.7198 39.9046 41.7041 40.5838 41.6594 49.0034C41.6223 55.9823 41.5834 58.1406 41.491 58.3401C41.4248 58.4827 41.3707 58.7115 41.3707 58.8484C41.3707 58.9852 41.2841 59.252 41.1783 59.4409C41.0724 59.6301 40.9858 59.827 40.9858 59.8784C40.9858 59.9669 40.5514 60.5952 40.0547 61.2246C39.8096 61.5354 38.7511 62.3659 38.6003 62.3659C38.5493 62.3659 38.456 62.4254 38.393 62.4982C38.3299 62.571 38.1406 62.6587 37.9722 62.6931C37.8041 62.7276 37.6126 62.7972 37.5472 62.8477C36.9865 63.2801 34.2134 63.2435 33.3364 62.7921C33.1776 62.7104 32.995 62.6433 32.9306 62.6429C32.7918 62.6424 31.8262 62.016 31.4048 61.6531C30.6256 60.9824 29.7616 59.5999 29.6617 58.8647C29.6307 58.6362 29.5571 58.3664 29.4984 58.265C29.4212 58.1321 29.3779 52.4521 29.3433 37.8986C29.298 18.9206 29.285 17.7 29.1272 17.4401C29.0351 17.288 28.9593 17.0908 28.9589 17.0021C28.9586 16.9132 28.8718 16.6856 28.7659 16.4964C28.6601 16.3075 28.5735 16.0794 28.5735 15.99C28.5735 15.9006 28.5307 15.8274 28.4785 15.8274C28.4263 15.8274 28.319 15.6926 28.2399 15.5279C28.001 15.0298 27.886 14.8925 26.9859 14.0303C26.1449 13.2249 25.5917 12.7862 25.4168 12.7862C25.3699 12.7862 25.2315 12.7033 25.1096 12.6019C24.9876 12.5006 24.813 12.4176 24.7218 12.4176C24.6304 12.4176 24.5049 12.3586 24.4423 12.2865C24.3798 12.2144 24.1546 12.1273 23.9415 12.093C23.7286 12.0584 23.4387 11.9725 23.2975 11.902C23.1563 11.8315 22.9235 11.7735 22.7801 11.773C22.4852 11.7725 22.2006 11.5205 22.0181 11.0986C21.6758 10.307 21.1314 10.1137 19.245 10.1137C17.2222 10.1137 17.412 10.2676 17.412 8.62726V7.25276L17.821 6.82216C18.0459 6.58555 18.3814 6.24135 18.5667 6.0575C18.7519 5.87342 19.2715 5.33685 19.7213 4.86478C20.1711 4.39294 20.7037 3.83609 20.905 3.62736C22.0989 2.38994 22.3057 1.80683 21.7419 1.2668L21.5014 1.03641L13.8353 1.01176L6.16899 0.987105L5.89693 1.21104C5.66143 1.40526 5.62511 1.50133 5.62511 1.92917C5.62511 2.47726 5.68044 2.56642 6.62002 3.53083C6.9195 3.83817 7.58414 4.52242 8.09699 5.0514C8.60984 5.58014 9.29228 6.28236 9.61341 6.61182L10.1977 7.21083L10.1727 8.63924L10.1474 10.0677L8.41548 10.1137C6.50287 10.1646 5.92964 10.3301 5.65975 10.9086C5.63906 10.953 5.52095 11.1447 5.39755 11.3348L5.17312 11.6804H3.80223C2.10491 11.6804 2.14941 11.7124 2.09505 10.457C2.05873 9.62346 2.03636 9.53753 1.7934 9.30507C1.42993 8.95718 0.635637 8.94842 0.280106 9.28871L0.0443665 9.51449L0.0140574 12.3252C-0.0234682 15.7818 -0.0201005 15.8087 0.47495 16.0808C1.45495 16.6195 2.07701 16.0785 2.10178 14.6667C2.11814 13.7219 2.14316 13.7078 3.81906 13.7078H5.17336L5.27896 13.9981C5.33693 14.1577 5.38456 14.3561 5.38456 14.4393C5.38456 15.4636 6.29263 15.9195 8.33177 15.9195C10.3625 15.9195 10.1955 15.8156 10.1955 17.0793C10.1955 18.2421 10.1484 18.3292 9.44695 18.4635C9.27881 18.4957 9.0919 18.5794 9.03128 18.6492C8.97066 18.7192 8.87541 18.7764 8.8196 18.7764C8.61417 18.7764 7.37462 19.653 6.89232 20.1396C6.09105 20.9473 6.0581 20.9842 6.0581 21.069C6.0581 21.1134 5.99652 21.1989 5.92098 21.2588C5.73432 21.4072 5.07449 22.7335 4.79521 23.5224L4.56669 24.1675V49.971V75.7746L4.78319 76.2072C4.90226 76.4452 4.99968 76.6609 4.99968 76.6864C4.99968 76.83 5.63257 77.5935 6.04342 77.9455C6.69315 78.5026 6.70229 78.5084 7.35706 78.7696L7.93438 79H13.8038H19.6732L20.2505 78.7698C21.7126 78.1865 22.5723 77.2986 23.1503 75.7746C23.357 75.2301 23.4856 26.129 23.2836 24.9969C23.089 23.9062 22.9182 23.1977 22.8232 23.0846C22.7698 23.0213 22.6969 22.8374 22.6608 22.6764C22.625 22.5151 22.5333 22.3338 22.4573 22.2734C22.3813 22.2131 22.3192 22.1078 22.3192 22.0396C22.3192 21.6903 20.9801 20.1612 20.1062 19.5124C19.4415 19.0192 18.2549 18.4077 17.9619 18.4077C17.5732 18.4077 17.412 18.0131 17.412 17.0609C17.412 15.858 17.3136 15.9195 19.239 15.9195C20.9187 15.9195 21.249 15.8518 21.7065 15.4138C21.918 15.2111 22.3122 14.4545 22.3161 14.2432C22.3228 13.9022 22.8689 13.8709 23.4657 14.1773C23.6538 14.2739 23.8448 14.3529 23.8902 14.3529C23.9357 14.3529 24.0719 14.4255 24.1933 14.5142C24.3146 14.6029 24.5162 14.7376 24.6415 14.8137C25.074 15.0763 26.2642 16.2835 26.2642 16.4593C26.2642 16.5017 26.3508 16.6321 26.4567 16.7489C26.5625 16.8657 26.6491 17.0176 26.6491 17.086C26.6491 17.1544 26.7357 17.3652 26.8415 17.5544C26.9474 17.7433 27.034 18.0101 27.034 18.1469C27.034 18.2838 27.0881 18.5126 27.1543 18.6552C27.2488 18.8591 27.2849 23.2136 27.3226 39.0045C27.3756 61.1534 27.3229 59.2324 27.9139 60.4869C28.0121 60.6951 28.0924 60.8926 28.0924 60.9255C28.0924 60.9585 28.2439 61.1921 28.4292 61.4444C28.6144 61.6966 28.7659 61.9376 28.7659 61.9798C28.7659 62.1259 30.356 63.6308 30.7866 63.8923C31.3742 64.2491 32.6304 64.8541 32.7836 64.8541C32.8521 64.8541 33.1545 64.9371 33.4557 65.0384C34.1432 65.27 36.961 65.3121 37.4065 65.0976C37.5494 65.029 37.8168 64.9451 38.0006 64.9115C38.1846 64.8779 38.5094 64.7733 38.7223 64.679C38.9354 64.5848 39.1745 64.4804 39.2539 64.447C39.4141 64.3793 39.5796 64.2841 40.2161 63.8932C41.1655 63.3101 42.4859 61.8379 42.9085 60.8914C42.9653 60.7647 43.0695 60.5366 43.1404 60.3846C43.2114 60.2325 43.3726 59.8178 43.4989 59.463L43.7281 58.8179L43.7861 49.8328C43.8489 40.0901 43.8409 40.2253 44.4009 39.1966C44.9662 38.1578 46.313 36.7467 46.739 36.7467C46.79 36.7467 46.8834 36.6872 46.9464 36.6144C47.0094 36.5416 47.198 36.4532 47.3657 36.4179C47.5331 36.3827 47.7575 36.303 47.8641 36.2408C48.046 36.1348 49.3752 35.9318 51.137 35.741C53.0426 35.5348 54.758 34.5932 56.2607 32.9285C56.4327 32.7379 56.5734 32.567 56.5734 32.5488C56.5734 32.5096 57.0141 31.8599 57.1375 31.7171C57.1849 31.6625 57.2532 31.5173 57.29 31.3945C57.3266 31.2717 57.4141 31.0469 57.4846 30.8948C57.6419 30.5552 58.0201 29.3682 58.0182 29.2196C58.0162 29.0784 58.4812 28.7292 58.671 28.7292C59.1201 28.7292 60.5016 27.5307 60.8092 26.8738C60.8655 26.7538 60.974 26.552 61.0503 26.4253C61.1268 26.2985 61.1898 26.1066 61.1905 25.9988C61.1912 25.891 61.2569 25.6537 61.3363 25.4719C61.4207 25.2782 61.4806 24.8561 61.4806 24.4534C61.4806 23.5196 61.5239 23.4837 62.8277 23.3325C63.1188 23.2989 63.4019 23.2367 63.457 23.1943C63.5118 23.1519 63.7283 23.0756 63.9381 23.025C64.4933 22.8904 65.2974 22.6027 65.4442 22.4861C65.5139 22.4306 65.6898 22.3566 65.835 22.3218C65.9803 22.2868 66.0992 22.2241 66.0992 22.1824C66.0992 22.1405 66.1959 22.0769 66.3137 22.0412C66.8699 21.8721 68.8895 20.1264 68.8895 19.8147C68.8895 19.7504 68.9266 19.6979 68.9721 19.6979C69.0649 19.6979 69.5628 18.8181 69.5636 18.6526C69.564 18.5939 69.63 18.4252 69.7103 18.2778C70.1731 17.4277 70.0625 15.0427 69.5133 14.0338C69.0028 13.0959 68.2141 12.2416 67.2057 11.5352C66.994 11.3871 66.772 11.2242 66.7123 11.1735C66.6527 11.1228 66.5071 11.0192 66.3888 10.9431C66.0306 10.713 65.4826 10.2918 65.3294 10.1289C65.1201 9.90638 64.7013 9.35299 64.62 9.19217C64.5818 9.11615 64.4473 8.88806 64.3213 8.68532C64.1952 8.48258 63.9559 8.05797 63.7892 7.74165C63.6225 7.42555 63.4512 7.14586 63.4081 7.12052C63.3653 7.09517 63.3004 6.95994 63.2638 6.82009C63.2275 6.68024 63.1411 6.50354 63.0721 6.42751C63.0031 6.35148 62.9143 6.18744 62.8746 6.06326C62.8347 5.93885 62.743 5.78035 62.6706 5.711C62.5982 5.64165 62.539 5.50734 62.539 5.41265C62.539 5.31796 62.4991 5.21681 62.4503 5.18778C62.4015 5.15899 62.2239 4.87653 62.0558 4.56044C61.8876 4.24411 61.6471 3.8195 61.521 3.61676C61.395 3.41402 61.2379 3.14447 61.1718 3.01775C61.1059 2.89104 60.9966 2.75419 60.9293 2.71364C60.8622 2.67309 60.8071 2.59983 60.8071 2.55098C60.8071 2.22314 59.1276 0.548444 58.628 0.377956C58.53 0.34455 58.3754 0.256312 58.2847 0.181666C58.1139 0.0413588 56.6706 -0.0577086 56.1885 0.0379028ZM57.4488 2.15748C58.232 2.52472 59.2072 3.80914 60.3763 6.01281C60.5644 6.36761 60.7599 6.7201 60.8109 6.79613C60.8617 6.87216 60.9466 7.03804 60.9993 7.16475C61.0522 7.29147 61.1455 7.47808 61.2069 7.57945C61.4364 7.95844 61.4847 8.04576 61.5879 8.27062C61.6461 8.39733 61.7289 8.56321 61.7719 8.63924C61.815 8.71527 61.9882 9.02468 62.1566 9.32672C62.6581 10.2271 63.2773 11.086 63.7651 11.5587C64.2388 12.0174 64.9325 12.6019 65.0035 12.6019C65.0636 12.6019 66.4323 13.6525 66.6996 13.9039C67.5381 14.6932 68.0289 15.8824 67.8513 16.6955C67.6363 17.6818 67.5249 18.0304 67.3916 18.1363C67.3159 18.1967 67.2538 18.2967 67.2538 18.3589C67.2538 18.4209 67.1626 18.5713 67.0515 18.6932C66.9401 18.8148 66.7561 19.0194 66.6426 19.1477C66.3426 19.486 65.4312 20.1587 65.2726 20.1587C65.1981 20.1587 65.137 20.1912 65.137 20.231C65.137 20.3716 63.1472 21.1724 62.7976 21.1724C62.6682 21.1724 62.407 21.2346 62.2172 21.3106C61.6098 21.5537 60.8071 21.4171 60.8071 21.0706C60.8071 20.7817 59.4826 19.4214 59.2012 19.4214C59.1531 19.4214 59.0646 19.3744 59.0047 19.3171C58.8687 19.1869 58.0011 18.9074 57.4837 18.827C56.9258 18.7404 55.7014 19.051 55.0748 19.4378C54.6038 19.7285 53.9755 20.2836 53.9755 20.4087C53.9755 20.4582 53.8889 20.5738 53.7831 20.6655C53.6772 20.7572 53.5906 20.875 53.5906 20.9273C53.5906 21.3834 52.658 21.597 51.8846 21.318C51.6852 21.2459 51.3509 21.1595 51.1418 21.1261C50.933 21.0925 50.6744 21.0063 50.5671 20.9344C50.4601 20.8625 50.2847 20.801 50.1775 20.7976C50.0702 20.7943 49.7659 20.6701 49.5013 20.5215C49.2367 20.3732 48.9552 20.2223 48.8759 20.1866C48.3392 19.9442 47.4501 19.1793 46.9996 18.5722C46.4711 17.8601 46.156 16.49 46.3559 15.7742C46.4189 15.5486 46.4704 15.3019 46.4704 15.2261C46.4704 14.8851 47.2341 14.0158 48.14 13.326C48.6346 12.9491 48.7676 12.8517 49.3452 12.4418C49.8402 12.0902 50.8705 11.0572 51.1615 10.6206C51.3304 10.3672 51.5024 10.1179 51.5433 10.0667C51.6499 9.93426 52.1495 9.02699 52.7352 7.902C53.0123 7.3698 53.2714 6.91317 53.3109 6.88736C53.3505 6.86156 53.4124 6.7284 53.4482 6.59154C53.4841 6.45492 53.5711 6.29688 53.6421 6.24066C53.7128 6.18445 53.7984 6.01672 53.8326 5.86812C53.8668 5.71975 53.931 5.59811 53.9757 5.59811C54.0202 5.59811 54.1068 5.45296 54.1679 5.27556C54.229 5.09816 54.3096 4.95302 54.3467 4.95302C54.3839 4.95302 54.4677 4.83898 54.5328 4.69959C54.7847 4.15979 55.5802 3.04885 56.0101 2.63646C56.6343 2.03722 56.9605 1.9287 57.4488 2.15748ZM18.0411 3.26726C18.0052 3.40434 17.8318 3.66353 17.6559 3.84324C16.9672 4.54684 16.2677 5.28639 16.0832 5.50595L15.8896 5.73634H13.8043H11.7192L11.2325 5.22949C10.9648 4.95071 10.5155 4.48533 10.234 4.19527C9.70193 3.64717 9.38994 3.17511 9.49386 3.07558C9.52706 3.04379 11.4784 3.01775 13.8302 3.01775H18.1065L18.0411 3.26726ZM14.9858 7.9801C15.0772 8.03539 15.1025 8.31831 15.0821 9.06131L15.0546 10.0677L13.9137 10.0937C13.1548 10.111 12.7278 10.084 12.6388 10.0133C12.4637 9.87412 12.448 8.17754 12.6203 8.01258C12.7531 7.88541 14.7843 7.85753 14.9858 7.9801ZM19.8945 12.3439C20.0773 12.519 20.047 13.6744 19.8577 13.744C19.5442 13.8592 7.83551 13.8066 7.71308 13.6894C7.52208 13.5064 7.56345 12.446 7.766 12.3328C8.02459 12.1886 19.7434 12.1992 19.8945 12.3439ZM14.9866 15.9979C15.0765 16.0525 15.103 16.2999 15.0828 16.895L15.0546 17.7166H13.8038H12.5529L12.5245 16.9351C12.501 16.2794 12.5231 16.1345 12.6633 16.0366C12.8524 15.9041 14.7794 15.8721 14.9866 15.9979ZM16.6904 20.1838C16.8491 20.2707 17.0738 20.3421 17.1898 20.3425C17.3057 20.3428 17.4279 20.3852 17.4611 20.4365C17.4943 20.4879 17.6591 20.5909 17.8274 20.6651C19.0889 21.2212 20.7797 23.1031 20.7797 23.9507C20.7797 24.0242 20.8338 24.1363 20.9 24.1997C20.9943 24.29 21.0203 26.0265 21.0203 32.2587V40.2025L16.546 40.2486C11.5684 40.3 11.7327 40.2779 11.4065 40.9361C11.183 41.3872 11.1748 68.9138 11.3983 69.2776C11.476 69.4043 11.5662 69.5778 11.5987 69.6628C11.7084 69.9501 11.9655 69.9678 16.4469 69.9957C19.7987 70.0167 20.9368 70.0512 20.9919 70.1344C21.2146 70.4699 21.0727 75.1578 20.8266 75.6013C20.4949 76.1989 19.9924 76.5998 19.29 76.827C18.3718 77.1239 9.09311 77.1244 8.27115 76.8274C7.53531 76.5616 7.02366 76.0137 6.80115 75.253C6.57191 74.4694 6.5837 25.5129 6.81366 24.5361C7.07057 23.4431 7.60603 22.475 8.36568 21.7299C8.97981 21.1275 9.6709 20.6195 9.87633 20.6195C9.9331 20.6195 10.0296 20.5619 10.0907 20.4914C10.1518 20.4206 10.3194 20.3416 10.4633 20.3156C10.6071 20.2895 10.8979 20.2025 11.1096 20.1218C11.6903 19.9009 16.2663 19.9518 16.6904 20.1838ZM58.0759 21.1954C59.0342 21.8831 59.1714 22.2262 59.1714 23.9371C59.1714 26.1391 58.3819 27.1015 56.7868 26.8434C55.0659 26.5649 54.5126 22.8125 55.993 21.4611C56.584 20.9217 57.5267 20.8015 58.0759 21.1954ZM21.0446 55.0681C21.0614 63.6222 21.0371 67.6868 20.969 67.8086C20.8134 68.0872 13.8185 68.0879 13.6628 67.8091C13.5505 67.6082 13.5166 42.6278 13.6284 42.5207C13.6645 42.4864 15.3423 42.4691 17.3569 42.4822L21.0203 42.5064L21.0446 55.0681Z" fill="#EEEEEE"/>
</svg>
