<svg id="svg" version="1.1" xmlns="http://www.w3.org/2000/svg" xmlns:xlink="http://www.w3.org/1999/xlink" width="400" height="434.9090909090909" viewBox="0, 0, 400,434.9090909090909"><g id="svgg"><path id="path0" d="M297.600 52.666 C 297.050 52.780,296.330 53.105,296.000 53.389 C 295.670 53.673,294.995 54.029,294.500 54.180 C 294.005 54.330,293.600 54.610,293.600 54.800 C 293.600 54.990,293.285 55.247,292.900 55.370 C 291.881 55.697,289.003 58.650,287.600 60.809 C 287.270 61.317,286.707 62.040,286.350 62.416 C 285.993 62.792,285.632 63.258,285.550 63.450 C 285.210 64.243,281.805 69.816,281.545 70.004 C 281.390 70.116,281.139 70.703,280.987 71.308 C 280.836 71.913,280.575 72.492,280.409 72.594 C 280.243 72.697,278.541 75.890,276.627 79.690 C 272.721 87.446,270.429 91.703,269.998 92.000 C 269.838 92.110,269.578 92.615,269.420 93.121 C 269.064 94.263,265.158 98.189,262.775 99.800 C 261.799 100.460,260.820 101.192,260.600 101.426 C 260.380 101.661,258.969 102.830,257.465 104.024 C 254.834 106.114,250.400 111.054,250.400 111.896 C 250.400 112.119,250.142 112.517,249.826 112.779 C 249.510 113.041,249.133 113.795,248.988 114.455 C 248.843 115.114,248.473 116.137,248.165 116.727 C 246.561 119.801,247.575 129.666,250.044 135.002 C 252.132 139.515,258.592 146.163,262.800 148.130 C 263.130 148.284,264.386 148.948,265.592 149.605 C 266.798 150.262,267.970 150.800,268.198 150.800 C 268.426 150.800,269.284 151.160,270.104 151.600 C 270.925 152.040,271.967 152.400,272.418 152.400 C 272.870 152.400,273.733 152.655,274.336 152.967 C 274.940 153.279,276.844 153.730,278.569 153.970 C 283.675 154.681,283.761 154.760,284.015 159.004 C 284.133 160.982,284.427 162.960,284.668 163.400 C 284.910 163.840,285.232 164.955,285.385 165.877 C 285.538 166.799,285.918 167.766,286.231 168.026 C 286.544 168.286,286.800 168.730,286.800 169.013 C 286.800 170.031,291.610 175.552,292.527 175.587 C 294.980 175.682,296.290 179.337,294.947 182.340 C 293.117 186.433,292.602 187.358,291.036 189.375 C 285.730 196.209,278.057 199.475,267.080 199.575 C 265.584 199.589,263.874 199.846,263.280 200.147 C 262.686 200.447,261.565 200.808,260.790 200.948 C 257.335 201.572,250.941 205.452,247.214 209.186 C 243.470 212.937,238.800 220.380,238.800 222.595 C 238.800 222.950,238.485 223.816,238.100 224.520 C 237.451 225.707,237.386 228.655,237.200 265.200 C 237.046 295.492,236.884 304.860,236.500 305.726 C 236.225 306.345,236.000 307.338,236.000 307.932 C 236.000 308.526,235.640 309.684,235.200 310.504 C 234.760 311.325,234.400 312.180,234.400 312.403 C 234.400 312.787,232.594 315.514,230.529 318.246 C 229.510 319.595,225.110 323.200,224.483 323.200 C 224.271 323.200,223.883 323.458,223.621 323.774 C 223.359 324.090,222.572 324.471,221.872 324.620 C 221.173 324.770,220.377 325.072,220.105 325.291 C 217.774 327.168,206.246 327.009,202.600 325.050 C 201.940 324.695,201.181 324.404,200.913 324.402 C 200.336 324.400,196.322 321.681,194.570 320.106 C 191.331 317.195,187.739 311.194,187.324 308.003 C 187.195 307.011,186.889 305.840,186.645 305.400 C 186.324 304.823,186.144 280.169,186.000 217.000 C 185.812 134.626,185.758 129.328,185.102 128.200 C 184.719 127.540,184.404 126.684,184.402 126.299 C 184.401 125.913,184.040 124.925,183.600 124.104 C 183.160 123.284,182.800 122.294,182.800 121.906 C 182.800 121.518,182.622 121.200,182.405 121.200 C 182.188 121.200,181.742 120.615,181.413 119.900 C 180.420 117.738,179.942 117.142,176.200 113.400 C 172.704 109.904,170.404 108.000,169.677 108.000 C 169.482 108.000,168.907 107.640,168.400 107.200 C 167.893 106.760,167.167 106.400,166.788 106.400 C 166.408 106.400,165.886 106.144,165.626 105.831 C 165.366 105.518,164.430 105.140,163.544 104.991 C 162.659 104.841,161.454 104.468,160.867 104.162 C 160.280 103.856,159.312 103.604,158.716 103.602 C 157.490 103.600,156.307 102.506,155.548 100.675 C 154.125 97.239,151.862 96.400,144.020 96.400 C 135.611 96.400,136.400 97.068,136.400 89.948 L 136.400 83.982 138.100 82.113 C 139.035 81.086,140.430 79.592,141.200 78.794 C 141.970 77.995,144.130 75.666,146.000 73.617 C 147.870 71.569,150.084 69.152,150.921 68.246 C 155.884 62.875,156.744 60.344,154.400 58.000 L 153.400 57.000 121.531 56.893 L 89.661 56.786 88.530 57.758 C 87.551 58.601,87.400 59.018,87.400 60.875 C 87.400 63.254,87.630 63.641,91.536 67.827 C 92.781 69.161,95.544 72.131,97.676 74.427 C 99.808 76.722,102.645 79.770,103.980 81.200 L 106.409 83.800 106.305 90.000 L 106.200 96.200 99.000 96.400 C 91.049 96.621,88.666 97.339,87.544 99.850 C 87.458 100.043,86.967 100.875,86.454 101.700 L 85.521 103.200 79.822 103.200 C 72.766 103.200,72.951 103.339,72.725 97.890 C 72.574 94.272,72.481 93.899,71.471 92.890 C 69.960 91.380,66.658 91.342,65.180 92.819 L 64.200 93.799 64.074 105.999 C 63.918 121.002,63.932 121.119,65.990 122.300 C 70.064 124.638,72.650 122.290,72.753 116.162 C 72.821 112.061,72.925 112.000,79.892 112.000 L 85.522 112.000 85.961 113.260 C 86.202 113.953,86.400 114.814,86.400 115.175 C 86.400 119.621,90.175 121.600,98.652 121.600 C 107.094 121.600,106.400 121.149,106.400 126.634 C 106.400 131.681,106.204 132.059,103.288 132.642 C 102.589 132.782,101.812 133.145,101.560 133.448 C 101.308 133.752,100.912 134.000,100.680 134.000 C 99.826 134.000,94.673 137.805,92.668 139.917 C 89.337 143.423,89.200 143.583,89.200 143.951 C 89.200 144.144,88.944 144.515,88.630 144.775 C 87.854 145.419,85.111 151.176,83.950 154.600 L 83.000 157.400 83.000 269.400 L 83.000 381.400 83.900 383.278 C 84.395 384.311,84.800 385.247,84.800 385.358 C 84.800 385.981,87.431 389.295,89.139 390.823 C 91.840 393.241,91.878 393.266,94.600 394.400 L 97.000 395.400 121.400 395.400 L 145.800 395.400 148.200 394.401 C 154.278 391.869,157.852 388.015,160.255 381.400 C 161.114 379.037,161.649 165.914,160.809 161.000 C 160.000 156.266,159.290 153.191,158.895 152.700 C 158.673 152.425,158.370 151.627,158.220 150.928 C 158.071 150.228,157.690 149.441,157.374 149.179 C 157.058 148.917,156.800 148.460,156.800 148.164 C 156.800 146.648,151.233 140.011,147.600 137.195 C 144.837 135.054,139.904 132.400,138.686 132.400 C 137.070 132.400,136.400 130.687,136.400 126.554 C 136.400 121.333,135.991 121.600,143.995 121.600 C 150.978 121.600,152.351 121.306,154.253 119.405 C 155.132 118.525,156.771 115.241,156.787 114.324 C 156.815 112.844,159.085 112.708,161.566 114.038 C 162.348 114.457,163.142 114.800,163.331 114.800 C 163.520 114.800,164.086 115.115,164.591 115.500 C 165.095 115.885,165.933 116.470,166.454 116.800 C 168.252 117.940,173.200 123.180,173.200 123.943 C 173.200 124.127,173.560 124.693,174.000 125.200 C 174.440 125.707,174.800 126.366,174.800 126.663 C 174.800 126.960,175.160 127.875,175.600 128.696 C 176.040 129.516,176.400 130.674,176.400 131.268 C 176.400 131.862,176.625 132.855,176.900 133.474 C 177.293 134.359,177.443 153.260,177.600 221.800 C 177.820 317.937,177.601 309.599,180.058 315.044 C 180.466 315.948,180.800 316.805,180.800 316.948 C 180.800 317.091,181.430 318.105,182.200 319.200 C 182.970 320.295,183.600 321.341,183.600 321.524 C 183.600 322.158,190.210 328.690,192.000 329.825 C 194.443 331.374,199.665 334.000,200.302 334.000 C 200.587 334.000,201.844 334.360,203.096 334.800 C 205.954 335.805,217.668 335.988,219.520 335.057 C 220.114 334.759,221.226 334.395,221.990 334.249 C 222.755 334.103,224.105 333.649,224.990 333.240 C 225.876 332.831,226.870 332.378,227.200 332.233 C 227.866 331.939,228.554 331.526,231.200 329.829 C 235.147 327.298,240.636 320.908,242.393 316.800 C 242.629 316.250,243.062 315.260,243.357 314.600 C 243.652 313.940,244.322 312.140,244.847 310.600 L 245.800 307.800 246.041 268.800 C 246.302 226.512,246.269 227.099,248.597 222.634 C 250.947 218.125,256.546 212.000,258.317 212.000 C 258.529 212.000,258.917 211.742,259.179 211.426 C 259.441 211.110,260.225 210.726,260.922 210.573 C 261.618 210.420,262.551 210.074,262.994 209.804 C 263.750 209.344,269.276 208.463,276.600 207.635 C 284.522 206.740,291.653 202.653,297.900 195.427 C 298.615 194.600,299.200 193.858,299.200 193.779 C 299.200 193.609,301.032 190.789,301.545 190.169 C 301.742 189.932,302.026 189.302,302.179 188.769 C 302.331 188.236,302.695 187.260,302.988 186.600 C 303.642 185.126,305.214 179.974,305.206 179.329 C 305.198 178.716,307.131 177.200,307.920 177.200 C 309.787 177.200,315.530 171.998,316.809 169.147 C 317.043 168.626,317.494 167.750,317.811 167.200 C 318.129 166.650,318.391 165.817,318.394 165.349 C 318.397 164.881,318.670 163.851,319.000 163.062 C 319.351 162.221,319.600 160.389,319.600 158.641 C 319.600 154.588,319.780 154.432,325.200 153.776 C 326.410 153.630,327.587 153.360,327.816 153.176 C 328.044 152.992,328.944 152.661,329.816 152.441 C 332.124 151.857,335.467 150.608,336.077 150.102 C 336.367 149.861,337.098 149.540,337.702 149.389 C 338.306 149.237,338.800 148.965,338.800 148.784 C 338.800 148.602,339.202 148.326,339.692 148.171 C 342.004 147.437,350.400 139.860,350.400 138.507 C 350.400 138.228,350.554 138.000,350.743 138.000 C 351.129 138.000,353.199 134.181,353.202 133.463 C 353.204 133.208,353.478 132.476,353.812 131.836 C 355.736 128.146,355.276 117.794,352.993 113.415 C 350.871 109.344,347.592 105.636,343.400 102.570 C 342.520 101.927,341.597 101.220,341.349 101.000 C 341.101 100.780,340.496 100.330,340.004 100.000 C 338.515 99.001,336.237 97.173,335.600 96.466 C 334.730 95.500,332.989 93.098,332.651 92.400 C 332.492 92.070,331.933 91.080,331.409 90.200 C 330.885 89.320,329.890 87.477,329.197 86.104 C 328.504 84.732,327.792 83.518,327.613 83.408 C 327.435 83.298,327.165 82.711,327.013 82.104 C 326.862 81.497,326.503 80.730,326.216 80.400 C 325.929 80.070,325.560 79.358,325.395 78.819 C 325.229 78.279,324.848 77.591,324.547 77.290 C 324.246 76.989,324.000 76.406,324.000 75.995 C 324.000 75.584,323.834 75.145,323.631 75.019 C 323.428 74.894,322.690 73.668,321.991 72.296 C 321.292 70.923,320.292 69.080,319.768 68.200 C 319.244 67.320,318.591 66.150,318.316 65.600 C 318.042 65.050,317.588 64.456,317.308 64.280 C 317.029 64.104,316.800 63.786,316.800 63.574 C 316.800 62.151,309.818 54.882,307.741 54.142 C 307.334 53.997,306.691 53.614,306.314 53.290 C 305.604 52.681,299.604 52.251,297.600 52.666 M302.839 61.866 C 306.095 63.460,310.149 69.035,315.009 78.600 C 315.791 80.140,316.604 81.670,316.816 82.000 C 317.027 82.330,317.380 83.050,317.599 83.600 C 317.819 84.150,318.207 84.960,318.462 85.400 C 319.416 87.045,319.617 87.424,320.046 88.400 C 320.288 88.950,320.632 89.670,320.811 90.000 C 320.990 90.330,321.710 91.673,322.410 92.984 C 324.495 96.892,327.069 100.620,329.097 102.672 C 331.066 104.663,333.950 107.200,334.245 107.200 C 334.495 107.200,340.185 111.760,341.296 112.851 C 344.782 116.277,346.822 121.439,346.084 124.968 C 345.190 129.249,344.727 130.762,344.173 131.222 C 343.858 131.484,343.600 131.918,343.600 132.188 C 343.600 132.457,343.221 133.110,342.759 133.639 C 342.296 134.167,341.531 135.055,341.059 135.612 C 339.812 137.080,336.023 140.000,335.364 140.000 C 335.054 140.000,334.800 140.141,334.800 140.314 C 334.800 140.924,326.528 144.400,325.075 144.400 C 324.537 144.400,323.451 144.670,322.662 145.000 C 320.137 146.055,316.800 145.462,316.800 143.958 C 316.800 142.704,311.294 136.800,310.124 136.800 C 309.924 136.800,309.556 136.596,309.307 136.347 C 308.742 135.782,305.135 134.569,302.984 134.220 C 300.665 133.844,295.575 135.192,292.970 136.871 C 291.012 138.133,288.400 140.542,288.400 141.085 C 288.400 141.300,288.040 141.802,287.600 142.200 C 287.160 142.598,286.800 143.109,286.800 143.336 C 286.800 145.316,282.923 146.243,279.708 145.032 C 278.879 144.719,277.489 144.344,276.620 144.199 C 275.752 144.053,274.677 143.679,274.231 143.367 C 273.786 143.055,273.057 142.788,272.611 142.773 C 272.165 142.759,270.900 142.220,269.800 141.575 C 268.700 140.931,267.530 140.276,267.200 140.121 C 264.969 139.069,261.273 135.749,259.400 133.114 C 257.203 130.023,255.893 124.076,256.724 120.969 C 256.986 119.990,257.200 118.919,257.200 118.590 C 257.200 117.110,260.375 113.337,264.141 110.343 C 266.197 108.707,266.750 108.284,269.151 106.505 C 271.209 104.979,275.492 100.495,276.702 98.600 C 277.404 97.500,278.119 96.418,278.289 96.196 C 278.732 95.621,280.809 91.683,283.244 86.800 C 284.396 84.490,285.473 82.508,285.637 82.396 C 285.802 82.284,286.059 81.706,286.208 81.112 C 286.357 80.519,286.719 79.833,287.014 79.589 C 287.308 79.345,287.664 78.617,287.806 77.972 C 287.948 77.328,288.215 76.800,288.401 76.800 C 288.586 76.800,288.946 76.170,289.200 75.400 C 289.454 74.630,289.789 74.000,289.943 74.000 C 290.098 74.000,290.446 73.505,290.717 72.900 C 291.764 70.557,295.071 65.735,296.858 63.945 C 299.453 61.344,300.809 60.873,302.839 61.866 M139.015 66.683 C 138.866 67.278,138.145 68.403,137.414 69.183 C 134.551 72.237,131.643 75.447,130.876 76.400 L 130.071 77.400 121.402 77.400 L 112.734 77.400 110.711 75.200 C 109.598 73.990,107.730 71.970,106.560 70.711 C 104.348 68.332,103.051 66.283,103.483 65.851 C 103.621 65.713,111.733 65.600,121.510 65.600 L 139.287 65.600 139.015 66.683 M126.314 87.139 C 126.694 87.379,126.799 88.607,126.714 91.832 L 126.600 96.200 121.857 96.313 C 118.702 96.388,116.927 96.271,116.557 95.964 C 115.829 95.360,115.764 87.996,116.480 87.280 C 117.032 86.728,125.476 86.607,126.314 87.139 M146.720 106.080 C 147.480 106.840,147.354 111.855,146.567 112.157 C 145.264 112.657,96.589 112.429,96.080 111.920 C 95.286 111.126,95.458 106.523,96.300 106.032 C 97.375 105.406,146.092 105.452,146.720 106.080 M126.317 121.940 C 126.691 122.177,126.801 123.251,126.717 125.834 L 126.600 129.400 121.400 129.400 L 116.200 129.400 116.082 126.008 C 115.984 123.162,116.076 122.533,116.659 122.108 C 117.445 121.533,125.456 121.394,126.317 121.940 M133.400 140.109 C 134.060 140.486,134.994 140.796,135.476 140.798 C 135.958 140.799,136.466 140.983,136.604 141.206 C 136.742 141.429,137.427 141.876,138.127 142.198 C 143.371 144.612,150.400 152.780,150.400 156.459 C 150.400 156.778,150.625 157.265,150.900 157.540 C 151.292 157.932,151.400 165.469,151.400 192.520 L 151.400 227.000 132.800 227.200 C 112.107 227.423,112.790 227.327,111.434 230.184 C 110.505 232.142,110.471 351.621,111.400 353.200 C 111.723 353.750,112.098 354.503,112.233 354.872 C 112.689 356.119,113.758 356.196,132.388 356.317 C 146.322 356.408,151.053 356.558,151.282 356.919 C 152.208 358.375,151.618 378.723,150.595 380.648 C 149.216 383.242,147.127 384.982,144.207 385.968 C 140.390 387.257,101.817 387.259,98.400 385.970 C 95.341 384.816,93.214 382.438,92.289 379.136 C 91.336 375.735,91.385 163.240,92.341 159.000 C 93.409 154.256,95.635 150.054,98.793 146.820 C 101.346 144.205,104.219 142.000,105.073 142.000 C 105.309 142.000,105.710 141.750,105.964 141.444 C 106.218 141.137,106.915 140.794,107.513 140.681 C 108.111 140.568,109.320 140.190,110.200 139.840 C 112.614 138.881,131.637 139.102,133.400 140.109 M305.446 144.500 C 309.430 147.485,310.000 148.974,310.000 156.400 C 310.000 165.958,306.718 170.135,300.087 169.015 C 292.933 167.806,290.633 151.519,296.787 145.653 C 299.244 143.312,303.163 142.790,305.446 144.500 M151.501 291.524 C 151.571 328.653,151.470 346.295,151.187 346.824 C 150.540 348.033,121.461 348.036,120.814 346.826 C 120.347 345.954,120.206 237.527,120.671 237.062 C 120.821 236.913,127.796 236.838,136.171 236.895 L 151.400 237.000 151.501 291.524 " stroke="none" fill="#070707" fill-rule="evenodd"></path><path id="path1" d="M0.000 217.400 L 0.000 434.800 200.000 434.800 L 400.000 434.800 400.000 217.400 L 400.000 0.000 200.000 0.000 L 0.000 0.000 0.000 217.400 M304.400 51.400 C 304.950 51.714,305.777 51.978,306.239 51.986 C 306.700 51.994,307.493 52.360,308.000 52.800 C 308.507 53.240,309.165 53.600,309.461 53.600 C 309.758 53.600,310.000 53.745,310.000 53.923 C 310.000 54.101,310.716 54.776,311.591 55.423 C 312.465 56.070,313.185 56.741,313.191 56.912 C 313.196 57.084,313.830 57.803,314.600 58.510 C 315.370 59.216,316.000 60.021,316.000 60.297 C 316.000 60.574,316.175 60.800,316.390 60.800 C 316.604 60.800,317.060 61.295,317.402 61.900 C 317.744 62.505,318.379 63.540,318.813 64.200 C 319.247 64.860,319.884 65.940,320.228 66.600 C 320.573 67.260,321.279 68.520,321.796 69.400 C 322.558 70.695,324.492 74.366,327.169 79.600 C 327.965 81.156,328.430 82.057,328.771 82.700 C 328.975 83.085,329.249 83.670,329.381 84.000 C 329.512 84.330,330.331 85.860,331.200 87.400 C 332.069 88.940,333.006 90.650,333.282 91.200 C 333.558 91.750,334.012 92.344,334.292 92.520 C 334.571 92.696,334.801 93.056,334.802 93.320 C 334.804 93.882,339.402 98.400,339.972 98.400 C 340.186 98.400,340.504 98.626,340.680 98.901 C 340.856 99.177,341.804 99.942,342.787 100.601 C 343.769 101.261,344.858 102.070,345.206 102.400 C 345.554 102.730,346.683 103.720,347.714 104.600 C 348.745 105.480,349.592 106.341,349.595 106.513 C 349.598 106.686,350.185 107.398,350.900 108.095 C 351.615 108.792,352.380 109.668,352.600 110.040 C 354.153 112.670,355.151 114.924,355.390 116.342 C 355.544 117.252,355.819 118.088,356.001 118.201 C 356.583 118.560,356.894 124.104,356.450 126.200 C 355.457 130.887,354.881 133.084,354.455 133.818 C 354.205 134.248,353.813 135.050,353.583 135.600 C 353.167 136.598,352.864 137.132,351.433 139.400 C 350.628 140.676,344.080 147.200,343.604 147.200 C 343.449 147.200,342.907 147.560,342.400 148.000 C 341.893 148.440,341.235 148.800,340.939 148.800 C 340.642 148.800,340.400 148.960,340.400 149.157 C 340.400 149.353,339.695 149.795,338.834 150.140 C 337.973 150.484,337.152 150.954,337.010 151.183 C 336.869 151.412,336.408 151.600,335.986 151.600 C 335.564 151.600,334.630 151.959,333.910 152.399 C 333.189 152.838,332.210 153.198,331.732 153.199 C 331.255 153.199,330.355 153.455,329.732 153.766 C 329.110 154.078,327.655 154.528,326.500 154.766 C 325.345 155.005,323.500 155.416,322.400 155.679 L 320.400 156.158 320.386 160.179 C 320.376 163.314,320.203 164.553,319.600 165.800 C 319.175 166.680,318.821 167.721,318.814 168.113 C 318.806 168.504,318.530 168.929,318.200 169.055 C 317.870 169.182,317.600 169.628,317.600 170.047 C 317.600 170.465,317.240 171.116,316.800 171.493 C 316.360 171.870,316.000 172.310,316.000 172.471 C 316.000 173.159,311.177 177.272,309.800 177.759 C 306.439 178.945,306.112 179.277,305.848 181.770 C 305.711 183.073,305.328 184.437,304.999 184.801 C 304.669 185.165,304.388 185.899,304.373 186.431 C 304.359 186.964,303.818 188.300,303.172 189.400 C 302.526 190.500,301.800 191.895,301.559 192.500 C 301.319 193.105,300.955 193.600,300.751 193.600 C 300.547 193.600,300.221 194.005,300.026 194.500 C 299.245 196.488,293.389 202.092,289.799 204.289 C 288.031 205.370,285.106 206.800,284.661 206.800 C 284.401 206.800,283.516 207.160,282.696 207.600 C 281.875 208.040,280.563 208.400,279.782 208.400 C 279.000 208.400,277.874 208.645,277.280 208.945 C 276.619 209.279,274.157 209.578,270.933 209.715 C 267.333 209.868,265.370 210.124,264.733 210.525 C 264.220 210.847,263.125 211.229,262.300 211.373 C 261.475 211.518,260.800 211.790,260.800 211.979 C 260.800 212.168,260.264 212.509,259.609 212.737 C 257.749 213.385,250.800 219.873,250.800 220.961 C 250.800 221.253,250.440 221.950,250.000 222.509 C 249.560 223.069,249.200 223.822,249.200 224.183 C 249.200 224.544,248.885 225.416,248.500 226.120 C 247.851 227.307,247.785 230.247,247.600 266.639 C 247.456 294.909,247.274 306.034,246.949 306.439 C 246.700 306.747,246.372 308.204,246.219 309.675 C 246.061 311.199,245.696 312.554,245.371 312.824 C 245.057 313.085,244.800 313.637,244.800 314.050 C 244.800 314.464,244.440 315.475,244.000 316.296 C 243.560 317.116,243.200 318.021,243.200 318.307 C 243.200 318.592,242.930 318.929,242.600 319.055 C 242.270 319.182,242.000 319.510,242.000 319.785 C 242.000 321.718,232.498 331.280,229.692 332.171 C 229.201 332.327,228.800 332.607,228.800 332.795 C 228.800 332.983,228.272 333.252,227.628 333.394 C 226.983 333.536,226.241 333.910,225.979 334.226 C 225.717 334.542,225.024 334.800,224.440 334.800 C 223.856 334.800,222.980 335.078,222.495 335.419 C 222.009 335.759,220.304 336.210,218.706 336.420 C 217.107 336.631,214.855 336.950,213.700 337.130 C 212.545 337.310,210.655 337.310,209.500 337.130 C 208.345 336.950,206.093 336.631,204.494 336.420 C 202.896 336.210,201.191 335.759,200.705 335.419 C 200.220 335.078,199.425 334.800,198.940 334.800 C 198.454 334.800,197.787 334.530,197.457 334.200 C 197.127 333.870,196.599 333.600,196.283 333.600 C 195.966 333.600,195.279 333.265,194.754 332.855 C 194.229 332.445,193.436 331.996,192.991 331.857 C 192.547 331.718,191.591 331.063,190.867 330.402 C 190.143 329.741,189.421 329.200,189.263 329.200 C 188.386 329.200,181.200 320.820,181.200 319.797 C 181.200 319.506,181.063 319.207,180.896 319.133 C 180.421 318.924,178.400 314.804,178.400 314.043 C 178.400 313.667,178.195 313.155,177.945 312.905 C 177.497 312.457,176.711 308.690,176.003 303.600 C 175.797 302.121,175.632 264.434,175.621 216.189 C 175.603 143.670,175.518 131.261,175.033 130.569 C 174.721 130.123,174.344 129.106,174.194 128.307 C 174.044 127.509,173.669 126.759,173.361 126.640 C 173.052 126.522,172.800 126.182,172.800 125.885 C 172.800 125.076,170.036 121.529,168.026 119.758 C 167.054 118.901,165.930 117.885,165.529 117.500 C 165.128 117.115,164.558 116.800,164.261 116.800 C 163.965 116.800,163.307 116.440,162.800 116.000 C 162.293 115.560,161.477 115.200,160.988 115.200 C 160.498 115.200,159.874 114.930,159.600 114.600 C 158.597 113.392,157.718 113.879,157.506 115.759 C 157.397 116.727,157.106 117.762,156.860 118.059 C 156.614 118.357,155.943 119.185,155.370 119.900 C 154.798 120.615,154.090 121.200,153.798 121.200 C 153.506 121.200,153.201 121.397,153.121 121.638 C 152.871 122.387,149.637 122.764,143.300 122.783 L 137.200 122.800 137.216 126.500 L 137.231 130.200 139.116 131.107 C 140.152 131.606,141.321 132.011,141.713 132.007 C 142.104 132.003,142.522 132.254,142.641 132.564 C 142.761 132.874,143.313 133.242,143.870 133.382 C 147.104 134.193,155.821 142.778,157.616 146.920 C 157.826 147.404,158.164 148.070,158.367 148.400 C 159.450 150.159,160.400 152.555,160.400 153.523 C 160.400 154.128,160.715 155.067,161.100 155.611 C 162.189 157.149,162.189 381.487,161.100 382.689 C 160.715 383.115,160.400 383.832,160.400 384.283 C 160.400 384.733,160.130 385.326,159.800 385.600 C 159.470 385.874,159.200 386.331,159.200 386.615 C 159.200 387.107,158.677 387.799,156.400 390.326 C 154.187 392.781,148.861 396.000,147.012 396.000 C 146.509 396.000,145.451 396.270,144.662 396.600 C 142.517 397.496,99.573 397.494,97.854 396.598 C 97.224 396.269,96.289 396.000,95.775 396.000 C 94.875 396.000,92.701 394.986,90.200 393.399 C 87.750 391.844,84.000 387.509,84.000 386.231 C 84.000 385.938,83.735 385.478,83.411 385.209 C 83.086 384.940,82.721 384.063,82.598 383.260 C 82.476 382.457,82.109 380.990,81.784 380.000 C 80.970 377.520,81.084 159.556,81.900 158.740 C 82.175 158.465,82.400 157.418,82.400 156.414 C 82.400 155.352,82.735 153.963,83.200 153.096 C 83.640 152.275,84.010 151.287,84.023 150.901 C 84.036 150.516,84.570 149.300,85.210 148.200 C 85.851 147.100,86.573 145.719,86.815 145.132 C 87.058 144.545,87.513 143.965,87.828 143.845 C 88.143 143.724,88.400 143.389,88.400 143.101 C 88.400 142.813,88.715 142.302,89.100 141.965 C 89.485 141.628,90.520 140.510,91.400 139.481 C 92.280 138.453,93.124 137.608,93.275 137.605 C 93.427 137.602,94.147 137.044,94.875 136.365 C 95.604 135.686,97.145 134.589,98.300 133.927 C 99.455 133.265,100.501 132.561,100.624 132.362 C 100.747 132.163,101.265 132.000,101.775 132.000 C 102.285 132.000,102.911 131.748,103.167 131.439 C 103.423 131.131,104.075 130.767,104.616 130.632 C 105.574 130.391,105.600 130.284,105.600 126.641 L 105.600 122.896 97.956 122.732 C 91.327 122.589,90.245 122.477,89.812 121.884 C 89.537 121.508,89.163 121.200,88.982 121.200 C 88.456 121.200,86.800 119.509,86.800 118.973 C 86.800 118.705,86.544 118.387,86.232 118.268 C 85.888 118.136,85.554 117.167,85.384 115.814 L 85.105 113.577 79.853 113.689 L 74.600 113.800 74.379 116.800 C 73.800 124.655,67.013 127.006,63.079 120.714 C 61.881 118.797,62.103 95.577,63.340 93.423 C 66.981 87.083,74.178 90.253,74.484 98.332 L 74.600 101.400 79.908 101.512 C 84.694 101.612,85.241 101.553,85.470 100.912 C 85.834 99.891,88.379 96.800,88.855 96.800 C 89.076 96.800,89.527 96.530,89.857 96.200 C 90.348 95.709,91.832 95.600,98.029 95.600 L 105.600 95.600 105.600 90.212 L 105.600 84.824 103.654 82.712 C 102.584 81.550,101.223 80.060,100.630 79.400 C 98.782 77.342,94.356 72.592,90.500 68.526 C 88.465 66.381,86.800 64.417,86.800 64.162 C 86.800 63.907,86.530 63.474,86.200 63.200 C 85.257 62.417,85.455 59.849,86.587 58.181 C 88.725 55.031,86.747 55.200,121.493 55.200 L 152.416 55.200 154.000 56.200 C 155.570 57.191,157.200 59.687,157.200 61.099 C 157.200 63.002,155.554 65.137,147.400 73.807 C 145.953 75.345,142.767 78.837,138.701 83.340 L 137.201 85.000 137.201 90.300 L 137.200 95.600 144.616 95.600 C 153.556 95.600,154.832 96.164,157.295 101.200 C 157.965 102.571,158.352 102.785,160.200 102.807 C 161.080 102.818,162.520 103.175,163.400 103.600 C 164.280 104.025,165.279 104.379,165.620 104.386 C 165.961 104.394,166.411 104.568,166.620 104.773 C 166.829 104.978,168.029 105.686,169.286 106.345 C 170.544 107.004,171.804 107.731,172.086 107.961 C 172.369 108.191,173.680 109.256,175.000 110.327 C 176.320 111.399,177.850 112.877,178.400 113.613 C 178.950 114.348,179.715 115.226,180.100 115.564 C 180.485 115.902,180.800 116.399,180.800 116.669 C 180.800 116.939,181.029 117.304,181.308 117.480 C 181.588 117.656,182.039 118.250,182.310 118.800 C 182.581 119.350,183.330 120.700,183.975 121.800 C 184.619 122.900,185.159 124.236,185.173 124.769 C 185.188 125.301,185.449 126.021,185.752 126.369 C 186.056 126.716,186.513 128.260,186.767 129.800 C 187.021 131.340,187.389 133.500,187.585 134.600 C 187.786 135.725,187.954 173.870,187.971 221.792 L 188.000 306.985 188.847 309.192 C 189.312 310.407,189.850 311.670,190.041 312.000 C 190.232 312.330,190.647 313.175,190.964 313.878 C 191.925 316.008,197.980 321.756,200.009 322.463 C 200.664 322.691,201.200 323.032,201.200 323.221 C 201.200 323.410,201.875 323.682,202.700 323.827 C 203.525 323.971,204.632 324.361,205.159 324.693 C 206.534 325.558,217.086 325.547,218.454 324.679 C 218.974 324.349,219.973 323.959,220.672 323.814 C 221.372 323.668,222.159 323.290,222.421 322.974 C 222.683 322.658,223.118 322.400,223.388 322.400 C 223.657 322.400,224.293 322.040,224.800 321.600 C 225.307 321.160,225.831 320.800,225.963 320.800 C 226.838 320.800,232.400 314.398,232.400 313.391 C 232.400 313.120,232.658 312.683,232.974 312.421 C 233.290 312.159,233.668 311.372,233.814 310.672 C 233.959 309.973,234.376 308.950,234.739 308.400 C 235.338 307.493,235.421 303.740,235.624 268.200 C 235.785 240.135,235.981 228.546,236.315 227.400 C 236.571 226.520,236.785 225.228,236.790 224.529 C 236.796 223.829,237.070 222.987,237.400 222.657 C 237.730 222.327,238.000 221.763,238.000 221.404 C 238.000 220.599,240.011 216.250,240.468 216.067 C 240.651 215.993,240.800 215.694,240.800 215.403 C 240.800 214.377,247.987 206.000,248.867 206.000 C 249.027 206.000,249.638 205.556,250.223 205.013 C 251.405 203.918,255.344 201.600,256.023 201.600 C 256.262 201.600,256.727 201.330,257.057 201.000 C 257.387 200.670,258.005 200.400,258.430 200.400 C 258.855 200.400,259.875 200.040,260.696 199.600 C 261.557 199.138,262.952 198.800,263.997 198.800 C 264.991 198.800,266.434 198.617,267.203 198.393 C 267.971 198.169,270.824 197.803,273.543 197.579 C 276.898 197.302,278.674 196.983,279.071 196.586 C 279.394 196.264,280.084 196.000,280.605 196.000 C 281.126 196.000,281.675 195.802,281.825 195.559 C 281.975 195.317,282.706 194.864,283.449 194.554 C 284.192 194.243,284.800 193.812,284.800 193.595 C 284.800 193.378,285.022 193.200,285.293 193.200 C 285.563 193.200,286.868 192.038,288.193 190.619 C 291.470 187.105,291.590 186.949,292.063 185.591 C 292.291 184.936,292.625 184.400,292.804 184.400 C 292.983 184.400,293.249 183.697,293.394 182.837 C 293.539 181.977,293.909 180.942,294.216 180.537 C 295.084 179.391,294.936 178.095,293.900 177.778 C 292.832 177.451,289.725 175.015,288.615 173.634 C 288.184 173.097,287.419 172.214,286.915 171.671 C 286.412 171.128,286.000 170.369,286.000 169.984 C 286.000 169.600,285.730 169.182,285.400 169.055 C 285.070 168.929,284.794 168.504,284.786 168.113 C 284.779 167.721,284.425 166.680,284.000 165.800 C 283.394 164.546,283.224 163.313,283.214 160.100 L 283.200 156.000 281.852 156.000 C 281.111 156.000,279.377 155.640,278.000 155.200 C 276.623 154.760,275.014 154.400,274.424 154.400 C 273.835 154.400,273.004 154.136,272.576 153.813 C 272.149 153.490,271.460 153.220,271.044 153.213 C 270.628 153.206,269.548 152.853,268.644 152.429 C 266.047 151.211,262.676 149.556,261.774 149.057 C 260.208 148.191,254.198 143.236,253.400 142.153 C 252.960 141.556,252.331 140.797,252.003 140.465 C 251.387 139.844,250.808 138.936,249.921 137.200 C 249.639 136.650,249.182 135.962,248.905 135.671 C 248.627 135.381,248.400 134.836,248.400 134.460 C 248.400 134.085,248.111 133.365,247.758 132.861 C 245.804 130.072,245.811 117.118,247.768 114.325 C 248.115 113.828,248.400 113.198,248.400 112.924 C 248.400 112.246,251.648 107.557,252.287 107.311 C 252.569 107.203,252.800 106.864,252.800 106.557 C 252.800 106.251,252.935 105.996,253.100 105.990 C 253.265 105.985,254.568 104.905,255.996 103.590 C 257.424 102.276,258.800 101.200,259.053 101.200 C 259.307 101.200,259.618 100.930,259.745 100.600 C 259.871 100.270,260.211 100.000,260.499 100.000 C 260.787 100.000,261.320 99.685,261.683 99.300 C 262.612 98.316,263.623 97.468,264.425 97.000 C 265.588 96.321,268.941 91.898,270.186 89.400 C 270.515 88.740,270.968 87.885,271.192 87.500 C 271.416 87.115,271.784 86.485,272.008 86.100 C 272.232 85.715,272.680 84.827,273.002 84.127 C 273.324 83.427,273.771 82.742,273.994 82.604 C 274.217 82.466,274.400 82.028,274.400 81.630 C 274.400 81.233,274.733 80.479,275.139 79.954 C 275.545 79.429,275.999 78.505,276.147 77.900 C 276.294 77.295,276.578 76.800,276.776 76.800 C 276.974 76.800,277.252 76.272,277.394 75.628 C 277.536 74.983,277.910 74.241,278.226 73.979 C 278.542 73.717,278.800 73.192,278.800 72.812 C 278.800 72.433,279.160 71.707,279.600 71.200 C 280.040 70.693,280.400 70.048,280.400 69.767 C 280.400 69.487,280.669 68.988,280.998 68.659 C 281.328 68.330,281.785 67.642,282.016 67.130 C 282.938 65.082,286.158 60.308,287.886 58.427 C 288.606 57.642,289.197 56.865,289.198 56.700 C 289.199 56.535,289.374 56.400,289.587 56.400 C 289.799 56.400,290.583 55.791,291.328 55.046 C 292.073 54.301,293.052 53.574,293.505 53.430 C 293.957 53.287,294.546 52.906,294.813 52.585 C 295.080 52.263,295.681 51.997,296.149 51.994 C 296.617 51.991,297.450 51.739,298.000 51.433 C 299.323 50.699,303.140 50.679,304.400 51.400 M299.610 63.075 C 298.939 63.361,295.600 66.855,295.600 67.271 C 295.600 67.420,295.373 67.781,295.095 68.071 C 294.116 69.095,291.977 72.612,291.184 74.500 C 290.930 75.105,290.574 75.600,290.393 75.600 C 290.212 75.600,289.948 76.128,289.806 76.772 C 289.664 77.417,289.290 78.159,288.974 78.421 C 288.658 78.683,288.400 79.225,288.400 79.625 C 288.400 80.025,288.232 80.456,288.027 80.583 C 287.823 80.710,286.735 82.655,285.611 84.907 C 284.486 87.158,283.394 89.270,283.183 89.600 C 282.972 89.930,282.618 90.650,282.397 91.200 C 281.907 92.415,279.184 97.321,278.844 97.600 C 278.384 97.978,276.800 100.368,276.800 100.685 C 276.800 101.460,269.807 108.000,268.978 108.000 C 268.807 108.000,268.382 108.278,268.034 108.617 C 266.969 109.655,264.688 111.588,262.951 112.923 C 261.502 114.038,259.697 116.220,259.248 117.400 C 259.164 117.620,258.827 118.109,258.498 118.487 C 257.620 119.495,257.678 127.781,258.570 128.767 C 258.917 129.150,259.200 129.740,259.200 130.078 C 259.200 130.416,259.560 131.150,260.000 131.709 C 260.440 132.269,260.800 132.825,260.800 132.946 C 260.800 133.896,266.572 138.603,269.400 139.959 C 270.500 140.487,271.670 141.073,272.000 141.262 C 272.330 141.451,272.780 141.665,273.000 141.738 C 273.220 141.811,274.300 142.187,275.400 142.575 C 276.500 142.962,278.611 143.430,280.090 143.614 C 281.570 143.798,283.074 144.113,283.432 144.314 C 284.165 144.724,285.751 143.415,286.188 142.039 C 286.447 141.223,290.899 136.400,291.393 136.400 C 291.547 136.400,292.131 136.040,292.691 135.600 C 293.250 135.160,293.984 134.800,294.322 134.800 C 294.660 134.800,295.285 134.485,295.710 134.100 C 296.361 133.511,297.286 133.400,301.542 133.400 C 305.716 133.400,306.773 133.522,307.589 134.100 C 308.133 134.485,308.800 134.800,309.071 134.800 C 309.568 134.800,311.385 135.938,313.236 137.407 C 314.573 138.468,317.600 142.340,317.600 142.989 C 317.600 144.236,323.910 144.057,326.394 142.739 C 327.161 142.333,328.174 142.000,328.645 142.000 C 329.116 142.000,329.726 141.730,330.000 141.400 C 330.274 141.070,330.755 140.800,331.070 140.800 C 332.802 140.800,339.975 135.565,341.285 133.346 C 341.722 132.606,342.241 132.000,342.440 132.000 C 342.638 132.000,342.801 131.685,342.803 131.300 C 342.804 130.915,343.163 130.060,343.600 129.400 C 345.015 127.263,344.772 119.384,343.221 117.120 C 341.637 114.809,339.735 112.792,337.800 111.373 C 335.331 109.562,335.188 109.447,334.483 108.700 C 334.120 108.315,333.632 108.000,333.400 108.000 C 333.168 108.000,332.685 107.685,332.328 107.300 C 331.970 106.915,331.075 106.166,330.339 105.636 C 328.833 104.551,325.200 100.311,325.200 99.638 C 325.200 99.397,325.016 99.200,324.790 99.200 C 324.565 99.200,324.195 98.795,323.970 98.300 C 323.744 97.805,323.125 96.680,322.596 95.800 C 322.066 94.920,321.374 93.637,321.057 92.949 C 320.741 92.261,320.283 91.575,320.041 91.425 C 319.798 91.275,319.600 90.733,319.600 90.219 C 319.600 89.706,319.347 89.188,319.038 89.070 C 318.728 88.951,318.357 88.314,318.212 87.655 C 318.067 86.995,317.702 86.250,317.400 86.000 C 317.098 85.750,316.736 85.017,316.594 84.372 C 316.452 83.728,316.174 83.200,315.976 83.200 C 315.778 83.200,315.494 82.705,315.347 82.100 C 315.199 81.495,314.745 80.571,314.339 80.046 C 313.933 79.521,313.600 78.756,313.600 78.346 C 313.600 77.936,313.434 77.600,313.231 77.600 C 313.028 77.600,312.654 76.970,312.400 76.200 C 312.146 75.430,311.790 74.800,311.608 74.800 C 311.427 74.800,311.073 74.305,310.823 73.700 C 310.019 71.756,309.094 70.209,308.540 69.880 C 308.243 69.704,308.000 69.327,308.000 69.042 C 308.000 68.757,307.640 68.198,307.200 67.800 C 306.760 67.402,306.400 66.924,306.400 66.738 C 306.400 64.955,301.455 62.287,299.610 63.075 M105.200 67.391 C 105.200 67.496,106.145 68.547,107.300 69.726 C 108.455 70.905,110.336 72.889,111.480 74.135 L 113.559 76.400 121.305 76.400 L 129.052 76.400 133.226 71.979 C 135.522 69.547,137.475 67.477,137.567 67.379 C 137.658 67.281,130.413 67.200,121.467 67.200 C 112.520 67.200,105.200 67.286,105.200 67.391 M117.067 87.867 C 116.920 88.013,116.800 89.813,116.800 91.867 L 116.800 95.600 121.400 95.600 L 126.000 95.600 126.000 91.600 L 126.000 87.600 121.667 87.600 C 119.283 87.600,117.213 87.720,117.067 87.867 M96.480 109.100 L 96.600 111.400 121.500 111.503 L 146.400 111.606 146.400 109.203 L 146.400 106.800 121.380 106.800 L 96.360 106.800 96.480 109.100 M116.800 125.800 L 116.800 128.800 121.400 128.800 L 126.000 128.800 126.000 125.800 L 126.000 122.800 121.400 122.800 L 116.800 122.800 116.800 125.800 M112.718 140.601 C 111.903 140.900,110.424 141.267,109.431 141.416 C 108.438 141.565,107.418 141.937,107.164 142.243 C 106.910 142.550,106.386 142.800,106.000 142.800 C 105.614 142.800,105.080 143.063,104.813 143.385 C 104.546 143.706,103.945 144.090,103.478 144.239 C 103.011 144.387,101.542 145.645,100.214 147.035 C 96.989 150.409,96.818 150.629,96.337 152.009 C 96.109 152.664,95.774 153.200,95.593 153.200 C 95.412 153.200,95.142 153.785,94.993 154.500 C 94.843 155.215,94.424 156.250,94.061 156.800 C 93.450 157.724,93.400 166.269,93.400 268.800 L 93.400 379.800 94.508 381.368 C 95.118 382.231,96.018 383.210,96.508 383.545 C 96.999 383.880,97.528 384.344,97.685 384.577 C 98.095 385.184,144.720 385.168,145.115 384.560 C 145.272 384.318,145.847 383.884,146.392 383.596 C 150.045 381.670,150.792 378.973,150.796 367.700 L 150.800 358.000 132.779 358.000 C 112.799 358.000,113.118 358.040,110.995 355.245 C 110.210 354.213,110.200 353.439,110.200 291.669 L 110.200 229.139 111.694 227.769 L 113.188 226.400 131.994 226.400 L 150.800 226.400 150.800 194.049 C 150.800 166.197,150.717 161.498,150.200 160.262 C 149.870 159.472,149.600 158.452,149.600 157.996 C 149.600 157.540,149.048 156.049,148.372 154.683 C 146.426 150.745,145.981 150.000,145.578 150.000 C 145.370 150.000,145.200 149.802,145.200 149.560 C 145.200 149.319,144.345 148.335,143.300 147.374 C 142.255 146.413,141.130 145.374,140.800 145.064 C 140.470 144.755,139.811 144.382,139.336 144.235 C 138.861 144.089,138.254 143.706,137.987 143.385 C 137.720 143.063,137.186 142.800,136.800 142.800 C 136.414 142.800,135.887 142.546,135.629 142.235 C 135.371 141.924,134.241 141.543,133.119 141.389 C 131.996 141.234,130.481 140.859,129.752 140.554 C 127.918 139.788,114.833 139.824,112.718 140.601 M300.033 144.961 C 299.777 145.269,299.151 145.626,298.643 145.753 C 297.661 146.000,295.600 148.636,295.600 149.645 C 295.600 149.976,295.336 150.596,295.013 151.024 C 294.575 151.602,294.425 152.975,294.425 156.400 C 294.425 159.825,294.575 161.198,295.013 161.776 C 295.336 162.204,295.600 162.824,295.600 163.155 C 295.600 164.012,297.608 166.800,298.226 166.800 C 298.510 166.800,299.043 167.100,299.410 167.467 C 299.825 167.883,300.724 168.133,301.800 168.133 C 302.876 168.133,303.775 167.883,304.190 167.467 C 304.557 167.100,305.090 166.800,305.374 166.800 C 306.028 166.800,307.863 164.153,308.219 162.696 C 308.367 162.089,308.649 161.494,308.844 161.373 C 309.475 160.983,309.272 152.229,308.602 150.946 C 308.274 150.316,308.003 149.530,308.001 149.200 C 307.995 148.406,305.398 145.600,304.669 145.600 C 304.355 145.600,303.874 145.330,303.600 145.000 C 302.972 144.243,300.649 144.218,300.033 144.961 M121.299 291.700 L 121.400 345.800 136.000 345.800 L 150.600 345.800 150.701 291.700 L 150.803 237.600 136.000 237.600 L 121.197 237.600 121.299 291.700 " stroke="none" fill="#fbfbfb" fill-rule="evenodd"></path><path id="path2" d="M106.470 55.900 C 114.539 55.960,127.859 55.960,136.070 55.900 C 144.282 55.839,137.680 55.790,121.400 55.790 C 105.120 55.790,98.402 55.839,106.470 55.900 M104.667 66.267 C 104.037 66.897,104.512 67.941,106.100 69.419 L 107.800 71.000 106.246 69.328 C 103.417 66.283,102.962 66.368,121.553 66.491 C 130.557 66.551,137.840 66.465,137.738 66.300 C 137.509 65.929,105.037 65.897,104.667 66.267 M150.778 69.100 L 149.400 70.600 150.900 69.222 C 151.725 68.463,152.400 67.788,152.400 67.722 C 152.400 67.416,152.062 67.704,150.778 69.100 M108.800 72.525 C 108.800 72.594,109.385 73.179,110.100 73.825 L 111.400 75.000 110.225 73.700 C 109.130 72.488,108.800 72.216,108.800 72.525 M130.778 75.500 L 129.400 77.000 130.900 75.622 C 131.725 74.863,132.400 74.188,132.400 74.122 C 132.400 73.816,132.062 74.104,130.778 75.500 M117.521 77.099 C 119.788 77.170,123.388 77.170,125.521 77.098 C 127.655 77.026,125.800 76.968,121.400 76.968 C 117.000 76.968,115.255 77.027,117.521 77.099 M106.155 90.200 C 106.156 93.060,106.220 94.178,106.297 92.683 C 106.374 91.189,106.374 88.849,106.296 87.483 C 106.218 86.118,106.155 87.340,106.155 90.200 M336.000 96.200 C 336.746 96.970,337.447 97.600,337.557 97.600 C 337.667 97.600,337.146 96.970,336.400 96.200 C 335.654 95.430,334.953 94.800,334.843 94.800 C 334.733 94.800,335.254 95.430,336.000 96.200 M96.262 106.300 C 96.093 106.572,114.295 106.568,137.600 106.291 C 142.550 106.232,135.316 106.143,121.524 106.092 C 107.732 106.041,96.364 106.135,96.262 106.300 M355.693 121.600 C 355.693 122.370,355.775 122.685,355.876 122.300 C 355.976 121.915,355.976 121.285,355.876 120.900 C 355.775 120.515,355.693 120.830,355.693 121.600 M95.900 122.298 C 97.715 122.372,100.685 122.372,102.500 122.298 C 104.315 122.223,102.830 122.163,99.200 122.163 C 95.570 122.163,94.085 122.223,95.900 122.298 M116.660 122.300 C 116.558 122.465,117.942 122.552,119.737 122.492 C 125.617 122.298,126.282 122.141,121.524 122.070 C 118.952 122.031,116.763 122.135,116.660 122.300 M137.061 122.300 C 136.958 122.465,138.882 122.553,141.337 122.495 C 149.428 122.305,150.296 122.152,143.724 122.076 C 140.162 122.034,137.163 122.135,137.061 122.300 M106.144 126.400 C 106.144 128.490,106.212 129.345,106.294 128.300 C 106.376 127.255,106.376 125.545,106.294 124.500 C 106.212 123.455,106.144 124.310,106.144 126.400 M345.293 124.400 C 345.293 125.170,345.375 125.485,345.476 125.100 C 345.576 124.715,345.576 124.085,345.476 123.700 C 345.375 123.315,345.293 123.630,345.293 124.400 M355.693 124.800 C 355.693 125.570,355.775 125.885,355.876 125.500 C 355.976 125.115,355.976 124.485,355.876 124.100 C 355.775 123.715,355.693 124.030,355.693 124.800 M116.752 129.314 C 116.926 129.486,119.122 129.575,121.634 129.512 L 126.200 129.396 121.318 129.198 C 118.634 129.089,116.579 129.141,116.752 129.314 M300.100 133.891 C 300.925 133.978,302.275 133.978,303.100 133.891 C 303.925 133.805,303.250 133.734,301.600 133.734 C 299.950 133.734,299.275 133.805,300.100 133.891 M176.596 219.000 C 176.596 264.980,176.643 283.849,176.700 260.932 C 176.757 238.014,176.757 200.394,176.700 177.332 C 176.643 154.269,176.596 173.020,176.596 219.000 M186.996 219.600 C 186.996 265.690,187.043 284.545,187.100 261.500 C 187.157 238.455,187.157 200.745,187.100 177.700 C 187.043 154.655,186.996 173.510,186.996 219.600 M151.183 139.700 C 152.164 140.745,153.019 141.600,153.083 141.600 C 153.384 141.600,153.066 141.241,151.300 139.583 L 149.400 137.800 151.183 139.700 M288.975 139.300 L 287.800 140.600 289.100 139.425 C 289.815 138.779,290.400 138.194,290.400 138.125 C 290.400 137.816,290.070 138.088,288.975 139.300 M143.583 146.900 C 144.564 147.945,145.419 148.800,145.483 148.800 C 145.784 148.800,145.466 148.441,143.700 146.783 L 141.800 145.000 143.583 146.900 M309.744 156.400 C 309.744 158.490,309.812 159.345,309.894 158.300 C 309.976 157.255,309.976 155.545,309.894 154.500 C 309.812 153.455,309.744 154.310,309.744 156.400 M293.731 156.600 C 293.733 158.140,293.805 158.721,293.892 157.891 C 293.979 157.061,293.977 155.801,293.889 155.091 C 293.800 154.381,293.729 155.060,293.731 156.600 M161.309 161.600 C 161.309 162.590,161.387 162.995,161.482 162.500 C 161.578 162.005,161.578 161.195,161.482 160.700 C 161.387 160.205,161.309 160.610,161.309 161.600 M82.197 269.600 C 82.197 329.330,82.243 353.765,82.300 323.900 C 82.357 294.035,82.357 245.165,82.300 215.300 C 82.243 185.435,82.197 209.870,82.197 269.600 M92.493 162.800 C 92.493 163.570,92.575 163.885,92.676 163.500 C 92.776 163.115,92.776 162.485,92.676 162.100 C 92.575 161.715,92.493 162.030,92.493 162.800 M295.200 199.000 C 294.228 199.990,293.523 200.800,293.633 200.800 C 293.743 200.800,294.628 199.990,295.600 199.000 C 296.572 198.010,297.277 197.200,297.167 197.200 C 297.057 197.200,296.172 198.010,295.200 199.000 M246.575 208.900 L 245.400 210.200 246.700 209.025 C 247.415 208.379,248.000 207.794,248.000 207.725 C 248.000 207.416,247.670 207.688,246.575 208.900 M271.100 209.082 C 271.595 209.178,272.405 209.178,272.900 209.082 C 273.395 208.987,272.990 208.909,272.000 208.909 C 271.010 208.909,270.605 208.987,271.100 209.082 M246.592 267.800 C 246.592 287.380,246.640 295.331,246.700 285.470 C 246.760 275.608,246.759 259.588,246.700 249.870 C 246.640 240.151,246.591 248.220,246.592 267.800 M236.191 268.400 C 236.191 287.870,236.240 295.835,236.300 286.100 C 236.360 276.365,236.360 260.435,236.300 250.700 C 236.240 240.965,236.191 248.930,236.191 268.400 M228.778 319.100 L 227.400 320.600 228.900 319.222 C 230.296 317.938,230.584 317.600,230.278 317.600 C 230.212 317.600,229.537 318.275,228.778 319.100 M186.200 325.600 C 187.283 326.700,188.260 327.600,188.370 327.600 C 188.480 327.600,187.683 326.700,186.600 325.600 C 185.517 324.500,184.540 323.600,184.430 323.600 C 184.320 323.600,185.117 324.500,186.200 325.600 M123.727 357.100 C 128.747 357.163,136.847 357.163,141.727 357.100 C 146.607 357.036,142.500 356.984,132.600 356.984 C 122.700 356.984,118.707 357.036,123.727 357.100 M161.293 378.400 C 161.293 379.170,161.375 379.485,161.476 379.100 C 161.576 378.715,161.576 378.085,161.476 377.700 C 161.375 377.315,161.293 377.630,161.293 378.400 M100.305 396.283 C 100.802 396.379,101.522 396.375,101.905 396.275 C 102.287 396.175,101.880 396.096,101.000 396.101 C 100.120 396.105,99.807 396.187,100.305 396.283 M141.105 396.283 C 141.602 396.379,142.322 396.375,142.705 396.275 C 143.087 396.175,142.680 396.096,141.800 396.101 C 140.920 396.105,140.607 396.187,141.105 396.283 " stroke="none" fill="#7c7c7c" fill-rule="evenodd"></path><path id="path3" d="M298.400 52.187 C 293.214 53.376,288.552 57.683,283.400 66.042 C 282.131 68.102,279.707 72.651,274.950 81.904 C 268.362 94.717,268.143 95.011,261.203 100.398 C 251.395 108.010,248.081 112.530,247.176 119.530 C 244.972 136.563,257.301 150.132,279.000 154.554 L 283.400 155.450 283.640 159.225 C 284.165 167.493,288.729 175.092,294.500 177.306 C 295.404 177.653,295.430 179.832,294.555 181.886 C 289.615 193.486,282.562 198.108,268.400 199.027 C 254.637 199.920,242.739 209.330,238.090 223.000 C 236.559 227.501,236.400 231.717,236.398 267.868 C 236.397 303.000,236.227 307.717,234.873 310.242 C 234.649 310.659,233.988 311.966,233.404 313.148 C 232.166 315.652,232.089 315.755,229.200 318.766 C 218.916 329.486,201.470 328.558,192.233 316.801 C 191.225 315.517,190.400 314.332,190.400 314.165 C 190.400 313.999,190.167 313.579,189.881 313.231 C 186.745 309.414,186.804 311.213,186.765 218.484 C 186.746 172.568,186.590 134.100,186.418 133.000 C 186.247 131.900,186.096 169.340,186.083 216.200 C 186.069 263.355,186.215 302.293,186.409 303.400 C 187.387 308.977,187.699 310.077,189.031 312.634 C 190.581 315.612,192.602 318.337,194.570 320.106 C 196.322 321.681,200.336 324.400,200.913 324.402 C 201.181 324.404,201.940 324.695,202.600 325.050 C 206.246 327.009,217.774 327.168,220.105 325.291 C 220.377 325.072,221.173 324.770,221.872 324.620 C 222.572 324.471,223.359 324.090,223.621 323.774 C 223.883 323.458,224.271 323.200,224.483 323.200 C 225.110 323.200,229.510 319.595,230.529 318.246 C 232.594 315.514,234.400 312.787,234.400 312.403 C 234.400 312.180,234.760 311.325,235.200 310.504 C 235.640 309.684,236.000 308.526,236.000 307.932 C 236.000 307.338,236.225 306.345,236.500 305.726 C 236.884 304.860,237.046 295.492,237.200 265.200 C 237.386 228.655,237.451 225.707,238.100 224.520 C 238.485 223.816,238.800 222.950,238.800 222.595 C 238.800 220.380,243.470 212.937,247.214 209.186 C 250.941 205.452,257.335 201.572,260.790 200.948 C 261.565 200.808,262.686 200.447,263.280 200.147 C 263.874 199.846,265.584 199.589,267.080 199.575 C 278.057 199.475,285.730 196.209,291.036 189.375 C 292.602 187.358,293.117 186.433,294.947 182.340 C 296.290 179.337,294.980 175.682,292.527 175.587 C 291.610 175.552,286.800 170.031,286.800 169.013 C 286.800 168.730,286.544 168.286,286.231 168.026 C 285.918 167.766,285.538 166.799,285.385 165.877 C 285.232 164.955,284.910 163.840,284.668 163.400 C 284.427 162.960,284.133 160.982,284.015 159.004 C 283.761 154.760,283.675 154.681,278.569 153.970 C 276.844 153.730,274.940 153.279,274.336 152.967 C 273.733 152.655,272.870 152.400,272.418 152.400 C 271.967 152.400,270.925 152.040,270.104 151.600 C 269.284 151.160,268.426 150.800,268.198 150.800 C 267.970 150.800,266.798 150.262,265.592 149.605 C 264.386 148.948,263.130 148.284,262.800 148.130 C 258.592 146.163,252.132 139.515,250.044 135.002 C 247.575 129.666,246.561 119.801,248.165 116.727 C 248.473 116.137,248.843 115.114,248.988 114.455 C 249.133 113.795,249.510 113.041,249.826 112.779 C 250.142 112.517,250.400 112.119,250.400 111.896 C 250.400 111.054,254.834 106.114,257.465 104.024 C 258.969 102.830,260.380 101.661,260.600 101.426 C 260.820 101.192,261.799 100.460,262.775 99.800 C 265.158 98.189,269.064 94.263,269.420 93.121 C 269.578 92.615,269.838 92.110,269.998 92.000 C 270.429 91.703,272.721 87.446,276.627 79.690 C 278.541 75.890,280.243 72.697,280.409 72.594 C 280.575 72.492,280.836 71.913,280.987 71.308 C 281.139 70.703,281.390 70.116,281.545 70.004 C 281.805 69.816,285.210 64.243,285.550 63.450 C 285.632 63.258,285.993 62.792,286.350 62.416 C 286.707 62.040,287.270 61.317,287.600 60.809 C 289.003 58.650,291.881 55.697,292.900 55.370 C 293.285 55.247,293.600 54.990,293.600 54.800 C 293.600 54.610,294.005 54.330,294.500 54.180 C 294.995 54.029,295.734 53.612,296.142 53.253 C 297.209 52.314,305.172 52.304,306.258 53.239 C 306.666 53.591,307.334 53.997,307.741 54.142 C 309.818 54.882,316.800 62.151,316.800 63.574 C 316.800 63.786,317.029 64.104,317.308 64.280 C 317.588 64.456,318.042 65.050,318.316 65.600 C 318.591 66.150,319.244 67.320,319.768 68.200 C 320.292 69.080,321.292 70.923,321.991 72.296 C 322.690 73.668,323.428 74.894,323.631 75.019 C 323.834 75.145,324.000 75.584,324.000 75.995 C 324.000 76.406,324.246 76.989,324.547 77.290 C 324.848 77.591,325.229 78.279,325.395 78.819 C 325.560 79.358,325.929 80.070,326.216 80.400 C 326.503 80.730,326.862 81.497,327.013 82.104 C 327.165 82.711,327.435 83.298,327.613 83.408 C 327.792 83.518,328.504 84.732,329.197 86.104 C 329.890 87.477,330.885 89.320,331.409 90.200 C 331.933 91.080,332.492 92.070,332.651 92.400 C 332.989 93.098,334.730 95.500,335.600 96.466 C 336.237 97.173,338.515 99.001,340.004 100.000 C 340.496 100.330,341.101 100.780,341.349 101.000 C 341.597 101.220,342.520 101.927,343.400 102.570 C 347.591 105.636,350.871 109.344,352.993 113.414 C 355.276 117.794,355.736 128.146,353.812 131.835 C 353.478 132.476,353.204 133.208,353.202 133.463 C 353.199 134.181,351.129 138.000,350.743 138.000 C 350.554 138.000,350.400 138.228,350.400 138.507 C 350.400 139.860,342.004 147.437,339.692 148.171 C 339.202 148.326,338.800 148.602,338.800 148.784 C 338.800 148.965,338.306 149.237,337.702 149.389 C 337.098 149.540,336.367 149.861,336.077 150.102 C 335.467 150.608,332.124 151.857,329.816 152.441 C 328.944 152.661,328.044 152.992,327.816 153.176 C 327.587 153.360,326.410 153.630,325.200 153.776 C 319.780 154.432,319.600 154.588,319.600 158.641 C 319.600 160.389,319.351 162.221,319.000 163.062 C 318.670 163.851,318.397 164.881,318.394 165.349 C 318.391 165.817,318.129 166.650,317.811 167.200 C 317.494 167.750,317.043 168.626,316.809 169.147 C 315.530 171.998,309.787 177.200,307.920 177.200 C 307.131 177.200,305.198 178.716,305.206 179.329 C 305.214 179.974,303.642 185.126,302.988 186.600 C 302.695 187.260,302.331 188.236,302.179 188.769 C 302.026 189.302,301.742 189.932,301.545 190.169 C 301.032 190.789,299.200 193.609,299.200 193.779 C 299.200 193.858,298.615 194.600,297.900 195.427 C 291.463 202.872,284.441 206.804,276.000 207.687 C 273.910 207.906,270.850 208.331,269.200 208.631 L 266.200 209.176 269.800 208.966 C 278.012 208.486,284.109 206.873,288.999 203.888 C 293.314 201.253,299.874 194.616,301.187 191.558 C 301.413 191.031,301.767 190.330,301.974 190.000 C 303.099 188.206,304.961 182.972,305.431 180.283 C 305.679 178.858,305.882 178.677,308.748 177.319 C 315.613 174.065,320.000 166.819,320.000 158.734 C 320.000 155.113,320.013 155.101,324.600 154.331 C 340.848 151.604,353.388 140.557,355.296 127.292 C 356.776 116.999,353.054 109.089,343.400 102.010 C 334.561 95.529,334.081 94.890,325.803 78.600 C 315.966 59.243,311.071 53.452,303.338 52.022 C 302.081 51.790,300.951 51.618,300.827 51.641 C 300.702 51.664,299.610 51.909,298.400 52.187 M89.600 56.556 C 88.576 56.918,87.934 57.548,87.210 58.900 C 85.475 62.141,86.128 63.108,99.416 76.967 C 102.679 80.370,105.742 83.898,106.011 84.563 C 106.338 85.372,106.350 85.373,106.373 84.600 C 106.386 84.152,105.330 82.656,103.974 81.200 C 102.642 79.770,99.808 76.722,97.676 74.427 C 95.544 72.131,92.781 69.161,91.536 67.827 C 87.630 63.641,87.400 63.254,87.400 60.875 C 87.400 59.018,87.551 58.601,88.530 57.758 L 89.661 56.786 121.531 56.893 L 153.400 57.000 154.400 58.000 C 156.744 60.344,155.884 62.875,150.921 68.246 C 150.084 69.152,147.870 71.569,146.000 73.617 C 144.130 75.666,141.970 77.995,141.200 78.794 C 140.430 79.592,139.035 81.086,138.100 82.113 L 136.400 83.982 136.400 89.948 C 136.400 97.068,135.611 96.400,144.020 96.400 C 151.862 96.400,154.125 97.239,155.548 100.675 C 156.307 102.506,157.490 103.600,158.716 103.602 C 159.312 103.604,160.280 103.856,160.867 104.162 C 161.454 104.468,162.659 104.841,163.544 104.991 C 164.430 105.140,165.366 105.518,165.626 105.831 C 165.886 106.144,166.408 106.400,166.788 106.400 C 167.167 106.400,167.893 106.760,168.400 107.200 C 168.907 107.640,169.482 108.000,169.677 108.000 C 170.404 108.000,172.704 109.904,176.200 113.400 C 179.942 117.142,180.420 117.738,181.413 119.900 C 181.742 120.615,182.188 121.200,182.405 121.200 C 182.622 121.200,182.800 121.518,182.800 121.906 C 182.800 122.294,183.160 123.284,183.600 124.104 C 184.040 124.925,184.400 125.886,184.400 126.238 C 184.400 126.591,184.658 127.446,184.973 128.140 C 185.288 128.833,185.639 129.760,185.754 130.200 C 185.869 130.640,185.898 130.370,185.819 129.600 C 185.505 126.527,182.730 120.296,180.168 116.911 C 174.865 109.906,166.567 104.543,159.041 103.258 C 158.114 103.100,157.303 102.675,157.041 102.211 C 153.814 96.498,153.308 96.253,144.200 96.000 L 137.000 95.800 136.889 90.058 L 136.778 84.316 139.889 80.876 C 141.600 78.983,143.540 76.868,144.200 76.176 C 146.353 73.919,153.044 66.637,154.408 65.068 C 157.180 61.878,156.190 57.446,152.474 56.414 C 150.195 55.781,91.416 55.914,89.600 56.556 M299.458 61.884 C 297.841 62.733,295.664 65.011,293.800 67.803 C 291.643 71.035,291.290 71.618,290.717 72.900 C 290.446 73.505,290.098 74.000,289.943 74.000 C 289.789 74.000,289.454 74.630,289.200 75.400 C 288.946 76.170,288.586 76.800,288.401 76.800 C 288.215 76.800,287.948 77.328,287.806 77.972 C 287.664 78.617,287.308 79.345,287.014 79.589 C 286.719 79.833,286.357 80.519,286.208 81.112 C 286.059 81.706,285.802 82.284,285.637 82.396 C 285.473 82.508,284.396 84.490,283.244 86.800 C 280.809 91.683,278.732 95.621,278.289 96.196 C 278.119 96.418,277.404 97.500,276.702 98.600 C 275.492 100.495,271.209 104.979,269.151 106.505 C 266.750 108.284,266.197 108.707,264.141 110.343 C 260.046 113.599,257.158 117.181,257.246 118.896 C 257.287 119.693,257.316 119.707,257.492 119.017 C 258.144 116.449,260.939 113.460,267.455 108.363 C 273.936 103.293,276.270 100.747,279.160 95.600 C 280.086 93.950,280.998 92.330,281.187 92.000 C 281.375 91.670,283.112 88.250,285.045 84.400 C 296.139 62.307,300.092 58.597,305.806 64.911 C 307.834 67.153,308.645 68.336,311.449 73.144 C 312.385 74.749,316.553 82.665,319.902 89.200 C 322.293 93.863,322.413 94.079,324.370 97.200 C 327.466 102.138,329.361 104.092,335.492 108.663 C 346.036 116.526,348.328 123.814,342.940 132.352 C 340.332 136.484,331.607 142.800,328.507 142.800 C 328.278 142.800,327.576 143.069,326.946 143.398 C 326.316 143.726,325.428 143.996,324.973 143.998 C 324.518 143.999,323.190 144.284,322.022 144.631 C 319.078 145.505,318.272 145.189,316.561 142.495 C 313.611 137.849,307.644 133.899,303.800 134.047 C 303.036 134.076,302.890 134.152,303.400 134.257 C 305.313 134.648,308.652 135.809,309.231 136.283 C 309.579 136.567,310.004 136.800,310.176 136.800 C 311.303 136.800,316.800 142.740,316.800 143.958 C 316.800 145.462,320.137 146.055,322.662 145.000 C 323.451 144.670,324.537 144.400,325.075 144.400 C 326.528 144.400,334.800 140.924,334.800 140.314 C 334.800 140.141,335.054 140.000,335.364 140.000 C 336.023 140.000,339.812 137.080,341.059 135.612 C 341.531 135.055,342.296 134.167,342.759 133.639 C 343.221 133.110,343.600 132.457,343.600 132.188 C 343.600 131.918,343.858 131.484,344.173 131.222 C 344.727 130.762,345.190 129.249,346.084 124.968 C 346.822 121.439,344.782 116.277,341.296 112.851 C 340.185 111.760,334.495 107.200,334.245 107.200 C 333.950 107.200,331.066 104.663,329.097 102.672 C 327.069 100.620,324.495 96.892,322.410 92.984 C 321.710 91.673,320.990 90.330,320.811 90.000 C 320.632 89.670,320.288 88.950,320.046 88.400 C 319.617 87.424,319.416 87.045,318.462 85.400 C 318.207 84.960,317.819 84.150,317.599 83.600 C 317.380 83.050,317.027 82.330,316.816 82.000 C 316.604 81.670,315.791 80.140,315.009 78.600 C 308.183 65.164,303.270 59.883,299.458 61.884 M103.483 65.851 C 103.051 66.283,104.348 68.332,106.560 70.711 C 107.730 71.970,109.598 73.990,110.711 75.200 L 112.734 77.400 121.402 77.400 L 130.071 77.400 130.876 76.400 C 131.643 75.447,134.551 72.237,137.414 69.183 C 138.145 68.403,138.866 67.278,139.015 66.683 L 139.287 65.600 121.510 65.600 C 111.733 65.600,103.621 65.713,103.483 65.851 M137.979 66.760 C 138.388 67.525,136.959 69.302,130.953 75.500 L 129.305 77.200 121.753 77.195 C 112.412 77.188,113.391 77.559,108.500 72.173 C 104.665 67.949,104.003 66.930,104.667 66.267 C 105.422 65.511,137.565 65.987,137.979 66.760 M116.480 87.280 C 115.764 87.996,115.829 95.360,116.557 95.964 C 116.927 96.271,118.702 96.388,121.857 96.313 L 126.600 96.200 126.714 91.832 C 126.799 88.607,126.694 87.379,126.314 87.139 C 125.476 86.607,117.032 86.728,116.480 87.280 M126.200 91.600 L 126.200 95.800 121.400 95.800 L 116.600 95.800 116.484 92.030 C 116.324 86.824,115.974 87.155,121.492 87.287 L 126.200 87.400 126.200 91.600 M66.200 91.556 C 63.555 92.711,63.205 94.554,63.202 107.323 C 63.199 121.674,63.756 123.397,68.400 123.399 C 71.761 123.401,72.939 121.833,73.426 116.714 C 73.809 112.681,73.614 112.800,79.835 112.800 C 85.725 112.800,86.000 112.921,86.000 115.514 C 86.000 116.972,87.877 119.616,89.877 120.975 C 91.355 121.979,91.531 122.000,98.413 122.000 C 103.345 122.000,105.583 122.143,105.920 122.480 C 106.241 122.801,106.400 122.815,106.400 122.523 C 106.400 121.739,105.230 121.600,98.652 121.600 C 90.175 121.600,86.400 119.621,86.400 115.175 C 86.400 114.814,86.202 113.953,85.961 113.260 L 85.522 112.000 79.823 112.000 C 72.909 112.000,72.824 112.051,72.753 116.231 C 72.649 122.288,70.043 124.626,65.990 122.300 C 63.932 121.119,63.918 121.002,64.074 105.999 L 64.200 93.799 65.180 92.819 C 66.658 91.342,69.960 91.380,71.471 92.890 C 72.481 93.899,72.574 94.272,72.725 97.890 C 72.951 103.339,72.766 103.200,79.822 103.200 L 85.521 103.200 86.454 101.700 C 86.967 100.875,87.458 100.043,87.544 99.850 C 88.664 97.342,91.051 96.621,98.967 96.400 C 104.871 96.235,106.167 96.094,106.317 95.600 C 106.465 95.116,106.398 95.096,105.970 95.500 C 105.591 95.858,103.556 96.002,98.820 96.009 C 90.306 96.020,88.842 96.620,86.129 101.213 L 85.428 102.400 79.994 102.400 C 73.799 102.400,73.600 102.312,73.600 99.575 C 73.600 93.057,70.488 89.685,66.200 91.556 M121.600 105.995 L 146.600 106.200 146.600 109.000 L 146.600 111.800 121.400 111.800 L 96.200 111.800 96.200 108.937 C 96.200 107.363,96.065 106.158,95.900 106.261 C 95.405 106.568,95.558 111.398,96.080 111.920 C 96.589 112.429,145.264 112.657,146.567 112.157 C 147.354 111.855,147.480 106.840,146.720 106.080 C 146.355 105.715,140.299 105.623,121.420 105.695 L 96.600 105.791 121.600 105.995 M157.222 113.338 C 156.990 113.570,156.811 114.039,156.825 114.380 C 156.842 114.775,156.978 114.685,157.201 114.131 C 157.649 113.019,159.130 113.326,163.000 115.332 C 163.440 115.561,164.340 116.013,165.000 116.337 C 166.798 117.221,172.478 123.182,173.461 125.218 C 177.070 132.687,176.792 124.851,176.834 220.200 C 176.854 266.180,177.010 304.700,177.182 305.800 C 177.353 306.900,177.517 269.273,177.547 222.184 C 177.593 147.254,177.525 136.281,177.000 134.265 C 176.670 132.998,176.400 131.562,176.400 131.075 C 176.400 130.587,176.040 129.516,175.600 128.696 C 175.160 127.875,174.800 126.960,174.800 126.663 C 174.800 126.366,174.440 125.707,174.000 125.200 C 173.560 124.693,173.200 124.127,173.200 123.943 C 173.200 123.180,168.252 117.940,166.454 116.800 C 165.933 116.470,165.123 115.910,164.654 115.555 C 164.184 115.200,163.350 114.773,162.800 114.606 C 162.250 114.439,161.572 114.119,161.293 113.896 C 160.479 113.244,157.697 112.863,157.222 113.338 M155.817 116.913 C 153.930 120.975,152.354 121.600,143.995 121.600 C 135.983 121.600,136.400 121.325,136.400 126.610 C 136.400 130.768,137.060 132.400,138.742 132.400 C 139.910 132.400,144.895 135.099,147.600 137.195 C 151.233 140.011,156.800 146.648,156.800 148.164 C 156.800 148.460,157.058 148.917,157.374 149.179 C 157.690 149.441,158.071 150.228,158.220 150.928 C 158.370 151.627,158.672 152.423,158.892 152.696 C 159.246 153.136,159.816 155.504,160.793 160.600 L 161.100 162.200 161.150 160.764 C 161.199 159.344,159.947 153.746,159.234 152.200 C 158.348 150.281,156.304 146.109,155.758 145.107 C 153.285 140.566,146.160 134.946,138.686 131.643 L 136.773 130.797 136.886 126.499 L 137.000 122.200 144.200 122.000 C 151.865 121.787,152.850 121.555,154.626 119.538 C 155.938 118.049,156.860 116.401,156.725 115.789 C 156.656 115.479,156.247 115.985,155.817 116.913 M256.624 121.379 C 255.973 124.381,257.360 130.243,259.400 133.114 C 261.273 135.749,264.969 139.069,267.200 140.121 C 267.530 140.276,268.700 140.931,269.800 141.575 C 270.900 142.220,272.165 142.759,272.611 142.773 C 273.057 142.788,273.786 143.055,274.231 143.367 C 274.677 143.679,275.752 144.053,276.620 144.199 C 277.489 144.344,278.879 144.719,279.708 145.032 C 282.923 146.243,286.800 145.316,286.800 143.336 C 286.800 143.109,287.160 142.598,287.600 142.200 C 288.040 141.802,288.400 141.300,288.400 141.085 C 288.400 140.542,291.012 138.133,292.970 136.871 C 294.439 135.924,295.375 135.568,299.400 134.423 L 300.600 134.082 299.314 134.041 C 298.100 134.002,296.876 134.410,293.600 135.944 C 291.795 136.790,288.803 139.558,287.367 141.711 C 284.817 145.533,284.552 145.640,280.294 144.577 C 271.225 142.313,267.174 140.277,262.373 135.571 C 258.588 131.862,257.508 129.445,257.202 124.000 C 256.999 120.379,256.919 120.018,256.624 121.379 M121.600 121.980 L 126.200 122.200 126.200 125.863 C 126.200 127.877,126.335 129.441,126.500 129.339 C 126.665 129.237,126.800 127.563,126.800 125.619 C 126.800 121.386,127.061 121.571,121.267 121.680 L 117.000 121.760 121.600 121.980 M116.267 122.267 C 115.899 122.635,115.929 129.109,116.300 129.338 C 116.465 129.440,116.600 127.831,116.600 125.762 C 116.600 123.693,116.585 122.000,116.567 122.000 C 116.548 122.000,116.413 122.120,116.267 122.267 M105.278 131.062 C 104.771 131.536,103.882 132.043,103.302 132.189 C 100.663 132.851,96.460 135.693,92.636 139.400 C 88.318 143.585,86.027 147.296,83.710 153.858 L 82.600 157.000 82.489 267.400 C 82.377 379.207,82.410 382.137,83.811 384.137 C 84.135 384.600,84.400 385.220,84.400 385.516 C 84.400 386.733,88.217 391.176,90.600 392.732 C 96.020 396.272,98.491 396.531,124.400 396.283 C 136.069 396.172,144.540 395.927,145.656 395.669 C 150.627 394.521,156.724 390.069,158.742 386.113 C 159.939 383.767,161.204 379.961,161.168 378.814 C 161.151 378.256,161.081 377.980,161.012 378.200 C 160.943 378.420,160.584 379.680,160.214 381.000 C 158.415 387.416,154.508 391.774,148.200 394.401 L 145.800 395.400 121.400 395.400 L 97.000 395.400 94.600 394.400 C 91.878 393.266,91.840 393.241,89.139 390.823 C 87.431 389.295,84.800 385.981,84.800 385.358 C 84.800 385.247,84.395 384.311,83.900 383.278 L 83.000 381.400 83.000 269.400 L 83.000 157.400 83.950 154.600 C 85.111 151.176,87.854 145.419,88.630 144.775 C 88.944 144.515,89.200 144.144,89.200 143.951 C 89.200 143.583,89.337 143.423,92.668 139.917 C 94.673 137.805,99.826 134.000,100.680 134.000 C 100.912 134.000,101.310 133.749,101.565 133.442 C 101.820 133.135,102.639 132.769,103.386 132.629 C 104.878 132.349,106.604 131.153,106.357 130.570 C 106.271 130.367,105.785 130.588,105.278 131.062 M110.200 139.840 C 109.320 140.190,108.111 140.568,107.513 140.681 C 106.915 140.794,106.218 141.137,105.964 141.444 C 105.710 141.750,105.309 142.000,105.073 142.000 C 101.393 142.000,93.923 151.974,92.341 159.000 C 91.385 163.240,91.336 375.735,92.289 379.136 C 93.214 382.438,95.341 384.816,98.400 385.970 C 101.064 386.975,141.056 387.253,143.329 386.282 C 144.223 385.900,139.992 385.826,122.929 385.923 C 95.051 386.083,94.389 385.933,92.803 379.063 C 92.219 376.532,92.269 163.734,92.854 159.716 C 94.790 146.441,104.513 139.596,121.433 139.599 C 134.151 139.601,139.664 141.706,145.587 148.822 C 151.357 155.756,151.223 154.668,151.102 193.600 L 151.000 226.600 132.322 226.800 L 113.644 227.000 112.222 228.378 C 111.440 229.137,110.800 230.124,110.800 230.572 C 110.800 231.219,110.944 231.125,111.500 230.117 C 113.177 227.074,112.139 227.220,132.858 227.104 L 151.400 227.000 151.400 192.520 C 151.400 165.469,151.292 157.932,150.900 157.540 C 150.625 157.265,150.400 156.778,150.400 156.459 C 150.400 152.780,143.371 144.612,138.127 142.198 C 137.427 141.876,136.742 141.429,136.604 141.206 C 136.466 140.983,135.958 140.799,135.476 140.798 C 134.994 140.796,134.060 140.486,133.400 140.109 C 131.637 139.102,112.614 138.881,110.200 139.840 M299.000 143.979 C 296.302 145.084,293.568 149.349,293.656 152.312 L 293.713 154.200 293.964 152.200 C 295.261 141.866,307.632 141.381,309.631 151.585 L 309.908 153.000 309.954 151.712 C 310.134 146.685,303.619 142.085,299.000 143.979 M293.653 160.688 C 293.498 165.597,298.365 169.776,303.365 169.026 C 306.364 168.576,310.062 164.120,309.954 161.088 L 309.908 159.800 309.624 161.200 C 307.588 171.245,295.489 170.936,293.976 160.800 L 293.707 159.000 293.653 160.688 M161.397 270.200 C 161.397 329.160,161.443 353.340,161.500 323.932 C 161.557 294.525,161.557 246.285,161.500 216.732 C 161.443 187.180,161.397 211.240,161.397 270.200 M262.989 209.749 C 262.555 210.051,261.627 210.422,260.928 210.575 C 260.228 210.727,259.441 211.110,259.179 211.426 C 258.917 211.742,258.531 212.000,258.321 212.000 C 255.558 212.000,247.579 222.514,246.961 226.969 C 246.837 227.866,246.577 229.050,246.383 229.600 C 246.189 230.150,245.979 248.150,245.915 269.600 C 245.852 291.050,245.917 307.610,246.060 306.400 C 246.204 305.190,246.342 288.270,246.368 268.800 C 246.416 232.072,246.564 228.366,248.128 224.800 C 248.465 224.030,248.852 223.130,248.986 222.800 C 251.253 217.248,258.300 211.443,265.000 209.610 L 266.200 209.282 264.989 209.241 C 264.323 209.218,263.423 209.447,262.989 209.749 M110.595 291.600 C 110.595 324.710,110.642 338.255,110.700 321.700 C 110.758 305.145,110.758 278.055,110.700 261.500 C 110.642 244.945,110.595 258.490,110.595 291.600 M120.671 237.062 C 120.206 237.527,120.347 345.954,120.814 346.826 C 121.461 348.036,150.540 348.033,151.187 346.824 C 151.470 346.295,151.571 328.653,151.501 291.524 L 151.400 237.000 136.171 236.895 C 127.796 236.838,120.821 236.913,120.671 237.062 M151.101 291.900 L 151.000 346.600 136.000 346.600 L 121.000 346.600 120.899 291.900 L 120.797 237.200 136.000 237.200 L 151.203 237.200 151.101 291.900 M177.641 308.713 C 177.618 309.215,177.972 310.745,178.426 312.113 C 183.680 327.935,198.874 337.835,215.200 336.073 C 218.470 335.720,218.347 335.704,211.986 335.653 C 206.491 335.609,204.987 335.465,203.096 334.800 C 201.844 334.360,200.587 334.000,200.302 334.000 C 199.665 334.000,194.443 331.374,192.000 329.825 C 190.210 328.690,183.600 322.158,183.600 321.524 C 183.600 321.341,182.970 320.295,182.200 319.200 C 181.430 318.105,180.799 317.071,180.798 316.904 C 180.796 316.737,180.509 316.060,180.158 315.400 C 179.590 314.329,179.185 313.117,178.021 309.000 C 177.737 307.995,177.675 307.949,177.641 308.713 M244.637 311.048 C 244.237 312.342,243.664 313.940,243.365 314.600 C 243.066 315.260,242.629 316.250,242.393 316.800 C 241.937 317.867,241.640 318.377,239.829 321.200 C 237.434 324.935,230.986 330.567,227.200 332.233 C 226.870 332.378,225.880 332.826,225.000 333.229 C 224.120 333.632,222.665 334.124,221.768 334.323 C 220.050 334.703,218.237 335.567,219.113 335.588 C 219.762 335.603,224.156 334.160,226.000 333.325 C 232.597 330.339,238.768 324.556,242.355 318.000 C 243.753 315.444,245.750 309.849,245.515 309.145 C 245.433 308.898,245.038 309.754,244.637 311.048 M110.820 353.000 C 110.830 353.940,112.230 355.706,113.474 356.349 C 114.084 356.664,119.751 356.800,132.294 356.800 C 145.719 356.800,150.361 356.921,150.720 357.280 C 151.069 357.629,151.200 360.590,151.200 368.093 C 151.200 380.688,150.836 381.853,146.000 384.757 C 145.230 385.219,144.880 385.598,145.222 385.599 C 146.601 385.602,149.287 383.107,150.635 380.572 C 151.622 378.717,152.179 358.330,151.282 356.919 C 151.053 356.558,146.322 356.408,132.388 356.317 C 113.758 356.196,112.689 356.119,112.233 354.872 C 111.641 353.254,110.811 352.154,110.820 353.000 " stroke="none" fill="#747474" fill-rule="evenodd"></path><path id="path4" d="M298.000 51.433 C 297.450 51.739,296.617 51.991,296.149 51.994 C 295.681 51.997,295.080 52.263,294.813 52.585 C 294.546 52.906,293.957 53.287,293.505 53.430 C 293.052 53.574,292.073 54.301,291.328 55.046 C 290.583 55.791,289.799 56.400,289.587 56.400 C 289.374 56.400,289.199 56.535,289.198 56.700 C 289.197 56.865,288.606 57.642,287.886 58.427 C 286.158 60.308,282.938 65.082,282.016 67.130 C 281.785 67.642,281.328 68.330,280.998 68.659 C 280.669 68.988,280.400 69.487,280.400 69.767 C 280.400 70.048,280.040 70.693,279.600 71.200 C 279.160 71.707,278.800 72.433,278.800 72.812 C 278.800 73.192,278.542 73.717,278.226 73.979 C 277.910 74.241,277.536 74.983,277.394 75.628 C 277.252 76.272,276.974 76.800,276.776 76.800 C 276.578 76.800,276.294 77.295,276.147 77.900 C 275.999 78.505,275.545 79.429,275.139 79.954 C 274.733 80.479,274.400 81.233,274.400 81.630 C 274.400 82.028,274.217 82.466,273.994 82.604 C 273.771 82.742,273.324 83.427,273.002 84.127 C 272.680 84.827,272.232 85.715,272.008 86.100 C 271.784 86.485,271.416 87.115,271.192 87.500 C 270.968 87.885,270.515 88.740,270.186 89.400 C 268.941 91.898,265.588 96.321,264.425 97.000 C 263.623 97.468,262.612 98.316,261.683 99.300 C 261.320 99.685,260.787 100.000,260.499 100.000 C 260.211 100.000,259.871 100.270,259.745 100.600 C 259.618 100.930,259.307 101.200,259.053 101.200 C 258.800 101.200,257.424 102.276,255.996 103.590 C 254.568 104.905,253.265 105.985,253.100 105.990 C 252.935 105.996,252.800 106.251,252.800 106.557 C 252.800 106.864,252.569 107.203,252.287 107.311 C 251.648 107.557,248.400 112.246,248.400 112.924 C 248.400 113.198,248.115 113.828,247.768 114.325 C 245.811 117.118,245.804 130.072,247.758 132.861 C 248.111 133.365,248.400 134.085,248.400 134.460 C 248.400 134.836,248.627 135.381,248.905 135.671 C 249.182 135.962,249.639 136.650,249.921 137.200 C 250.808 138.936,251.387 139.844,252.003 140.465 C 252.331 140.797,252.960 141.556,253.400 142.153 C 254.198 143.236,260.208 148.191,261.774 149.057 C 262.676 149.556,266.047 151.211,268.644 152.429 C 269.548 152.853,270.628 153.206,271.044 153.213 C 271.460 153.220,272.149 153.490,272.576 153.813 C 273.004 154.136,273.835 154.400,274.424 154.400 C 275.014 154.400,276.623 154.760,278.000 155.200 C 279.377 155.640,281.111 156.000,281.852 156.000 L 283.200 156.000 283.214 160.100 C 283.224 163.313,283.394 164.546,284.000 165.800 C 284.425 166.680,284.779 167.721,284.786 168.113 C 284.794 168.504,285.070 168.929,285.400 169.055 C 285.730 169.182,286.000 169.600,286.000 169.984 C 286.000 170.369,286.412 171.128,286.915 171.671 C 287.419 172.214,288.184 173.097,288.615 173.634 C 289.725 175.015,292.832 177.451,293.900 177.778 C 294.936 178.095,295.084 179.391,294.216 180.537 C 293.909 180.942,293.539 181.977,293.394 182.837 C 293.249 183.697,292.983 184.400,292.804 184.400 C 292.625 184.400,292.291 184.936,292.063 185.591 C 291.590 186.949,291.470 187.105,288.193 190.619 C 286.868 192.038,285.563 193.200,285.293 193.200 C 285.022 193.200,284.800 193.378,284.800 193.595 C 284.800 193.812,284.192 194.243,283.449 194.554 C 282.706 194.864,281.975 195.317,281.825 195.559 C 281.675 195.802,281.126 196.000,280.605 196.000 C 280.084 196.000,279.394 196.264,279.071 196.586 C 278.674 196.983,276.898 197.302,273.543 197.579 C 270.824 197.803,267.971 198.169,267.203 198.393 C 266.434 198.617,264.991 198.800,263.997 198.800 C 262.952 198.800,261.557 199.138,260.696 199.600 C 259.875 200.040,258.855 200.400,258.430 200.400 C 258.005 200.400,257.387 200.670,257.057 201.000 C 256.727 201.330,256.262 201.600,256.023 201.600 C 255.344 201.600,251.405 203.918,250.223 205.013 C 249.638 205.556,249.027 206.000,248.867 206.000 C 247.987 206.000,240.800 214.377,240.800 215.403 C 240.800 215.694,240.651 215.993,240.468 216.067 C 240.011 216.250,238.000 220.599,238.000 221.404 C 238.000 221.763,237.730 222.327,237.400 222.657 C 237.070 222.987,236.796 223.829,236.790 224.529 C 236.785 225.228,236.571 226.520,236.315 227.400 C 235.981 228.546,235.785 240.135,235.624 268.200 C 235.421 303.740,235.338 307.493,234.739 308.400 C 234.376 308.950,233.959 309.973,233.814 310.672 C 233.668 311.372,233.290 312.159,232.974 312.421 C 232.658 312.683,232.400 313.120,232.400 313.391 C 232.400 314.398,226.838 320.800,225.963 320.800 C 225.831 320.800,225.307 321.160,224.800 321.600 C 224.293 322.040,223.657 322.400,223.388 322.400 C 223.118 322.400,222.683 322.658,222.421 322.974 C 222.159 323.290,221.372 323.668,220.672 323.814 C 219.973 323.959,218.974 324.349,218.454 324.679 C 217.086 325.547,206.534 325.558,205.159 324.693 C 204.632 324.361,203.525 323.971,202.700 323.827 C 201.875 323.682,201.200 323.410,201.200 323.221 C 201.200 323.032,200.664 322.691,200.009 322.463 C 197.980 321.756,191.925 316.008,190.964 313.878 C 190.647 313.175,190.232 312.330,190.041 312.000 C 189.850 311.670,189.312 310.407,188.847 309.192 L 188.000 306.985 187.971 221.792 C 187.954 173.870,187.786 135.725,187.585 134.600 C 187.389 133.500,187.021 131.340,186.767 129.800 C 186.513 128.260,186.056 126.716,185.752 126.369 C 185.449 126.021,185.188 125.301,185.173 124.769 C 185.159 124.236,184.619 122.900,183.975 121.800 C 183.330 120.700,182.581 119.350,182.310 118.800 C 182.039 118.250,181.588 117.656,181.308 117.480 C 181.029 117.304,180.800 116.939,180.800 116.669 C 180.800 116.399,180.485 115.902,180.100 115.564 C 179.715 115.226,178.950 114.348,178.400 113.613 C 177.850 112.877,176.320 111.399,175.000 110.327 C 173.680 109.256,172.369 108.191,172.086 107.961 C 171.804 107.731,170.544 107.004,169.286 106.345 C 168.029 105.686,166.829 104.978,166.620 104.773 C 166.411 104.568,165.961 104.394,165.620 104.386 C 165.279 104.379,164.280 104.025,163.400 103.600 C 162.520 103.175,161.080 102.818,160.200 102.807 C 158.352 102.785,157.965 102.571,157.295 101.200 C 154.832 96.164,153.556 95.600,144.616 95.600 L 137.200 95.600 137.201 90.300 L 137.201 85.000 138.701 83.340 C 142.767 78.837,145.953 75.345,147.400 73.807 C 155.554 65.137,157.200 63.002,157.200 61.099 C 157.200 59.687,155.570 57.191,154.000 56.200 L 152.416 55.200 121.493 55.200 C 86.747 55.200,88.725 55.031,86.587 58.181 C 85.455 59.849,85.257 62.417,86.200 63.200 C 86.530 63.474,86.800 63.907,86.800 64.162 C 86.800 64.417,88.465 66.381,90.500 68.526 C 94.356 72.592,98.782 77.342,100.630 79.400 C 101.223 80.060,102.584 81.550,103.654 82.712 L 105.600 84.824 105.600 90.212 L 105.600 95.600 98.029 95.600 C 91.832 95.600,90.348 95.709,89.857 96.200 C 89.527 96.530,89.076 96.800,88.855 96.800 C 88.379 96.800,85.834 99.891,85.470 100.912 C 85.241 101.553,84.694 101.612,79.908 101.512 L 74.600 101.400 74.484 98.332 C 74.178 90.253,66.981 87.083,63.340 93.423 C 62.103 95.577,61.881 118.797,63.079 120.714 C 64.777 123.430,65.639 123.977,68.238 123.989 C 72.191 124.007,74.005 121.884,74.379 116.800 L 74.600 113.800 79.853 113.689 L 85.105 113.577 85.384 115.814 C 85.554 117.167,85.888 118.136,86.232 118.268 C 86.544 118.387,86.800 118.705,86.800 118.973 C 86.800 119.509,88.456 121.200,88.982 121.200 C 89.163 121.200,89.537 121.508,89.812 121.884 C 90.245 122.477,91.327 122.589,97.956 122.732 L 105.600 122.896 105.600 126.641 C 105.600 130.284,105.574 130.391,104.616 130.632 C 104.075 130.767,103.423 131.131,103.167 131.439 C 102.911 131.748,102.285 132.000,101.775 132.000 C 101.265 132.000,100.747 132.163,100.624 132.362 C 100.501 132.561,99.455 133.265,98.300 133.927 C 97.145 134.589,95.604 135.686,94.875 136.365 C 94.147 137.044,93.427 137.602,93.275 137.605 C 93.124 137.608,92.280 138.453,91.400 139.481 C 90.520 140.510,89.485 141.628,89.100 141.965 C 88.715 142.302,88.400 142.813,88.400 143.101 C 88.400 143.389,88.143 143.724,87.828 143.845 C 87.513 143.965,87.058 144.545,86.815 145.132 C 86.573 145.719,85.851 147.100,85.210 148.200 C 84.570 149.300,84.036 150.516,84.023 150.901 C 84.010 151.287,83.640 152.275,83.200 153.096 C 82.735 153.963,82.400 155.352,82.400 156.414 C 82.400 157.418,82.175 158.465,81.900 158.740 C 81.084 159.556,80.970 377.520,81.784 380.000 C 82.109 380.990,82.476 382.457,82.598 383.260 C 82.721 384.063,83.086 384.940,83.411 385.209 C 83.735 385.478,84.000 385.938,84.000 386.231 C 84.000 387.509,87.750 391.844,90.200 393.399 C 92.701 394.986,94.875 396.000,95.775 396.000 C 96.289 396.000,97.224 396.269,97.854 396.598 C 99.573 397.494,142.517 397.496,144.662 396.600 C 145.451 396.270,146.509 396.000,147.012 396.000 C 148.861 396.000,154.187 392.781,156.400 390.326 C 158.677 387.799,159.200 387.107,159.200 386.615 C 159.200 386.331,159.470 385.874,159.800 385.600 C 160.130 385.326,160.400 384.733,160.400 384.283 C 160.400 383.832,160.715 383.115,161.100 382.689 C 162.189 381.487,162.189 157.149,161.100 155.611 C 160.715 155.067,160.400 154.128,160.400 153.523 C 160.400 152.555,159.450 150.159,158.367 148.400 C 158.164 148.070,157.826 147.404,157.616 146.920 C 155.821 142.778,147.104 134.193,143.870 133.382 C 143.313 133.242,142.761 132.874,142.641 132.564 C 142.522 132.254,142.104 132.003,141.713 132.007 C 141.321 132.011,140.152 131.606,139.116 131.107 L 137.231 130.200 137.216 126.500 L 137.200 122.800 143.300 122.783 C 149.637 122.764,152.871 122.387,153.121 121.638 C 153.201 121.397,153.506 121.200,153.798 121.200 C 154.090 121.200,154.798 120.615,155.370 119.900 C 155.943 119.185,156.614 118.357,156.860 118.059 C 157.106 117.762,157.397 116.727,157.506 115.759 C 157.718 113.879,158.597 113.392,159.600 114.600 C 159.874 114.930,160.498 115.200,160.988 115.200 C 161.477 115.200,162.293 115.560,162.800 116.000 C 163.307 116.440,163.965 116.800,164.261 116.800 C 164.558 116.800,165.128 117.115,165.529 117.500 C 165.930 117.885,167.054 118.901,168.026 119.758 C 170.036 121.529,172.800 125.076,172.800 125.885 C 172.800 126.182,173.052 126.522,173.361 126.640 C 173.669 126.759,174.044 127.509,174.194 128.307 C 174.344 129.106,174.721 130.123,175.033 130.569 C 175.518 131.261,175.603 143.670,175.621 216.189 C 175.632 264.434,175.797 302.121,176.003 303.600 C 176.711 308.690,177.497 312.457,177.945 312.905 C 178.195 313.155,178.400 313.667,178.400 314.043 C 178.400 314.804,180.421 318.924,180.896 319.133 C 181.063 319.207,181.200 319.506,181.200 319.797 C 181.200 320.820,188.386 329.200,189.263 329.200 C 189.421 329.200,190.143 329.741,190.867 330.402 C 191.591 331.063,192.547 331.718,192.991 331.857 C 193.436 331.996,194.229 332.445,194.754 332.855 C 195.279 333.265,195.966 333.600,196.283 333.600 C 196.599 333.600,197.127 333.870,197.457 334.200 C 197.787 334.530,198.454 334.800,198.940 334.800 C 199.425 334.800,200.220 335.078,200.705 335.419 C 201.191 335.759,202.896 336.210,204.494 336.420 C 206.093 336.631,208.345 336.950,209.500 337.130 C 210.655 337.310,212.545 337.310,213.700 337.130 C 214.855 336.950,217.107 336.631,218.706 336.420 C 220.304 336.210,222.009 335.759,222.495 335.419 C 222.980 335.078,223.856 334.800,224.440 334.800 C 225.024 334.800,225.717 334.542,225.979 334.226 C 226.241 333.910,226.983 333.536,227.628 333.394 C 228.272 333.252,228.800 332.983,228.800 332.795 C 228.800 332.607,229.201 332.327,229.692 332.171 C 232.498 331.280,242.000 321.718,242.000 319.785 C 242.000 319.510,242.270 319.182,242.600 319.055 C 242.930 318.929,243.200 318.592,243.200 318.307 C 243.200 318.021,243.560 317.116,244.000 316.296 C 244.440 315.475,244.800 314.464,244.800 314.050 C 244.800 313.637,245.057 313.085,245.371 312.824 C 245.696 312.554,246.061 311.199,246.219 309.675 C 246.372 308.204,246.700 306.747,246.949 306.439 C 247.274 306.034,247.456 294.909,247.600 266.639 C 247.785 230.247,247.851 227.307,248.500 226.120 C 248.885 225.416,249.200 224.544,249.200 224.183 C 249.200 223.822,249.560 223.069,250.000 222.509 C 250.440 221.950,250.800 221.253,250.800 220.961 C 250.800 219.873,257.749 213.385,259.609 212.737 C 260.264 212.509,260.800 212.168,260.800 211.979 C 260.800 211.790,261.475 211.518,262.300 211.373 C 263.125 211.229,264.220 210.847,264.733 210.525 C 265.370 210.124,267.333 209.868,270.933 209.715 C 274.157 209.578,276.619 209.279,277.280 208.945 C 277.874 208.645,279.000 208.400,279.782 208.400 C 280.563 208.400,281.875 208.040,282.696 207.600 C 283.516 207.160,284.401 206.800,284.661 206.800 C 285.106 206.800,288.031 205.370,289.799 204.289 C 293.389 202.092,299.245 196.488,300.026 194.500 C 300.221 194.005,300.547 193.600,300.751 193.600 C 300.955 193.600,301.319 193.105,301.559 192.500 C 301.800 191.895,302.526 190.500,303.172 189.400 C 303.818 188.300,304.359 186.964,304.373 186.431 C 304.388 185.899,304.669 185.165,304.999 184.801 C 305.328 184.437,305.711 183.073,305.848 181.770 C 306.112 179.277,306.439 178.945,309.800 177.759 C 311.177 177.272,316.000 173.159,316.000 172.471 C 316.000 172.310,316.360 171.870,316.800 171.493 C 317.240 171.116,317.600 170.465,317.600 170.047 C 317.600 169.628,317.870 169.182,318.200 169.055 C 318.530 168.929,318.806 168.504,318.814 168.113 C 318.821 167.721,319.175 166.680,319.600 165.800 C 320.203 164.553,320.376 163.314,320.386 160.179 L 320.400 156.158 322.400 155.679 C 323.500 155.416,325.345 155.005,326.500 154.766 C 327.655 154.528,329.110 154.078,329.732 153.766 C 330.355 153.455,331.255 153.199,331.732 153.199 C 332.210 153.198,333.189 152.838,333.910 152.399 C 334.630 151.959,335.564 151.600,335.986 151.600 C 336.408 151.600,336.869 151.412,337.010 151.183 C 337.152 150.954,337.973 150.484,338.834 150.140 C 339.695 149.795,340.400 149.353,340.400 149.157 C 340.400 148.960,340.642 148.800,340.939 148.800 C 341.235 148.800,341.893 148.440,342.400 148.000 C 342.907 147.560,343.449 147.200,343.604 147.200 C 344.080 147.200,350.628 140.676,351.433 139.400 C 352.864 137.132,353.167 136.598,353.583 135.600 C 353.813 135.050,354.205 134.248,354.455 133.818 C 354.881 133.084,355.457 130.887,356.450 126.200 C 356.894 124.104,356.583 118.560,356.001 118.201 C 355.819 118.088,355.544 117.252,355.390 116.342 C 355.151 114.924,354.153 112.670,352.600 110.040 C 352.380 109.668,351.615 108.792,350.900 108.095 C 350.185 107.398,349.598 106.686,349.595 106.513 C 349.592 106.341,348.745 105.480,347.714 104.600 C 346.683 103.720,345.554 102.730,345.206 102.400 C 344.858 102.070,343.769 101.261,342.787 100.601 C 341.804 99.942,340.856 99.177,340.680 98.901 C 340.504 98.626,340.186 98.400,339.972 98.400 C 339.402 98.400,334.804 93.882,334.802 93.320 C 334.801 93.056,334.571 92.696,334.292 92.520 C 334.012 92.344,333.558 91.750,333.282 91.200 C 333.006 90.650,332.069 88.940,331.200 87.400 C 330.331 85.860,329.512 84.330,329.381 84.000 C 329.249 83.670,328.975 83.085,328.771 82.700 C 328.430 82.057,327.965 81.156,327.169 79.600 C 324.492 74.366,322.558 70.695,321.796 69.400 C 321.279 68.520,320.573 67.260,320.228 66.600 C 319.884 65.940,319.247 64.860,318.813 64.200 C 318.379 63.540,317.744 62.505,317.402 61.900 C 317.060 61.295,316.604 60.800,316.390 60.800 C 316.175 60.800,316.000 60.574,316.000 60.297 C 316.000 60.021,315.370 59.216,314.600 58.510 C 313.830 57.803,313.196 57.084,313.191 56.912 C 313.185 56.741,312.465 56.070,311.591 55.423 C 310.716 54.776,310.000 54.101,310.000 53.923 C 310.000 53.745,309.758 53.600,309.461 53.600 C 309.165 53.600,308.507 53.240,308.000 52.800 C 307.493 52.360,306.700 51.994,306.239 51.986 C 305.777 51.978,304.950 51.714,304.400 51.400 C 303.140 50.679,299.323 50.699,298.000 51.433 M307.025 52.994 C 312.976 55.810,317.603 62.015,325.668 78.000 C 333.431 93.385,334.446 94.812,341.609 100.392 C 346.826 104.457,349.015 106.441,350.699 108.631 C 361.487 122.666,354.912 142.232,336.600 150.584 C 332.160 152.609,331.681 152.800,331.053 152.800 C 330.709 152.800,329.836 153.062,329.114 153.382 C 328.391 153.701,326.271 154.256,324.403 154.613 C 319.978 155.460,320.000 155.437,320.000 159.397 C 320.000 167.310,316.176 173.496,308.850 177.434 C 306.017 178.957,305.792 179.175,305.543 180.634 C 305.247 182.367,303.791 186.874,303.187 187.927 C 302.974 188.297,302.613 189.050,302.383 189.600 C 301.525 191.655,299.583 194.519,297.215 197.220 C 290.476 204.907,281.999 208.514,268.625 209.384 C 266.659 209.512,264.516 209.883,263.864 210.208 C 263.211 210.534,262.478 210.800,262.235 210.800 C 260.054 210.800,251.887 217.534,250.349 220.600 C 250.018 221.260,249.556 222.160,249.322 222.600 C 246.851 227.254,246.818 227.835,246.795 267.000 C 246.773 304.400,246.646 307.388,244.843 312.694 C 237.962 332.945,214.669 342.316,195.439 332.570 C 190.150 329.889,183.370 323.508,181.587 319.535 C 181.357 319.021,180.638 317.610,179.991 316.400 C 179.343 315.190,178.810 313.966,178.807 313.680 C 178.803 313.394,178.535 312.647,178.210 312.019 C 176.456 308.628,176.400 305.716,176.397 218.012 C 176.394 137.843,176.302 130.795,175.235 129.414 C 175.060 129.186,174.719 128.414,174.478 127.698 C 173.354 124.354,166.392 116.400,164.590 116.400 C 164.410 116.400,163.979 116.167,163.631 115.881 C 162.633 115.061,158.444 113.498,157.852 113.725 C 157.557 113.838,157.214 114.557,157.090 115.322 C 156.246 120.522,153.323 122.125,144.200 122.390 L 137.000 122.600 136.884 126.340 C 136.753 130.607,136.873 130.859,139.532 131.865 C 149.314 135.565,157.445 144.721,160.514 155.492 L 161.400 158.600 161.508 268.800 L 161.615 379.000 160.731 381.800 C 160.245 383.340,159.649 384.870,159.406 385.200 C 159.164 385.530,158.706 386.317,158.389 386.950 C 156.476 390.761,149.961 395.066,144.767 395.951 C 140.573 396.666,101.289 396.561,97.535 395.825 C 89.714 394.291,84.041 388.366,82.575 380.200 C 81.722 375.443,81.726 164.094,82.580 158.485 C 83.171 154.600,83.861 152.346,85.482 149.000 C 87.475 144.887,88.861 142.933,92.096 139.675 C 95.740 136.004,98.889 133.889,104.100 131.611 L 106.000 130.780 106.000 126.628 L 106.000 122.476 98.700 122.333 C 89.221 122.148,86.670 120.695,85.706 114.931 L 85.383 113.000 80.236 112.888 C 73.979 112.751,73.600 112.947,73.600 116.316 C 73.600 123.883,65.585 126.887,63.582 120.071 C 62.704 117.080,63.253 94.255,64.236 92.929 C 67.741 88.199,73.600 91.469,73.600 98.153 C 73.600 102.297,73.757 102.400,80.067 102.400 L 85.210 102.400 86.584 100.252 C 88.970 96.521,89.772 96.233,98.400 96.000 L 105.800 95.800 105.915 90.600 C 106.058 84.179,106.098 84.322,103.338 81.400 C 84.991 61.976,85.205 62.274,87.061 58.680 C 88.691 55.526,88.565 55.537,122.600 55.678 C 155.617 55.816,154.157 55.674,155.735 58.903 C 157.226 61.955,155.401 65.050,147.415 73.013 C 146.105 74.319,138.995 82.082,137.837 83.471 C 136.789 84.729,136.778 84.803,136.889 90.271 L 137.000 95.800 144.400 96.000 C 153.253 96.239,154.012 96.548,156.599 100.962 C 157.224 102.029,158.041 102.878,158.539 102.978 C 159.013 103.073,159.850 103.240,160.400 103.347 C 163.029 103.862,169.900 106.940,171.763 108.438 C 174.631 110.743,177.600 113.348,177.600 113.558 C 177.600 113.704,178.191 114.448,178.914 115.212 C 180.574 116.966,182.371 119.655,183.183 121.600 C 183.413 122.150,183.774 122.903,183.987 123.273 C 187.237 128.934,187.173 126.999,187.190 220.400 C 187.206 312.959,187.017 307.015,190.153 313.569 C 190.875 315.077,195.703 320.410,197.657 321.856 C 198.697 322.627,202.168 324.400,202.635 324.400 C 202.878 324.400,203.690 324.709,204.439 325.087 C 206.769 326.262,216.228 326.092,219.600 324.815 C 226.867 322.061,231.624 317.357,234.782 309.800 L 235.785 307.400 236.042 268.800 C 236.344 223.263,236.145 225.355,241.088 215.800 C 245.458 207.354,257.334 199.714,267.200 199.003 C 282.558 197.896,290.001 193.229,294.235 182.052 C 295.585 178.489,295.524 178.199,293.100 176.634 C 287.032 172.717,283.600 166.499,283.600 159.422 C 283.600 155.458,283.985 155.807,278.308 154.617 C 275.828 154.097,273.170 153.451,272.400 153.181 C 270.400 152.481,267.104 151.165,266.400 150.786 C 266.070 150.608,264.720 149.891,263.400 149.191 C 257.018 145.810,248.400 136.487,248.400 132.965 C 248.400 132.722,248.124 131.970,247.787 131.294 C 246.979 129.675,246.584 121.805,247.143 118.463 C 248.162 112.373,252.394 106.784,260.706 100.553 C 267.860 95.190,268.365 94.501,275.633 80.200 C 277.198 77.120,279.173 73.340,280.021 71.800 C 280.870 70.260,281.847 68.460,282.193 67.800 C 286.282 59.995,292.559 53.601,297.549 52.156 C 300.265 51.370,304.357 51.732,307.025 52.994 M300.537 62.407 C 298.629 62.826,292.400 69.369,292.400 70.954 C 292.400 71.055,291.540 72.636,290.489 74.468 C 289.438 76.301,287.353 80.230,285.855 83.200 C 279.294 96.205,276.818 100.340,273.731 103.440 C 272.124 105.054,266.216 109.759,264.720 110.615 C 256.652 115.235,254.865 125.716,260.781 133.720 C 264.475 138.717,271.489 142.438,281.302 144.608 C 284.851 145.393,285.131 145.288,286.466 142.671 C 289.800 136.136,301.196 131.419,306.638 134.322 C 307.057 134.546,308.390 135.205,309.600 135.788 C 312.716 137.287,316.643 141.214,317.394 143.583 C 317.606 144.248,318.960 145.061,319.607 144.910 C 319.721 144.884,321.313 144.558,323.146 144.187 C 324.979 143.815,326.956 143.263,327.540 142.958 C 328.123 142.654,328.820 142.404,329.090 142.402 C 330.987 142.393,338.636 137.454,340.962 134.736 C 348.128 126.364,346.555 117.011,336.790 109.916 C 335.805 109.200,334.460 108.118,333.800 107.509 C 333.140 106.901,332.438 106.403,332.239 106.402 C 331.510 106.398,325.985 100.363,324.712 98.180 C 323.990 96.942,323.099 95.450,322.731 94.865 C 322.362 94.279,320.499 90.740,318.590 87.000 C 316.682 83.260,314.334 78.760,313.373 77.000 C 312.412 75.240,311.461 73.440,311.259 73.000 C 308.516 67.026,303.239 61.813,300.537 62.407 M304.756 64.756 C 305.660 65.660,306.400 66.552,306.400 66.738 C 306.400 66.924,306.760 67.402,307.200 67.800 C 307.640 68.198,308.000 68.757,308.000 69.042 C 308.000 69.327,308.243 69.704,308.540 69.880 C 309.094 70.209,310.019 71.756,310.823 73.700 C 311.073 74.305,311.427 74.800,311.608 74.800 C 311.790 74.800,312.146 75.430,312.400 76.200 C 312.654 76.970,313.028 77.600,313.231 77.600 C 313.434 77.600,313.600 77.936,313.600 78.346 C 313.600 78.756,313.933 79.521,314.339 80.046 C 314.745 80.571,315.199 81.495,315.347 82.100 C 315.494 82.705,315.778 83.200,315.976 83.200 C 316.174 83.200,316.452 83.728,316.594 84.372 C 316.736 85.017,317.098 85.750,317.400 86.000 C 317.702 86.250,318.067 86.995,318.212 87.655 C 318.357 88.314,318.728 88.951,319.038 89.070 C 319.347 89.188,319.600 89.706,319.600 90.219 C 319.600 90.733,319.798 91.275,320.041 91.425 C 320.283 91.575,320.741 92.261,321.057 92.949 C 321.374 93.637,322.066 94.920,322.596 95.800 C 323.125 96.680,323.744 97.805,323.970 98.300 C 324.195 98.795,324.565 99.200,324.790 99.200 C 325.016 99.200,325.200 99.397,325.200 99.638 C 325.200 100.311,328.833 104.551,330.339 105.636 C 331.075 106.166,331.970 106.915,332.328 107.300 C 332.685 107.685,333.168 108.000,333.400 108.000 C 333.632 108.000,334.120 108.315,334.483 108.700 C 335.188 109.447,335.331 109.562,337.800 111.373 C 339.735 112.792,341.637 114.809,343.221 117.120 C 344.772 119.384,345.015 127.263,343.600 129.400 C 343.163 130.060,342.804 130.915,342.803 131.300 C 342.801 131.685,342.638 132.000,342.440 132.000 C 342.241 132.000,341.722 132.606,341.285 133.346 C 339.975 135.565,332.802 140.800,331.070 140.800 C 330.755 140.800,330.274 141.070,330.000 141.400 C 329.726 141.730,329.116 142.000,328.645 142.000 C 328.174 142.000,327.161 142.333,326.394 142.739 C 323.910 144.057,317.600 144.236,317.600 142.989 C 317.600 142.340,314.573 138.468,313.236 137.407 C 311.385 135.938,309.568 134.800,309.071 134.800 C 308.800 134.800,308.133 134.485,307.589 134.100 C 306.773 133.522,305.716 133.400,301.542 133.400 C 297.286 133.400,296.361 133.511,295.710 134.100 C 295.285 134.485,294.660 134.800,294.322 134.800 C 293.984 134.800,293.250 135.160,292.691 135.600 C 292.131 136.040,291.547 136.400,291.393 136.400 C 290.899 136.400,286.447 141.223,286.188 142.039 C 285.751 143.415,284.165 144.724,283.432 144.314 C 283.074 144.113,281.570 143.798,280.090 143.614 C 278.611 143.430,276.500 142.962,275.400 142.575 C 274.300 142.187,273.220 141.811,273.000 141.738 C 272.780 141.665,272.330 141.451,272.000 141.262 C 271.670 141.073,270.500 140.487,269.400 139.959 C 266.572 138.603,260.800 133.896,260.800 132.946 C 260.800 132.825,260.440 132.269,260.000 131.709 C 259.560 131.150,259.200 130.416,259.200 130.078 C 259.200 129.740,258.917 129.150,258.570 128.767 C 257.678 127.781,257.620 119.495,258.498 118.487 C 258.827 118.109,259.164 117.620,259.248 117.400 C 259.697 116.220,261.502 114.038,262.951 112.923 C 264.688 111.588,266.969 109.655,268.034 108.617 C 268.382 108.278,268.807 108.000,268.978 108.000 C 269.807 108.000,276.800 101.460,276.800 100.685 C 276.800 100.368,278.384 97.978,278.844 97.600 C 279.184 97.321,281.907 92.415,282.397 91.200 C 282.618 90.650,282.972 89.930,283.183 89.600 C 283.394 89.270,284.486 87.158,285.611 84.907 C 286.735 82.655,287.823 80.710,288.027 80.583 C 288.232 80.456,288.400 80.025,288.400 79.625 C 288.400 79.225,288.658 78.683,288.974 78.421 C 289.290 78.159,289.664 77.417,289.806 76.772 C 289.948 76.128,290.212 75.600,290.393 75.600 C 290.574 75.600,290.930 75.105,291.184 74.500 C 291.977 72.612,294.116 69.095,295.095 68.071 C 295.373 67.781,295.600 67.420,295.600 67.271 C 295.600 66.855,298.939 63.361,299.610 63.075 C 301.075 62.449,303.115 63.115,304.756 64.756 M104.942 67.006 C 104.788 67.409,105.797 68.819,107.882 71.110 C 109.629 73.030,111.482 75.095,112.001 75.700 L 112.944 76.800 121.223 76.800 L 129.501 76.800 133.650 72.346 C 135.933 69.896,137.800 67.601,137.800 67.246 C 137.800 66.283,105.311 66.046,104.942 67.006 M137.567 67.379 C 137.475 67.477,135.522 69.547,133.226 71.979 L 129.052 76.400 121.305 76.400 L 113.559 76.400 111.480 74.135 C 110.336 72.889,108.455 70.905,107.300 69.726 C 106.145 68.547,105.200 67.496,105.200 67.391 C 105.200 67.286,112.520 67.200,121.467 67.200 C 130.413 67.200,137.658 67.281,137.567 67.379 M116.885 87.532 C 116.508 87.776,116.400 88.932,116.485 91.833 L 116.600 95.800 121.400 95.800 L 126.200 95.800 126.200 91.600 L 126.200 87.400 121.800 87.299 C 119.380 87.244,117.168 87.348,116.885 87.532 M126.000 91.600 L 126.000 95.600 121.400 95.600 L 116.800 95.600 116.800 91.867 C 116.800 87.293,116.449 87.600,121.667 87.600 L 126.000 87.600 126.000 91.600 M96.267 106.667 C 95.761 107.172,95.984 111.089,96.545 111.554 C 96.940 111.882,103.893 111.978,121.845 111.903 L 146.600 111.800 146.718 109.100 L 146.837 106.400 121.685 106.400 C 107.852 106.400,96.413 106.520,96.267 106.667 M146.400 109.203 L 146.400 111.606 121.500 111.503 L 96.600 111.400 96.480 109.100 L 96.360 106.800 121.380 106.800 L 146.400 106.800 146.400 109.203 M116.568 122.940 C 116.454 123.237,116.415 124.722,116.480 126.240 L 116.600 129.000 121.500 129.112 L 126.400 129.225 126.400 125.812 L 126.400 122.400 121.587 122.400 C 117.918 122.400,116.726 122.528,116.568 122.940 M126.000 125.800 L 126.000 128.800 121.400 128.800 L 116.800 128.800 116.800 125.800 L 116.800 122.800 121.400 122.800 L 126.000 122.800 126.000 125.800 M112.600 140.002 C 106.352 141.335,101.806 143.891,98.559 147.897 C 97.711 148.944,96.788 150.038,96.508 150.329 C 96.229 150.619,96.000 151.055,96.000 151.297 C 96.000 151.539,95.759 152.021,95.464 152.369 C 92.285 156.113,92.342 153.817,92.483 272.600 C 92.620 389.140,92.401 380.306,95.232 383.138 C 97.952 385.858,97.378 385.800,121.600 385.800 L 143.400 385.800 145.331 384.849 C 150.487 382.311,151.191 380.305,151.196 368.133 C 151.198 362.816,151.091 358.181,150.957 357.833 C 150.741 357.269,148.781 357.200,132.965 357.200 C 113.572 357.200,113.070 357.146,111.400 354.884 C 110.312 353.410,109.914 231.701,110.990 229.619 C 112.485 226.729,111.817 226.820,132.456 226.704 L 151.000 226.600 151.116 194.400 C 151.246 158.234,151.323 159.369,148.334 153.332 C 145.416 147.436,140.248 143.184,133.000 140.714 C 130.348 139.810,115.868 139.305,112.600 140.002 M129.752 140.554 C 130.481 140.859,131.996 141.234,133.119 141.389 C 134.241 141.543,135.371 141.924,135.629 142.235 C 135.887 142.546,136.414 142.800,136.800 142.800 C 137.186 142.800,137.720 143.063,137.987 143.385 C 138.254 143.706,138.861 144.089,139.336 144.235 C 139.811 144.382,140.470 144.755,140.800 145.064 C 141.130 145.374,142.255 146.413,143.300 147.374 C 144.345 148.335,145.200 149.319,145.200 149.560 C 145.200 149.802,145.370 150.000,145.578 150.000 C 145.981 150.000,146.426 150.745,148.372 154.683 C 149.048 156.049,149.600 157.540,149.600 157.996 C 149.600 158.452,149.870 159.472,150.200 160.262 C 150.717 161.498,150.800 166.197,150.800 194.049 L 150.800 226.400 131.994 226.400 L 113.188 226.400 111.694 227.769 L 110.200 229.139 110.200 291.669 C 110.200 353.439,110.210 354.213,110.995 355.245 C 113.118 358.040,112.799 358.000,132.779 358.000 L 150.800 358.000 150.796 367.700 C 150.792 378.973,150.045 381.670,146.392 383.596 C 145.847 383.884,145.272 384.318,145.115 384.560 C 144.720 385.168,98.095 385.184,97.685 384.577 C 97.528 384.344,96.999 383.880,96.508 383.545 C 96.018 383.210,95.118 382.231,94.508 381.368 L 93.400 379.800 93.400 268.800 C 93.400 166.269,93.450 157.724,94.061 156.800 C 94.424 156.250,94.843 155.215,94.993 154.500 C 95.142 153.785,95.412 153.200,95.593 153.200 C 95.774 153.200,96.109 152.664,96.337 152.009 C 96.818 150.629,96.989 150.409,100.214 147.035 C 101.542 145.645,103.011 144.387,103.478 144.239 C 103.945 144.090,104.546 143.706,104.813 143.385 C 105.080 143.063,105.614 142.800,106.000 142.800 C 106.386 142.800,106.910 142.550,107.164 142.243 C 107.418 141.937,108.438 141.565,109.431 141.416 C 110.424 141.267,111.903 140.900,112.718 140.601 C 114.833 139.824,127.918 139.788,129.752 140.554 M298.994 144.838 C 293.286 147.838,291.891 159.816,296.520 166.077 C 296.977 166.695,297.527 167.200,297.744 167.200 C 297.960 167.200,298.464 167.496,298.863 167.857 C 300.611 169.439,305.248 168.382,307.129 165.974 C 310.824 161.244,310.712 151.122,306.914 146.538 C 305.911 145.326,303.238 144.000,301.800 144.000 C 301.133 144.000,299.871 144.377,298.994 144.838 M303.600 145.000 C 303.874 145.330,304.355 145.600,304.669 145.600 C 305.398 145.600,307.995 148.406,308.001 149.200 C 308.003 149.530,308.274 150.316,308.602 150.946 C 309.272 152.229,309.475 160.983,308.844 161.373 C 308.649 161.494,308.367 162.089,308.219 162.696 C 307.863 164.153,306.028 166.800,305.374 166.800 C 305.090 166.800,304.557 167.100,304.190 167.467 C 303.775 167.883,302.876 168.133,301.800 168.133 C 300.724 168.133,299.825 167.883,299.410 167.467 C 299.043 167.100,298.510 166.800,298.226 166.800 C 297.608 166.800,295.600 164.012,295.600 163.155 C 295.600 162.824,295.336 162.204,295.013 161.776 C 294.575 161.198,294.425 159.825,294.425 156.400 C 294.425 152.975,294.575 151.602,295.013 151.024 C 295.336 150.596,295.600 149.976,295.600 149.645 C 295.600 148.636,297.661 146.000,298.643 145.753 C 299.151 145.626,299.777 145.269,300.033 144.961 C 300.649 144.218,302.972 144.243,303.600 145.000 M121.071 237.462 C 120.546 237.987,120.753 345.793,121.280 346.320 C 122.023 347.063,150.134 347.003,150.752 346.257 C 151.083 345.860,151.176 331.249,151.101 291.557 L 151.000 237.400 136.171 237.295 C 128.016 237.238,121.221 237.313,121.071 237.462 M150.701 291.700 L 150.600 345.800 136.000 345.800 L 121.400 345.800 121.299 291.700 L 121.197 237.600 136.000 237.600 L 150.803 237.600 150.701 291.700 " stroke="none" fill="#a0a1a1" fill-rule="evenodd"></path></g></svg>