<?xml version="1.0" encoding="UTF-8"?>
<!DOCTYPE svg PUBLIC "-//W3C//DTD SVG 1.1//EN" "http://www.w3.org/Graphics/SVG/1.1/DTD/svg11.dtd">
<svg xmlns="http://www.w3.org/2000/svg" version="1.1" width="512px" height="512px" style="shape-rendering:geometricPrecision; text-rendering:geometricPrecision; image-rendering:optimizeQuality; fill-rule:evenodd; clip-rule:evenodd" xmlns:xlink="http://www.w3.org/1999/xlink">
<g><path style="opacity:0.939" fill="#000000" d="M -0.5,494.5 C -0.5,429.167 -0.5,363.833 -0.5,298.5C 2.25855,288.895 7.92521,281.395 16.5,276C 34.3948,270.026 52.3948,264.359 70.5,259C 71.4162,258.626 72.2496,258.126 73,257.5C 75.7097,253.247 78.543,249.08 81.5,245C 83.3453,243.872 85.3453,243.372 87.5,243.5C 87.6653,239.818 87.4986,236.152 87,232.5C 66.779,216.403 55.1123,195.403 52,169.5C 37.7956,162.759 32.4623,151.759 36,136.5C 37.5127,132.319 39.846,128.652 43,125.5C 43.3333,108.167 43.6667,90.8333 44,73.5C 50.1757,39.3243 70.3424,19.1576 104.5,13C 133.5,12.3333 162.5,12.3333 191.5,13C 204.796,16.2949 213.63,24.4616 218,37.5C 227.521,44.5362 233.521,53.8696 236,65.5C 236.333,85.5 236.667,105.5 237,125.5C 244.262,132.288 246.929,140.621 245,150.5C 242.794,159.9 237.128,166.233 228,169.5C 225.312,195.629 213.646,216.629 193,232.5C 192.501,236.152 192.335,239.818 192.5,243.5C 194.199,243.34 195.866,243.506 197.5,244C 201.511,249.039 205.511,254.039 209.5,259C 228.446,264.205 247.113,270.205 265.5,277C 275.212,283.75 280.546,293.083 281.5,305C 280.424,313.036 276.091,315.702 268.5,313C 267.299,312.097 266.465,310.931 266,309.5C 265.545,302.761 263.045,296.928 258.5,292C 245.563,286.91 232.396,282.41 219,278.5C 218.529,280.246 217.862,281.913 217,283.5C 207.619,294.545 198.619,305.879 190,317.5C 184.012,325.83 176.178,328.33 166.5,325C 160.403,321.201 154.569,317.035 149,312.5C 148.667,372.167 148.333,431.833 148,491.5C 146.535,497.653 142.702,499.82 136.5,498C 135.333,496.833 134.167,495.667 133,494.5C 132.667,433.5 132.333,372.5 132,311.5C 126.114,316.387 119.947,320.887 113.5,325C 104.405,328.301 96.9049,326.134 91,318.5C 82.0466,306.545 72.7133,294.878 63,283.5C 62.1376,281.913 61.4709,280.246 61,278.5C 48.3799,282.262 35.8799,286.429 23.5,291C 20.2379,293.592 17.7379,296.759 16,300.5C 14.688,365.136 14.0213,429.802 14,494.5C 9.16873,499.786 4.33539,499.786 -0.5,494.5 Z M 105.5,28.5 C 133.169,28.3334 160.835,28.5 188.5,29C 197.527,31.8636 202.693,38.0302 204,47.5C 211.713,52.2557 217.046,58.9224 220,67.5C 220.333,88.5 220.667,109.5 221,130.5C 223.251,134.425 225.917,138.092 229,141.5C 229.793,150.379 225.627,154.879 216.5,155C 215.5,155.833 214.5,156.667 213.5,157.5C 211.987,193.408 194.654,217.908 161.5,231C 129.333,238.944 102.833,230.111 82,204.5C 72.9299,191.288 68.2632,176.621 68,160.5C 67.3333,159.167 66.6667,157.833 66,156.5C 62.7091,154.8 59.2091,153.633 55.5,153C 48.9544,147.295 48.9544,141.628 55.5,136C 62.4211,134.781 69.4211,134.114 76.5,134C 79.7833,132.439 82.6166,130.273 85,127.5C 88.3279,116.362 90.8279,105.029 92.5,93.5C 127.516,102.262 162.182,101.095 196.5,90C 202.157,86.0415 202.823,81.3749 198.5,76C 196.966,75.077 195.299,74.577 193.5,74.5C 162.165,84.7594 130.498,85.9261 98.5,78C 89.2753,76.1977 82.4419,79.3644 78,87.5C 75.5121,97.7733 73.3454,108.107 71.5,118.5C 67.5,118.5 63.5,118.5 59.5,118.5C 59.3334,103.83 59.5001,89.1629 60,74.5C 65.347,49.3202 80.5137,33.9868 105.5,28.5 Z M 103.5,242.5 C 127.508,253.073 151.508,253.073 175.5,242.5C 176.66,246.459 176.827,250.459 176,254.5C 164.259,264.619 152.426,274.619 140.5,284.5C 128.188,274.689 116.021,264.689 104,254.5C 103.501,250.514 103.334,246.514 103.5,242.5 Z M 88.5,263.5 C 101.293,273.788 113.96,284.288 126.5,295C 119.976,300.358 113.31,305.525 106.5,310.5C 97.1518,299.815 88.1518,288.815 79.5,277.5C 82.5106,272.805 85.5106,268.138 88.5,263.5 Z M 190.5,263.5 C 194.129,266.982 197.296,270.982 200,275.5C 200.667,276.5 200.667,277.5 200,278.5C 191.333,289.167 182.667,299.833 174,310.5C 166.898,305.698 160.064,300.531 153.5,295C 166.025,284.635 178.358,274.135 190.5,263.5 Z"/></g>
<g><path style="opacity:0.932" fill="#000000" d="M 511.5,358.5 C 511.5,377.167 511.5,395.833 511.5,414.5C 509.723,417.389 507.056,418.722 503.5,418.5C 503.667,442.836 503.5,467.169 503,491.5C 501.535,497.653 497.702,499.82 491.5,498C 490.333,496.833 489.167,495.667 488,494.5C 487.5,469.169 487.333,443.836 487.5,418.5C 480.833,418.5 474.167,418.5 467.5,418.5C 467.667,443.836 467.5,469.169 467,494.5C 463.58,498.753 459.413,499.587 454.5,497C 453.107,495.829 452.273,494.329 452,492.5C 451.333,458.5 451.333,424.5 452,390.5C 454.435,385.776 458.269,384.276 463.5,386C 464.667,387.167 465.833,388.333 467,389.5C 467.499,393.821 467.666,398.154 467.5,402.5C 477.167,402.5 486.833,402.5 496.5,402.5C 496.906,388.782 496.406,375.115 495,361.5C 493.311,356.475 490.144,352.641 485.5,350C 470.42,344.196 455.42,338.196 440.5,332C 439.167,331.333 437.833,331.333 436.5,332C 423.031,355.14 404.197,372.306 380,383.5C 370.312,379.741 361.478,374.575 353.5,368C 340.743,357.256 330.243,344.756 322,330.5C 307.011,337.053 291.844,343.22 276.5,349C 269.893,351.705 265.726,356.539 264,363.5C 263.5,376.496 263.333,389.496 263.5,402.5C 272.833,402.5 282.167,402.5 291.5,402.5C 291.335,399.15 291.502,395.817 292,392.5C 293.414,386.37 297.247,384.204 303.5,386C 305.333,386.5 306.5,387.667 307,389.5C 307.667,424.5 307.667,459.5 307,494.5C 303.295,498.982 298.962,499.649 294,496.5C 293.138,494.913 292.471,493.246 292,491.5C 291.5,467.169 291.333,442.836 291.5,418.5C 285.167,418.5 278.833,418.5 272.5,418.5C 272.667,443.169 272.5,467.836 272,492.5C 270.02,497.906 266.186,499.739 260.5,498C 259.333,496.833 258.167,495.667 257,494.5C 256.5,469.169 256.333,443.836 256.5,418.5C 252.317,419.154 249.484,417.488 248,413.5C 247.333,395.833 247.333,378.167 248,360.5C 250.857,346.641 259.023,337.474 272.5,333C 293.294,325.073 313.794,316.573 334,307.5C 334.862,305.913 335.529,304.246 336,302.5C 336.667,296.167 336.667,289.833 336,283.5C 310.089,267.382 295.256,244.049 291.5,213.5C 283.012,210.181 277.512,204.181 275,195.5C 274.333,176.833 274.333,158.167 275,139.5C 280.434,105.428 297.768,79.4279 327,61.5C 328.53,33.2979 343.363,17.1312 371.5,13C 396.663,10.0006 415.83,19.1673 429,40.5C 431.504,47.3616 432.504,54.3616 432,61.5C 474.55,88.9853 491.383,127.652 482.5,177.5C 477.494,180.111 473.327,179.111 470,174.5C 472.954,145.636 465.954,119.636 449,96.5C 419.776,65.1525 384.943,56.6525 344.5,71C 306.267,90.2796 288.267,121.446 290.5,164.5C 304.372,164.811 315.872,159.811 325,149.5C 330.202,142.93 335.035,136.097 339.5,129C 341.137,128.399 342.803,127.899 344.5,127.5C 353.357,133.096 362.69,137.93 372.5,142C 394.602,147.287 416.602,152.954 438.5,159C 455.152,165.995 464.652,178.495 467,196.5C 469.613,233.606 455.446,262.273 424.5,282.5C 423.335,289.811 423.169,297.144 424,304.5C 425.563,307.728 428.063,309.895 431.5,311C 452.994,319.276 474.327,327.942 495.5,337C 503.785,342.099 509.118,349.265 511.5,358.5 Z M 372.5,28.5 C 388.984,26.7089 402.484,32.0422 413,44.5C 414.43,47.3527 415.263,50.3527 415.5,53.5C 396.773,47.7448 377.773,46.5782 358.5,50C 353.475,50.9632 348.642,52.4632 344,54.5C 344.733,46.8775 348.233,40.7109 354.5,36C 360.24,32.6227 366.24,30.1227 372.5,28.5 Z M 346.5,147.5 C 354.757,152.126 363.424,155.959 372.5,159C 392.666,163.366 412.666,168.366 432.5,174C 446.192,180.874 452.526,192.041 451.5,207.5C 449.408,240.083 433.242,262.416 403,274.5C 367.166,284.336 338.832,274.003 318,243.5C 311.058,230.735 307.392,217.069 307,202.5C 306.167,201.667 305.333,200.833 304.5,200C 299.678,199.514 295.511,197.681 292,194.5C 289.033,188.226 290.533,183.392 296.5,180C 318.602,177.454 335.268,166.62 346.5,147.5 Z M 352.5,290.5 C 370.828,295.833 389.162,295.833 407.5,290.5C 406.377,299.685 407.877,308.352 412,316.5C 414.397,319.4 417.23,321.733 420.5,323.5C 421.583,324.365 421.749,325.365 421,326.5C 410.517,343.153 396.683,356.153 379.5,365.5C 362.431,355.266 348.431,341.766 337.5,325C 349.941,316.934 354.941,305.434 352.5,290.5 Z"/></g>
<g><path style="opacity:0.888" fill="#000000" d="M 102.5,136.5 C 106.888,135.943 110.055,137.61 112,141.5C 112.667,146.5 112.667,151.5 112,156.5C 108.914,161.752 104.747,162.752 99.5,159.5C 98.4164,158.335 97.5831,157.002 97,155.5C 96.3333,151.167 96.3333,146.833 97,142.5C 98.0209,139.65 99.8542,137.65 102.5,136.5 Z"/></g>
<g><path style="opacity:0.888" fill="#000000" d="M 173.5,136.5 C 177.888,135.943 181.055,137.61 183,141.5C 183.667,146.5 183.667,151.5 183,156.5C 179.914,161.752 175.747,162.752 170.5,159.5C 169.416,158.335 168.583,157.002 168,155.5C 167.333,151.167 167.333,146.833 168,142.5C 169.021,139.65 170.854,137.65 173.5,136.5 Z"/></g>
<g><path style="opacity:0.91" fill="#000000" d="M 122.5,180.5 C 126.539,182.358 130.205,184.858 133.5,188C 138.686,190.226 143.686,189.893 148.5,187C 152.731,180.571 157.898,179.404 164,183.5C 166.891,189.897 165.391,195.064 159.5,199C 146.528,207.623 133.528,207.623 120.5,199C 111.908,191.342 112.575,185.175 122.5,180.5 Z"/></g>
<g><path style="opacity:0.893" fill="#000000" d="M 343.5,180.5 C 350.627,181.787 353.627,186.12 352.5,193.5C 353.483,202.686 349.483,206.519 340.5,205C 337.007,202.036 335.674,198.203 336.5,193.5C 334.997,186.825 337.33,182.491 343.5,180.5 Z"/></g>
<g><path style="opacity:0.893" fill="#000000" d="M 414.5,180.5 C 421.627,181.787 424.627,186.12 423.5,193.5C 424.483,202.686 420.483,206.519 411.5,205C 408.007,202.036 406.674,198.203 407.5,193.5C 405.997,186.825 408.33,182.491 414.5,180.5 Z"/></g>
<g><path style="opacity:0.91" fill="#000000" d="M 358.5,225.5 C 364.289,225.095 368.956,227.261 372.5,232C 378.015,235.395 383.348,235.062 388.5,231C 394.018,223.979 399.518,223.812 405,230.5C 406.064,235.878 404.231,240.044 399.5,243C 383.16,253.862 368.327,252.029 355,237.5C 353.593,232.599 354.76,228.599 358.5,225.5 Z"/></g>
<g><path style="opacity:0.931" fill="#000000" d="M 38.5,305.5 C 42.6034,304.769 46.1034,305.769 49,308.5C 55.6055,321.377 61.9388,334.377 68,347.5C 68.6667,395.833 68.6667,444.167 68,492.5C 65.983,497.924 62.1497,499.758 56.5,498C 55.3333,496.833 54.1667,495.667 53,494.5C 52.6667,446.5 52.3333,398.5 52,350.5C 46.0611,338.956 40.3944,327.289 35,315.5C 34.1822,311.469 35.3489,308.136 38.5,305.5 Z"/></g>
<g><path style="opacity:0.976" fill="#000000" d="M 234.5,305.5 C 242.656,304.821 246.156,308.488 245,316.5C 239.333,327.833 233.667,339.167 228,350.5C 227.667,398.5 227.333,446.5 227,494.5C 222.333,499.833 217.667,499.833 213,494.5C 212.333,444.5 212.333,394.5 213,344.5C 219,332.5 225,320.5 231,308.5C 232.145,307.364 233.312,306.364 234.5,305.5 Z"/></g>
<g><path style="opacity:0.852" fill="#000000" d="M 110.5,367.5 C 120,367.17 123.167,371.503 120,380.5C 114.115,385.028 109.449,384.028 106,377.5C 105.077,373.017 106.577,369.683 110.5,367.5 Z"/></g>
<g><path style="opacity:0.857" fill="#000000" d="M 112.5,402.5 C 119.526,403.556 122.359,407.556 121,414.5C 118.045,418.277 114.212,419.443 109.5,418C 103.651,411.413 104.651,406.246 112.5,402.5 Z"/></g>
<g><path style="opacity:0.852" fill="#000000" d="M 110.5,438.5 C 120,438.17 123.167,442.503 120,451.5C 114.115,456.028 109.449,455.028 106,448.5C 105.077,444.017 106.577,440.683 110.5,438.5 Z"/></g>
</svg>
