<svg width="55" height="145" viewBox="0 0 55 145" fill="none" xmlns="http://www.w3.org/2000/svg">
<path d="M0 30.2083L0 130.5C0 138.475 5.30357 145 11.7857 145H43.2143C49.6964 145 55 138.475 55 130.5L55 30.2083C55 22.2333 49.6964 15.7083 43.2143 15.7083H11.7857C5.30357 15.7083 0 22.2333 0 30.2083ZM43.2143 24.1667C45.9152 24.1667 48.125 26.8854 48.125 30.2083L48.125 130.5C48.125 133.823 45.9152 136.542 43.2143 136.542H11.7857C9.08482 136.542 6.875 133.823 6.875 130.5L6.875 30.2083C6.875 26.8854 9.08482 24.1667 11.7857 24.1667H43.2143ZM14.8795 9.66666H40.1205C40.1205 4.83333 33.3192 -4.76837e-06 27.5 -4.76837e-06C21.6808 -4.76837e-06 14.8795 4.83333 14.8795 9.66666V9.66666Z" fill="#32D74B"/>
<path d="M11.7852 33.8333L11.7852 126.875C11.7852 128.869 13.111 130.5 14.7316 130.5H40.2673C41.8878 130.5 43.2137 128.869 43.2137 126.875V33.8333C43.2137 31.8396 41.8878 30.2083 40.2673 30.2083H14.7316C13.111 30.2083 11.7852 31.8396 11.7852 33.8333Z" fill="#32D74B"/>
</svg>
