<?xml version="1.0" standalone="no"?>
<!DOCTYPE svg PUBLIC "-//W3C//DTD SVG 20010904//EN"
 "http://www.w3.org/TR/2001/REC-SVG-20010904/DTD/svg10.dtd">
<svg version="1.0" xmlns="http://www.w3.org/2000/svg"
 width="512.000000px" height="512.000000px" viewBox="0 0 512.000000 512.000000"
 preserveAspectRatio="xMidYMid meet">

<g transform="translate(0.000000,512.000000) scale(0.100000,-0.100000)"
fill="#000000" stroke="none">
<path d="M2393 4945 c-204 -37 -385 -135 -529 -288 -102 -108 -173 -227 -213
-359 -57 -185 -122 -379 -207 -613 -46 -126 -84 -240 -84 -253 0 -12 11 -34
25 -47 22 -23 32 -25 120 -25 l95 0 0 -216 c0 -257 5 -279 75 -349 61 -62 101
-75 229 -75 l96 0 0 -66 c0 -70 -9 -98 -40 -114 -10 -6 -198 -52 -417 -104
-219 -52 -423 -104 -453 -116 -166 -66 -300 -194 -381 -365 -69 -148 -69 -142
-69 -1015 l0 -780 80 0 80 0 0 778 c0 856 -1 842 63 971 42 88 149 195 239
240 52 26 158 55 485 132 465 110 485 118 538 203 29 48 30 53 33 197 4 147 4
148 -22 174 -25 25 -28 25 -176 25 -147 0 -152 1 -175 25 -21 20 -25 34 -25
80 l0 55 280 0 280 0 0 -660 0 -659 -79 -60 -79 -60 -4 88 c-7 141 -63 232
-177 285 -71 32 -179 29 -254 -7 -50 -25 -81 -56 -250 -249 -218 -249 -264
-311 -302 -406 -51 -127 -55 -176 -55 -658 l0 -445 25 -24 24 -25 283 0 c310
0 369 8 462 58 65 35 153 123 188 188 47 87 58 158 58 385 l0 206 200 133 200
133 200 -133 200 -133 0 -206 c0 -227 11 -298 58 -385 35 -65 123 -153 188
-188 93 -50 152 -58 462 -58 l283 0 24 25 25 24 0 445 c0 481 -4 533 -54 657
-40 98 -83 155 -298 401 -173 198 -206 230 -256 255 -74 36 -182 39 -253 7
-114 -53 -170 -144 -177 -285 l-4 -88 -79 60 -78 60 -3 907 -3 908 -37 76
c-45 91 -103 147 -196 191 l-67 32 -412 3 -411 3 53 162 c29 89 63 196 75 237
75 256 290 461 560 536 90 25 309 26 400 1 334 -92 575 -384 597 -723 13 -194
-35 -349 -165 -542 -193 -286 -236 -435 -230 -788 l3 -191 30 -49 c53 -85 74
-93 530 -200 483 -113 519 -127 629 -238 47 -47 82 -93 103 -137 64 -129 63
-115 63 -971 l0 -778 80 0 81 0 -3 813 -3 812 -24 70 c-76 226 -221 386 -421
465 -30 12 -234 64 -453 116 -219 52 -407 99 -418 104 -34 19 -39 46 -39 222
0 274 40 418 166 601 185 268 228 389 228 637 0 160 -12 227 -65 359 -70 177
-224 358 -388 459 -196 120 -445 168 -668 127z m81 -1277 c55 -16 138 -99 154
-154 9 -31 12 -266 12 -952 0 -852 1 -911 18 -930 9 -11 81 -68 160 -126 l142
-107 0 -104 0 -105 -187 125 c-116 77 -198 125 -213 125 -15 0 -97 -48 -213
-125 l-187 -125 0 105 0 105 155 116 c92 69 157 125 160 138 3 11 4 341 3 732
l-3 711 -29 37 c-48 64 -60 66 -391 66 l-295 0 0 135 c0 131 -1 137 -25 160
-21 22 -33 25 -100 25 -41 0 -75 3 -75 8 0 4 12 40 26 80 l27 72 410 0 c292 0
421 -3 451 -12z m-546 -1848 c67 -41 72 -61 72 -291 l0 -206 -35 -19 -35 -19
-145 73 c-80 39 -147 72 -148 72 -6 0 -71 -140 -66 -144 2 -2 46 -25 97 -50
50 -25 92 -48 92 -50 0 -2 -23 -18 -50 -35 -48 -30 -55 -31 -160 -31 l-110 0
0 -80 0 -80 65 0 c36 0 65 -3 65 -8 0 -4 -29 -107 -63 -229 l-64 -221 73 -21
c40 -12 74 -21 77 -21 3 0 15 38 28 85 13 47 26 85 29 85 3 0 32 -27 65 -60
33 -33 64 -60 69 -60 14 0 106 91 106 104 0 6 -43 54 -96 107 l-95 96 24 84
24 84 127 78 127 77 -3 -292 c-3 -275 -4 -296 -24 -339 -31 -67 -87 -124 -152
-156 -57 -28 -57 -28 -300 -31 l-243 -3 3 418 3 418 26 66 c14 37 37 86 52
110 36 61 401 475 434 493 39 21 92 19 131 -4z m1392 5 c35 -18 399 -430 437
-494 15 -24 38 -73 52 -110 l26 -66 3 -418 3 -418 -243 3 c-224 3 -247 5 -290
25 -66 30 -132 95 -159 156 -23 50 -24 62 -27 345 l-3 292 127 -77 127 -78 24
-84 24 -84 -98 -99 -98 -98 58 -57 57 -58 65 65 c35 35 66 62 68 59 2 -2 14
-41 27 -86 12 -46 25 -83 27 -83 3 0 37 9 77 21 l73 21 -64 221 c-34 122 -63
225 -63 229 0 5 29 8 65 8 l65 0 0 80 0 80 -110 0 c-105 0 -112 1 -160 31 -27
17 -50 33 -50 35 0 2 42 25 93 50 50 25 94 48 96 50 5 4 -60 144 -66 144 -1 0
-68 -33 -148 -72 l-145 -73 -35 19 -35 19 0 206 c0 188 2 209 20 239 40 65
118 89 180 57z"/>
<path d="M164 4241 c13 -154 66 -310 152 -444 63 -99 211 -241 310 -298 159
-93 278 -127 471 -136 l131 -6 26 26 c17 17 26 37 26 58 0 28 -17 50 -127 161
-70 70 -132 128 -138 128 -13 0 -105 -92 -105 -105 0 -5 19 -29 42 -52 l43
-43 -35 6 c-74 14 -204 68 -273 113 -209 137 -340 356 -364 604 l-6 67 -80 0
-80 0 7 -79z"/>
<path d="M953 3185 c-198 -36 -364 -123 -509 -269 -170 -169 -265 -378 -281
-613 -6 -88 -5 -92 20 -117 17 -17 37 -26 58 -26 28 0 50 17 161 127 70 70
128 132 128 138 0 13 -92 105 -105 105 -5 0 -22 -12 -38 -27 l-29 -28 7 25
c31 103 104 218 197 309 147 147 355 231 571 231 l67 0 0 80 0 80 -87 -1 c-49
0 -120 -7 -160 -14z"/>
</g>
</svg>
