<svg viewBox="0 0 853 853" xmlns="http://www.w3.org/2000/svg" xmlns:xlink="http://www.w3.org/1999/xlink" overflow="hidden"><defs><clipPath id="clip0"><rect x="-12" y="-53" width="100%" height="100%"/></clipPath></defs><g clip-path="url(#clip0)" transform="translate(12 53)"><path d="M418.497 660.333C457.594 629.467 494.897 596.391 530.223 561.269 581.43 512.483 626.712 457.833 665.132 398.451 700.798 341.027 734.86 266.484 711.409 198.361 692.417 142.008 639.719 94.125 579.175 88.3292 502.67 80.75 447.298 145.485 416 207.456 387.378 150.746 340.03 92.2525 271.639 87.9725 210.917 84.2275 154.385 126.938 128.259 179.993 95.535 246.6 122.196 321.5 156.614 381.331 192.281 443.747 239.717 498.585 289.829 549.321 329.333 589.737 371.483 627.478 416 662.295ZM273.333 357.167 300.083 276.917 315.955 229.212C320.057 216.818 326.388 200.233 343.508 207.367 353.851 211.736 354.475 222.436 356.258 231.798L363.659 271.299 385.059 385.432 399.237 461.224 450.953 324.443 462.367 294.304C465.666 285.388 469.054 276.471 480.2 275.49 494.378 274.063 498.568 286.19 501.689 296.89L512.657 334.518 534.413 409.329 555.903 385.7C562.776 376.706 570.511 368.403 578.997 360.912 587.913 354.67 604.409 357.523 614.663 357.523L647.833 357.523C641.235 369.383 633.923 381.331 625.988 393.19L597.008 393.19C578.016 414.144 559.826 436.436 539.674 456.32 533.353 463.873 522.107 464.873 514.553 458.552 513.068 457.309 511.794 455.832 510.784 454.18 508.847 450.345 507.437 446.266 506.593 442.053L491.703 391.139 479.576 349.409C456.838 409.418 434.993 469.517 411.542 529.258 410.23 534.125 407.385 538.441 403.428 541.563 395.309 547.14 384.208 545.079 378.631 536.961 377.206 534.887 376.237 532.536 375.786 530.061 373.735 521.858 372.665 513.297 371.06 505.094L348.501 384.719 331.648 294.75 306.503 370.274C302.669 381.509 299.638 392.477 285.193 393.19 272.085 393.814 258.888 393.19 245.87 393.19L205.745 393.19C197.898 381.331 190.497 369.383 183.899 357.523Z" fill="#FF0000"/></g></svg>