<svg version="1.1" viewBox="0.0 0.0 389.753280839895 121.0997375328084" fill="none" stroke="none" stroke-linecap="square" stroke-miterlimit="10" xmlns:xlink="http://www.w3.org/1999/xlink" xmlns="http://www.w3.org/2000/svg"><clipPath id="p.0"><path d="m0 0l389.7533 0l0 121.09974l-389.7533 0l0 -121.09974z" clip-rule="nonzero"/></clipPath><g clip-path="url(#p.0)"><path fill="#000000" fill-opacity="0.0" d="m0 0l389.7533 0l0 121.09974l-389.7533 0z" fill-rule="evenodd"/><path fill="#000000" fill-opacity="0.0" d="m-11.551181 -16.070866l442.17322 0l0 65.480316l-442.17322 0z" fill-rule="evenodd"/><path fill="#ff0000" d="m16.823818 23.87164l17.125 0l21.25 64.125l21.562504 -64.125l16.875 0l15.5 91.9375l-16.875 0l-9.875 -58.062496l-19.562504 58.062496l-15.4375 0l-19.3125 -58.062496l-10.0625 58.062496l-17.0625 0l15.874999 -91.9375z" fill-rule="nonzero"/><path fill="#000000" d="m123.63632 73.996635l31.75 0l0 15.875l-31.75 0l0 -15.875zm53.25 -50.124996l17.5 0l0 75.25l25.5 0l0 16.6875l-43.0 0l0 -91.9375zm104.6875 23.9375l17.0 0l0 68.0l-17.0 0l0 -7.1875q-5.0 4.75 -10.03125 6.84375q-5.03125 2.09375 -10.90625 2.09375q-13.1875 0 -22.8125 -10.21875q-9.625 -10.21875 -9.625 -25.40625q0 -15.75 9.3125 -25.812496q9.3125 -10.0625 22.625 -10.0625q6.125 0 11.5 2.3125q5.375 2.3125 9.9375 6.9375l0 -7.5zm-17.9375 14.0q-7.9375 0 -13.1875 5.593746q-5.25 5.59375 -5.25 14.34375q0 8.8125 5.34375 14.5q5.34375 5.6875 13.15625 5.6875q8.0625 0 13.375 -5.59375q5.3125 -5.59375 5.3125 -14.65625q0 -8.875 -5.3125 -14.375q-5.3125 -5.499996 -13.4375 -5.499996zm69.125 -40.25l0 33.75q4.625 -4.625 10.0 -6.9375q5.375 -2.3125 11.5 -2.3125q13.3125 0 22.625 10.0625q9.3125 10.062496 9.3125 25.812496q0 15.1875 -9.625 25.40625q-9.625 10.21875 -22.8125 10.21875q-5.875 0 -10.9375 -2.09375q-5.0625 -2.09375 -10.0625 -6.84375l0 7.1875l-16.9375 0l0 -94.25l16.9375 0zm17.9375 40.25q-8.0625 0 -13.375 5.499996q-5.3125 5.5 -5.3125 14.375q0 9.0625 5.3125 14.65625q5.3125 5.59375 13.375 5.59375q7.8125 0 13.15625 -5.6875q5.34375 -5.6875 5.34375 -14.5q0 -8.75 -5.25 -14.34375q-5.25 -5.593746 -13.25 -5.593746z" fill-rule="nonzero"/></g></svg>