<svg width="2741" height="1479" xmlns="http://www.w3.org/2000/svg" xmlns:xlink="http://www.w3.org/1999/xlink" overflow="hidden"><defs><clipPath id="clip0"><rect x="825" y="668" width="2741" height="1479"/></clipPath><clipPath id="clip1"><rect x="1762" y="973" width="873" height="872"/></clipPath><clipPath id="clip2"><rect x="1762" y="973" width="873" height="872"/></clipPath><clipPath id="clip3"><rect x="1762" y="973" width="873" height="872"/></clipPath><clipPath id="clip4"><rect x="871" y="905" width="1035" height="1018"/></clipPath><clipPath id="clip5"><rect x="871" y="905" width="1035" height="1018"/></clipPath><clipPath id="clip6"><rect x="871" y="905" width="1035" height="1018"/></clipPath><clipPath id="clip7"><rect x="2612" y="1040" width="758" height="747"/></clipPath><clipPath id="clip8"><rect x="2612" y="1040" width="758" height="747"/></clipPath><clipPath id="clip9"><rect x="2612" y="1040" width="758" height="747"/></clipPath></defs><g clip-path="url(#clip0)" transform="translate(-825 -668)"><path d="M2108.19 1799.68 359.935 1799.68 359.935 668.451 2108.19 668.451 2108.19 1799.68ZM1362.61 1902.51 1105.52 1902.51C1090.09 1902.51 1079.81 1892.23 1079.81 1876.8 1079.81 1861.38 1090.09 1851.09 1105.52 1851.09L1362.61 1851.09C1378.04 1851.09 1388.32 1861.38 1388.32 1876.8 1388.32 1892.23 1378.04 1902.51 1362.61 1902.51ZM1234.06 565.612C1249.49 565.612 1259.77 575.896 1259.77 591.322 1259.77 606.748 1249.49 617.032 1234.06 617.032 1218.64 617.032 1208.35 606.748 1208.35 591.322 1208.35 575.896 1218.64 565.612 1234.06 565.612ZM2159.61 514.193 308.516 514.193C251.955 514.193 205.677 560.47 205.677 617.032L205.677 1851.09C205.677 1907.66 251.955 1953.93 308.516 1953.93L2159.61 1953.93C2216.17 1953.93 2262.45 1907.66 2262.45 1851.09L2262.45 617.032C2262.45 560.47 2216.17 514.193 2159.61 514.193Z" fill="#FFFFFF" transform="matrix(1.30865 0 0 1 585.147 176.3)"/><rect x="1056" y="806" width="2385" height="136" fill="#1C1B1F"/><rect x="3291" y="844" width="150" height="1131" fill="#1C1B1F"/><rect x="1056" y="1874" width="2385" height="136" fill="#1C1B1F"/><rect x="956" y="806" width="149" height="1204" fill="#1C1B1F"/><rect x="960.5" y="806.5" width="2481" height="1204" stroke="#1C1B1F" stroke-width="4.58333" stroke-miterlimit="8" fill="#1C1B1F"/><g clip-path="url(#clip1)"><g clip-path="url(#clip2)"><g clip-path="url(#clip3)"><path d="M568.171 172.302C558.667 168.013 548.452 165.518 538.042 164.944 529.372 164.169 521.102 168.743 517.15 176.498 506.695 197.39 510.02 268.758 502.762 281.629 500.389 287.637 494.525 291.533 488.065 291.393 486.921 291.393 485.749 291.311 484.532 291.202 472.333 290.058 472.333 262.808 472.333 262.808L472.333 81.1414 454.167 81.1414 454.167 99.308 417.833 99.308 417.833 81.1414 399.667 81.1414 399.667 262.872C399.667 263.535 399.512 290.076 387.468 291.202 386.25 291.311 385.07 291.393 383.934 291.393 377.475 291.533 371.611 287.637 369.237 281.629 361.971 268.758 365.304 197.399 354.849 176.498 350.897 168.743 342.628 164.169 333.958 164.944 323.547 165.519 313.332 168.014 303.828 172.302 168.641 231.107 72.6666 379.211 72.6666 552.748 72.3235 629.799 92.0051 705.618 129.783 772.773 131.717 775.335 141.655 787.906 151.056 787.906 219.635 787.906 335.693 718.228 356.593 655.517 377.494 592.805 368.129 468.264 391.437 432.557 399.71 419.271 412.204 409.148 426.917 403.809 432.779 401.647 439.221 401.647 445.083 403.809 459.815 409.142 472.328 419.274 480.608 432.575 503.907 468.282 494.542 592.833 515.443 655.535 536.343 718.237 652.365 787.906 720.944 787.906 730.336 787.906 740.282 775.335 742.217 772.773 779.99 705.616 799.672 629.798 799.333 552.748 799.333 379.211 703.349 231.107 568.171 172.302ZM417.833 117.475 454.167 117.475 454.167 135.641 417.833 135.641ZM417.833 153.808 454.167 153.808 454.167 171.975 417.833 171.975ZM417.833 190.141 454.167 190.141 454.167 208.308 417.833 208.308ZM417.833 226.475 454.167 226.475 454.167 244.641 417.833 244.641ZM727.048 762.691C724.971 765.401 722.49 767.776 719.69 769.73 654.445 768.877 550.086 702.141 532.637 649.776 523.554 622.426 520.493 580.679 517.559 540.304 513.871 489.437 510.683 445.465 495.759 422.629 484.253 404.075 466.147 390.567 445.083 384.824 439.106 383.442 432.893 383.442 426.917 384.824 405.858 390.566 387.755 404.07 376.25 422.62 361.344 445.456 358.156 489.41 354.45 540.304 351.525 580.67 348.491 622.417 339.38 649.767 321.913 702.141 217.546 768.877 152.309 769.73 149.51 767.776 147.028 765.401 144.952 762.691 109.17 698.524 90.5307 626.217 90.8333 552.748 90.8333 392.454 179.341 246.258 310.65 189.133 317.974 185.703 325.871 183.661 333.94 183.111 337.827 183.111 338.236 183.919 338.59 184.628 342.605 192.667 344.313 220.498 345.448 238.91 347.138 266.587 348.264 281.465 353.396 290.558 359.041 302.258 370.925 309.657 383.916 309.56 385.596 309.56 387.34 309.46 389.139 309.287 399.182 308.239 407.854 301.796 411.756 292.483 415.077 284.773 417.129 276.577 417.833 268.213L417.833 262.808 454.167 262.808 454.167 268.258C454.881 276.569 456.918 284.713 460.198 292.383 464.08 301.742 472.767 308.23 482.843 309.296 484.659 309.469 486.376 309.569 488.065 309.569 501.056 309.666 512.94 302.267 518.585 290.567 523.718 281.483 524.844 266.596 526.533 238.919 527.669 220.507 529.376 192.676 533.4 184.637 533.746 183.928 534.154 183.12 538.042 183.12 545.964 183.641 553.723 185.624 560.923 188.97 692.658 246.267 781.166 392.454 781.166 552.748 781.468 626.217 762.829 698.524 727.048 762.691Z" fill="#FFFFFF" transform="matrix(1 0 0 1 1762 973)"/><path d="M690.333 550.25C685.201 538.646 681.092 526.617 678.052 514.298 673.177 496.483 667.34 478.944 660.567 461.76 649.27 434.675 631.93 410.531 609.873 391.174 624.488 385.46 640.356 383.721 655.862 386.132 673.757 389.99 689.747 399.967 701.079 414.345 703.993 418.429 709.666 419.376 713.75 416.462 717.834 413.547 718.781 407.874 715.866 403.79 701.822 385.519 681.676 372.907 659.105 368.256 636.787 364.786 613.941 368.307 593.705 378.339 587.518 374.002 581.105 369.997 574.493 366.34 584.315 357.428 592.706 347.058 599.373 335.593 607.552 319.978 612.092 302.716 612.652 285.098 612.652 280.082 608.586 276.015 603.569 276.015 598.552 276.015 594.486 280.082 594.486 285.098 593.933 299.675 590.148 313.947 583.404 326.882 576.428 338.471 567.561 348.812 557.171 357.474 537.38 348.786 516.941 341.655 496.041 336.147 485.736 333.654 475.674 330.247 465.975 325.964 455.612 319.944 448.059 310.059 444.974 298.478L444.638 297.388C443.098 292.614 437.978 289.993 433.204 291.533 430.107 292.532 427.781 295.113 427.107 298.297 424.041 309.963 416.459 319.931 406.034 326.001 396.316 330.296 386.232 333.713 375.905 336.21 355.081 341.701 334.715 348.802 314.992 357.447 304.633 348.799 295.797 338.477 288.85 326.909 282.141 313.96 278.355 299.697 277.759 285.126 277.759 280.109 273.693 276.042 268.676 276.042 263.659 276.042 259.592 280.109 259.592 285.126 260.153 302.745 264.696 320.008 272.881 335.62 279.521 347.038 287.872 357.37 297.643 366.258 290.964 369.944 284.487 373.986 278.241 378.366 258.001 368.343 235.158 364.821 212.841 368.284 190.264 372.926 170.114 385.544 156.079 403.827 153.268 407.982 154.359 413.629 158.515 416.439 162.522 419.148 167.947 418.244 170.857 414.382 182.186 399.985 198.185 389.994 216.092 386.132 231.601 383.716 247.474 385.456 262.09 391.174 240.033 410.529 222.696 434.674 211.405 461.76 204.617 478.957 198.771 496.51 193.893 514.344 190.872 526.646 186.781 538.661 181.667 550.25 175.128 559.158 167.275 567.023 158.377 573.576 154.243 576.418 153.197 582.073 156.039 586.207 157.728 588.665 160.517 590.137 163.5 590.144 165.335 590.146 167.126 589.584 168.632 588.536 179.247 580.815 188.594 571.486 196.336 560.887 203.089 547.785 208.12 533.866 211.306 519.476 215.983 503.571 221.297 485.867 226.983 471.752 235.331 484.447 241.558 498.414 245.422 513.108 248.149 522.856 248.823 533.062 247.403 543.083 245.674 547.793 248.09 553.011 252.799 554.741 257.284 556.387 262.278 554.278 264.225 549.914 265.36 547.298 268.639 536.643 263.235 509.584 257.688 489.074 248.521 469.719 236.167 452.432 255.048 417.741 284.932 390.317 321.114 374.478 315.002 384.935 310.806 396.4 308.724 408.332 306.091 429.163 306.396 450.261 309.633 471.007 310.555 475.938 315.301 479.187 320.232 478.265 325.057 477.362 328.292 472.788 327.536 467.937 324.675 449.093 324.407 429.947 326.736 411.03 330.862 393.166 339.281 376.576 351.261 362.697 361.789 359.173 371.862 356.275 381.009 353.669 392.636 350.89 403.96 346.971 414.818 341.969 423.415 337.224 430.695 330.413 436 322.149 441.344 330.419 448.668 337.222 457.309 341.942 468.168 346.942 479.491 350.861 491.117 353.641 500.255 356.248 510.311 359.091 520.829 362.661 532.743 376.509 541.11 393.047 545.209 410.848 547.539 429.765 547.266 448.912 544.4 467.755 543.55 472.699 546.868 477.396 551.812 478.246 552.323 478.328 552.84 478.371 553.356 478.374 557.776 478.372 561.552 475.189 562.304 470.834 565.541 450.088 565.847 428.99 563.212 408.159 561.132 396.268 556.952 384.842 550.868 374.415 586.985 390.206 616.84 417.537 635.751 452.123 623.355 469.388 614.154 488.736 608.583 509.248 603.133 536.298 606.449 546.953 607.584 549.578 608.985 552.838 612.212 554.932 615.759 554.883 616.894 554.879 618.021 554.673 619.083 554.274 623.621 552.461 625.976 547.44 624.47 542.793 622.988 532.775 623.661 522.556 626.441 512.818 630.306 498.106 636.547 484.125 644.916 471.425 650.675 485.531 655.998 503.425 660.703 519.439 663.895 533.848 668.932 547.785 675.691 560.905 683.436 571.507 692.787 580.839 703.404 588.563 707.566 591.364 713.21 590.259 716.011 586.097 718.771 581.994 717.742 576.436 713.695 573.594 704.765 567.048 696.887 559.175 690.333 550.25Z" fill="#FFFFFF" transform="matrix(1 0 0 1 1762 973)"/></g></g></g><g clip-path="url(#clip4)"><g clip-path="url(#clip5)"><g clip-path="url(#clip6)"><path d="M860.316 298.931C837.729 231.913 775.058 174.969 703.056 168.076 698.157 167.588 693.311 167.355 688.56 167.355 605.127 167.355 544.344 239.898 509.085 309.567 509.085 309.673 508.957 309.673 508.915 309.567 474.865 242.189 418.578 172.774 337.318 167.652 334.363 167.468 331.412 167.376 328.464 167.376 259.654 167.376 196.601 216.579 166.804 277.087 127.886 356.3 159.593 445.375 200.525 516.529 244.456 589.705 297.711 656.861 358.951 716.311 405.929 764.378 456.057 809.262 509 850.666L511.969 848.333C558.465 811.624 602.828 772.289 644.839 730.521 705.737 672.5 759.588 607.508 805.28 536.889 847.697 468.598 888.205 379.947 860.316 298.931ZM629.887 715.484C591.513 753.617 551.162 789.707 509 823.604 461.58 785.645 416.511 744.839 374.041 701.412 318.037 646.836 268.707 585.807 227.088 519.604L354.72 519.604C359.18 519.394 363.101 516.588 364.741 512.436L412.141 373.988C412.205 373.776 412.301 373.786 412.343 373.988L472.596 687.553C473.498 692.223 477.4 695.721 482.14 696.11 482.447 696.126 482.755 696.126 483.062 696.11 487.461 696.108 491.401 693.392 492.966 689.281L586.569 443.954C586.633 443.795 586.718 443.795 586.771 443.954L630.354 594.077C632.004 599.696 637.898 602.914 643.517 601.264 645.342 600.727 646.989 599.71 648.286 598.319L721.974 519.604 790.901 519.604 791.007 519.806C745.378 591.283 691.279 656.985 629.887 715.484ZM803.287 498.396 717.393 498.396C714.495 498.559 711.751 499.751 709.652 501.757L645.635 570.197C645.56 570.271 645.486 570.25 645.454 570.197L598.181 407.423C596.54 401.8 590.653 398.573 585.031 400.214 581.847 401.143 579.281 403.509 578.097 406.606L486.53 646.6C486.455 646.79 486.36 646.79 486.328 646.6L425.577 330.436C424.666 325.72 420.698 322.204 415.906 321.868 411.075 321.395 406.574 324.373 405.122 329.005L347.127 498.396 214.734 498.396C167.981 414.05 158.172 342.748 185.827 286.461 214.66 227.915 271.976 188.584 328.464 188.584 330.977 188.584 333.49 188.669 335.993 188.818 411.283 193.526 461.334 262.379 490.072 319.302L508.905 356.618C508.905 356.724 509.042 356.724 509.085 356.618L527.928 319.313C547.779 280.003 603.218 188.563 688.56 188.563 692.643 188.563 696.821 188.775 701.031 189.189 761.824 195.011 819.055 242.92 840.263 305.835 858.248 358.092 846.043 421.399 803.287 498.396Z" fill="#FFFFFF" transform="matrix(1.01572 0 0 1 871 905)"/></g></g></g><g clip-path="url(#clip7)"><g clip-path="url(#clip8)"><g clip-path="url(#clip9)"><path d="M627.577 706.423C625.345 711.925 622.455 717.136 618.971 721.944L706.198 721.944 706.198 706.423Z" fill="#FFFFFF" transform="matrix(1.01477 0 0 1 2613 1041)"/><path d="M559.03 628.136 396.674 628.136C392.388 628.136 388.913 631.61 388.913 635.897 388.913 640.183 392.388 643.657 396.674 643.657L559.03 643.657C578.443 643.946 593.947 659.917 593.658 679.33 593.376 698.337 578.036 713.676 559.03 713.959L387.385 713.959C382.367 713.966 377.406 712.891 372.842 710.808L254.829 657.168C243.02 651.829 235.122 640.409 234.295 627.477 234.295 627.282 234.295 627.088 234.295 626.894 234.24 625.761 234.24 623.457 234.24 623.441 234.313 578.789 265.21 540.103 308.741 530.161 307.964 528.523 307.025 526.964 306.335 525.241L302.524 515.757C253.286 528.323 218.802 572.632 218.712 623.449 218.712 623.449 218.712 625.203 218.712 626.631 218.712 626.879 218.712 627.127 218.712 627.407 219.531 646.465 231.02 663.437 248.411 671.276L366.416 724.924C372.994 727.923 380.139 729.472 387.369 729.464L559.03 729.464C587.014 729.118 609.42 706.15 609.074 678.165 608.734 650.668 586.526 628.461 559.03 628.121Z" fill="#FFFFFF" transform="matrix(1.01477 0 0 1 2613 1041)"/><path d="M494.835 521.702 493.415 525.241C491.765 529.248 489.774 533.107 487.463 536.773L705.686 551.199 706.71 535.678Z" fill="#FFFFFF" transform="matrix(1.01477 0 0 1 2613 1041)"/><path d="M124.741 493.904 124.741 493.904C163.567 493.885 195.059 525.343 195.078 564.17 195.096 598.645 170.112 628.045 136.087 633.592 132.267 634.222 128.402 634.542 124.531 634.546 85.7006 634.514 54.2487 603.008 54.2817 564.177 54.3107 529.771 79.2354 500.44 113.186 494.859 117.005 494.231 120.87 493.914 124.741 493.912M124.741 478.391C77.3426 478.341 38.8785 516.725 38.829 564.124 38.7797 611.523 77.1636 649.986 124.562 650.036 171.961 650.086 210.425 611.701 210.474 564.303 210.479 559.594 210.096 554.892 209.33 550.245 202.376 508.9 166.666 478.566 124.741 478.391Z" fill="#FFFFFF" transform="matrix(1.01477 0 0 1 2613 1041)"/><path d="M573.441 217.866C573.441 217.781 573.441 217.695 573.371 217.61 573.254 217.377 573.115 217.16 572.991 216.927 572.626 216.229 572.215 215.538 571.834 214.855 554.851 185.053 528.786 161.462 497.443 147.526 495.277 152.188 492.783 156.69 489.977 160.998 516.71 172.755 539.383 192.13 555.165 216.702 555.405 217.743 555.856 218.723 556.492 219.581 557.209 220.564 557.872 221.584 558.479 222.639 558.781 223.205 559.13 223.748 559.418 224.323 564.252 233.561 564.818 244.448 560.97 254.138L457.865 510.636C452.554 524.272 439.111 532.979 424.495 532.248 420.715 532.038 416.998 531.183 413.506 529.719 412.994 529.501 412.552 529.206 412.055 528.942 423.363 514.569 426.149 495.258 419.365 478.275L408.198 450.64 471.833 292.382C473.4 288.392 471.435 283.889 467.444 282.323 463.498 280.774 459.04 282.678 457.43 286.6L399.863 429.819 342.351 286.647C340.724 282.682 336.19 280.787 332.225 282.414 328.304 284.023 326.399 288.482 327.948 292.428L404.939 484.11C412.153 501.876 403.852 522.151 386.252 529.757 382.757 531.222 379.038 532.077 375.255 532.287 360.611 533.037 347.138 524.308 341.839 510.636L238.804 254.146C235.397 245.659 235.397 236.185 238.804 227.698L238.866 227.598C239.774 225.626 240.845 223.717 241.869 221.816 242.195 221.296 242.482 220.753 242.839 220.264 243.266 219.604 243.587 218.881 243.794 218.122 259.089 193.364 281.425 173.733 307.941 161.743 305.12 157.458 302.604 152.98 300.414 148.34 270.052 162.269 244.813 185.355 228.242 214.358 226.926 216.494 225.772 218.725 224.788 221.032L224.734 221.141 224.734 221.141C219.503 233.524 219.389 247.475 224.416 259.943L327.435 516.417C334.895 535.285 353.08 547.72 373.369 547.824 374.285 547.824 375.208 547.824 376.132 547.754 381.669 547.438 387.112 546.181 392.227 544.036 394.883 542.913 397.435 541.56 399.856 539.993 406.963 544.599 415.147 547.273 423.602 547.754 424.526 547.8 425.442 547.824 426.357 547.824 446.646 547.72 464.832 535.285 472.291 516.417L575.334 259.92C580.735 246.274 580.046 230.971 573.441 217.866Z" fill="#FFFFFF" transform="matrix(1.01477 0 0 1 2613 1041)"/><path d="M398.699 31.0417C437.525 31.0374 469.004 62.509 469.009 101.336 469.013 140.162 437.541 171.64 398.715 171.645 359.889 171.65 328.41 140.177 328.405 101.351 328.405 101.349 328.405 101.346 328.405 101.343 328.448 62.5376 359.893 31.0887 398.699 31.0417M398.699 15.5208C351.301 15.5208 312.877 53.9448 312.877 101.343 312.877 148.742 351.301 187.166 398.699 187.166 446.098 187.166 484.522 148.742 484.522 101.343 484.526 53.9492 446.109 15.5251 398.715 15.5208 398.709 15.5208 398.705 15.5208 398.699 15.5208Z" fill="#FFFFFF" transform="matrix(1.01477 0 0 1 2613 1041)"/></g></g></g></g></svg>