<?xml version="1.0" standalone="no"?>
<!DOCTYPE svg PUBLIC "-//W3C//DTD SVG 20010904//EN"
 "http://www.w3.org/TR/2001/REC-SVG-20010904/DTD/svg10.dtd">
<svg version="1.0" xmlns="http://www.w3.org/2000/svg"
 width="288.000000pt" height="269.000000pt" viewBox="0 0 288.000000 269.000000"
 preserveAspectRatio="xMidYMid meet">

<g transform="translate(0.000000,269.000000) scale(0.100000,-0.100000)"
fill="#000000" stroke="none">
<path d="M723 2390 c-198 -58 -345 -199 -409 -390 -26 -78 -24 -238 4 -345 75
-285 259 -552 647 -940 295 -296 449 -435 481 -435 31 0 197 151 489 445 464
466 657 792 659 1115 1 145 -38 255 -125 356 -126 145 -281 214 -485 214 -219
0 -375 -81 -494 -258 -19 -28 -39 -52 -45 -52 -5 0 -23 20 -38 45 -41 64 -138
158 -199 193 -94 53 -176 72 -307 71 -81 0 -135 -6 -178 -19z m337 -107 c30
-8 73 -25 96 -38 59 -34 154 -140 205 -228 68 -117 101 -117 168 1 63 109 177
222 255 251 309 115 646 -54 698 -349 29 -169 -48 -406 -209 -639 -156 -227
-343 -426 -761 -816 -30 -28 -60 -50 -68 -50 -7 0 -104 86 -215 190 -373 352
-608 631 -720 854 -152 303 -141 541 32 706 132 126 328 171 519 118z"/>
<path d="M860 2100 c-17 -17 -20 -33 -20 -105 l0 -84 -92 -3 c-91 -3 -93 -3
-102 -31 -17 -47 1 -62 80 -65 119 -4 114 0 114 -92 0 -67 3 -83 20 -100 25
-25 42 -25 69 -2 17 14 21 30 23 102 l3 85 85 3 c93 3 110 11 110 52 0 41 -17
49 -110 52 l-85 3 -3 85 c-2 72 -6 88 -23 103 -27 22 -44 22 -69 -3z"/>
<path d="M1602 1953 c-11 -10 -78 -101 -149 -203 -72 -102 -176 -250 -231
-329 -102 -143 -118 -181 -90 -209 19 -19 39 -15 249 45 110 31 202 54 205 50
3 -3 -59 -113 -139 -244 -173 -284 -170 -279 -162 -303 8 -26 40 -43 65 -35
11 3 50 57 88 118 352 571 352 573 320 605 -19 19 -44 15 -248 -43 -106 -30
-195 -53 -197 -51 -2 2 76 118 175 257 98 140 184 264 191 277 16 30 5 61 -26
73 -31 11 -27 12 -51 -8z"/>
</g>
</svg>
