<?xml version="1.0" standalone="no"?>
<!DOCTYPE svg PUBLIC "-//W3C//DTD SVG 20010904//EN"
 "http://www.w3.org/TR/2001/REC-SVG-20010904/DTD/svg10.dtd">
<svg version="1.0" xmlns="http://www.w3.org/2000/svg"
 width="512.000000pt" height="512.000000pt" viewBox="0 0 512.000000 512.000000"
 preserveAspectRatio="xMidYMid meet">

<g transform="translate(0.000000,512.000000) scale(0.100000,-0.100000)"
fill="#000000" stroke="none">
<path d="M2755 5034 c-135 -20 -265 -64 -334 -113 l-29 -21 -68 26 c-194 73
-441 20 -601 -129 -86 -81 -127 -143 -224 -342 -72 -147 -90 -176 -167 -262
-150 -167 -158 -177 -200 -239 -54 -79 -87 -151 -114 -250 -19 -71 -21 -99
-18 -284 7 -383 8 -362 -40 -475 -205 -479 -210 -799 -15 -984 118 -112 277
-143 545 -106 122 16 202 38 221 61 20 25 16 81 -8 105 -26 26 -47 27 -153 4
-107 -24 -345 -27 -404 -6 -55 19 -129 92 -157 154 -21 46 -24 66 -23 172 1
143 25 240 111 465 93 244 86 206 84 491 -2 284 6 361 48 454 39 86 71 131
224 313 121 145 134 166 207 316 134 277 215 359 397 402 102 24 179 15 271
-32 41 -21 86 -37 101 -36 14 1 41 17 61 36 84 81 211 120 395 120 181 1 264
-28 375 -131 83 -77 130 -149 216 -330 96 -205 120 -245 200 -336 140 -158
196 -234 233 -312 63 -130 65 -148 66 -475 l0 -295 58 -133 c203 -467 194
-742 -28 -844 -46 -21 -62 -23 -215 -22 -130 1 -174 5 -210 19 -25 10 -61 19
-81 22 -30 4 -40 1 -58 -22 -26 -34 -27 -79 -2 -104 33 -33 248 -71 401 -71
155 0 265 37 351 116 195 184 197 508 4 964 -65 153 -62 123 -55 500 3 156 0
210 -13 270 -34 152 -119 289 -307 495 -81 89 -99 116 -162 245 -89 184 -136
263 -198 342 -96 119 -225 206 -360 244 -54 15 -266 27 -325 18z"/>
<path d="M2126 4316 c-92 -34 -149 -125 -211 -336 -96 -329 -166 -419 -349
-451 -134 -23 -193 -104 -203 -284 -13 -215 59 -391 190 -465 52 -29 53 -30
81 -121 58 -186 171 -379 302 -518 l64 -68 0 -153 c0 -90 -5 -169 -12 -193
-16 -53 -93 -136 -176 -188 -83 -53 -172 -93 -382 -175 -386 -150 -495 -203
-665 -322 -105 -74 -253 -217 -327 -316 -109 -146 -183 -338 -195 -507 -6 -84
-5 -88 20 -113 33 -33 79 -34 111 -3 18 18 24 38 29 102 4 44 13 107 22 140
21 82 93 227 153 305 108 143 306 302 492 395 85 42 381 165 398 165 5 0 36
-42 68 -92 112 -178 313 -354 507 -443 391 -179 830 -146 1194 90 118 77 271
232 347 353 32 50 60 92 62 92 17 0 328 -129 398 -165 272 -139 488 -340 592
-550 51 -105 72 -179 81 -290 5 -64 11 -84 29 -102 32 -31 78 -30 111 3 25 25
26 29 20 107 -9 122 -40 229 -102 352 -99 196 -253 360 -480 510 -150 99 -230
137 -542 261 -400 158 -539 238 -608 348 -30 49 -30 51 -33 213 l-4 164 70 73
c136 144 249 335 308 526 26 84 32 94 65 110 157 81 239 316 198 570 -18 111
-71 167 -177 189 -144 30 -228 107 -460 426 -195 268 -296 356 -423 371 -66 7
-169 -9 -220 -34 -39 -19 -39 -19 -104 4 -85 31 -187 39 -239 20z m229 -201
c83 -42 113 -44 145 -10 50 53 161 61 232 16 54 -34 100 -88 278 -326 207
-278 318 -375 478 -421 99 -28 107 -41 107 -179 0 -164 -54 -268 -153 -294
-24 -7 -51 -21 -60 -32 -9 -10 -27 -60 -39 -110 -59 -234 -175 -423 -353 -576
-299 -258 -624 -238 -921 57 -47 47 -104 112 -126 145 -80 119 -146 275 -174
406 -14 65 -39 96 -93 110 -54 15 -109 73 -132 141 -24 68 -26 238 -4 283 13
25 24 31 80 42 101 20 179 64 249 138 74 80 124 179 182 365 46 151 86 246
114 274 27 27 103 15 190 -29z m-90 -2209 c202 -88 407 -85 611 9 l72 33 4
-117 c7 -151 28 -209 110 -297 74 -79 161 -137 312 -210 l116 -56 -22 -36
c-76 -127 -230 -280 -357 -356 -175 -105 -340 -150 -551 -150 -211 0 -375 45
-552 150 -126 75 -341 297 -373 386 -3 9 24 25 84 51 201 86 347 203 404 325
29 62 32 77 35 190 3 88 7 122 16 118 6 -2 47 -20 91 -40z"/>
</g>
</svg>
